LXGWWenKaiLite-Light.ufo
<glyph name="asterisk" format="1">
  <advance width="500" height="500"/>
  <unicode hex="002A"/>
  <outline>
    <contour>
      <point x="215" y="695" type="qcurve" smooth="yes"/>
      <point x="215" y="714"/>
      <point x="246" y="714" type="qcurve" smooth="yes"/>
      <point x="249" y="714" type="line" smooth="yes"/>
      <point x="266" y="714"/>
      <point x="275" y="703"/>
      <point x="275" y="688"/>
      <point x="274" y="684" type="qcurve" smooth="yes"/>
      <point x="262" y="566" type="line"/>
      <point x="308" y="586"/>
      <point x="345" y="605" type="qcurve" smooth="yes"/>
      <point x="388" y="629"/>
      <point x="406" y="629"/>
      <point x="419" y="599"/>
      <point x="419" y="577"/>
      <point x="403" y="570"/>
      <point x="379" y="565"/>
      <point x="356" y="560" type="qcurve" smooth="yes"/>
      <point x="295" y="547"/>
      <point x="272" y="541" type="qcurve"/>
      <point x="297" y="511" type="line" smooth="yes"/>
      <point x="337" y="463"/>
      <point x="358" y="442"/>
      <point x="366" y="433"/>
      <point x="366" y="420"/>
      <point x="339" y="395"/>
      <point x="328" y="395" type="qcurve" smooth="yes"/>
      <point x="312" y="395"/>
      <point x="306" y="414" type="qcurve" smooth="yes"/>
      <point x="300" y="429"/>
      <point x="279" y="470"/>
      <point x="258" y="512"/>
      <point x="250" y="525" type="qcurve"/>
      <point x="208" y="451"/>
      <point x="194" y="410" type="qcurve" smooth="yes"/>
      <point x="192" y="406"/>
      <point x="184" y="392"/>
      <point x="162" y="392"/>
      <point x="135" y="416"/>
      <point x="135" y="422" type="qcurve" smooth="yes"/>
      <point x="135" y="433"/>
      <point x="155" y="454"/>
      <point x="170" y="471" type="qcurve" smooth="yes"/>
      <point x="208" y="516"/>
      <point x="224" y="537" type="qcurve"/>
      <point x="165" y="548"/>
      <point x="109" y="550" type="qcurve" smooth="yes"/>
      <point x="103" y="551"/>
      <point x="85" y="556"/>
      <point x="85" y="592"/>
      <point x="90" y="600" type="qcurve" smooth="yes"/>
      <point x="98" y="611"/>
      <point x="105" y="611" type="qcurve" smooth="yes"/>
      <point x="114" y="611"/>
      <point x="130" y="604" type="qcurve" smooth="yes"/>
      <point x="151" y="594"/>
      <point x="234" y="564" type="qcurve"/>
      <point x="231" y="604"/>
      <point x="215" y="690"/>
    </contour>
  </outline>
</glyph>
<glyph name="bar" format="1">
  <advance width="350" height="350"/>
  <unicode hex="007C"/>
  <outline>
    <contour>
      <point x="146" y="-16" type="line"/>
      <point x="146" y="717" type="line"/>
      <point x="203" y="717" type="line"/>
      <point x="203" y="-16" type="line"/>
    </contour>
  </outline>
</glyph>
<glyph name="brokenbar" format="1">
  <advance width="350" height="350"/>
  <unicode hex="00A6"/>
  <outline>
    <contour>
      <point x="146" y="434" type="line"/>
      <point x="146" y="717" type="line"/>
      <point x="203" y="717" type="line"/>
      <point x="203" y="434" type="line"/>
    </contour>
    <contour>
      <point x="146" y="-16" type="line"/>
      <point x="146" y="267" type="line"/>
      <point x="203" y="267" type="line"/>
      <point x="203" y="-16" type="line"/>
    </contour>
  </outline>
</glyph>
<glyph name="dieresis" format="1">
  <advance width="500" height="500"/>
  <unicode hex="00A8"/>
  <outline>
    <contour>
      <point x="294" y="652" type="qcurve" smooth="yes"/>
      <point x="294" y="693"/>
      <point x="333" y="693" type="qcurve" smooth="yes"/>
      <point x="350" y="693"/>
      <point x="381" y="658"/>
      <point x="381" y="620"/>
      <point x="360" y="598"/>
      <point x="324" y="598"/>
      <point x="294" y="634"/>
    </contour>
    <contour>
      <point x="121" y="652" type="qcurve" smooth="yes"/>
      <point x="121" y="693"/>
      <point x="160" y="693" type="qcurve" smooth="yes"/>
      <point x="177" y="693"/>
      <point x="208" y="658"/>
      <point x="208" y="620"/>
      <point x="187" y="598"/>
      <point x="151" y="598"/>
      <point x="121" y="634"/>
    </contour>
  </outline>
</glyph>
<glyph name="uni00AD" format="1">
  <advance width="500" height="500"/>
  <unicode hex="00AD"/>
  <outline>
    <contour>
      <point x="360" y="275" type="line" smooth="yes"/>
      <point x="393" y="275"/>
      <point x="431" y="277" type="qcurve" smooth="yes"/>
      <point x="432" y="277" type="line" smooth="yes"/>
      <point x="440" y="277"/>
      <point x="451" y="256"/>
      <point x="451" y="225"/>
      <point x="437" y="225" type="qcurve" smooth="yes"/>
      <point x="359" y="227" type="line"/>
      <point x="139" y="227" type="line" smooth="yes"/>
      <point x="83" y="227"/>
      <point x="65" y="224" type="qcurve" smooth="yes"/>
      <point x="63" y="224" type="line" smooth="yes"/>
      <point x="55" y="224"/>
      <point x="45" y="245"/>
      <point x="45" y="256" type="qcurve" smooth="yes"/>
      <point x="45" y="277"/>
      <point x="60" y="277" type="qcurve" smooth="yes"/>
      <point x="90" y="275"/>
      <point x="140" y="275" type="qcurve" smooth="yes"/>
    </contour>
  </outline>
</glyph>
<glyph name="ae" format="1">
  <advance width="900" height="900"/>
  <unicode hex="00E6"/>
  <outline>
    <contour>
      <point x="424" y="219" type="qcurve"/>
      <point x="277" y="219"/>
      <point x="182" y="191" type="qcurve" smooth="yes"/>
      <point x="128" y="177"/>
      <point x="120" y="155" type="qcurve" smooth="yes"/>
      <point x="116" y="144"/>
      <point x="116" y="127" type="qcurve" smooth="yes"/>
      <point x="116" y="83"/>
      <point x="185" y="33"/>
      <point x="313" y="33"/>
      <point x="414" y="131"/>
    </contour>
    <contour>
      <point x="502" y="250" type="line" smooth="yes"/>
      <point x="631" y="250"/>
      <point x="719" y="276" type="qcurve" smooth="yes"/>
      <point x="774" y="292"/>
      <point x="781" y="312" type="qcurve" smooth="yes"/>
      <point x="785" y="323"/>
      <point x="785" y="341" type="qcurve" smooth="yes"/>
      <point x="785" y="385"/>
      <point x="727" y="436"/>
      <point x="637" y="436"/>
      <point x="571" y="399"/>
      <point x="546" y="370" type="qcurve" smooth="yes"/>
      <point x="492" y="309"/>
      <point x="481" y="250" type="qcurve"/>
    </contour>
    <contour>
      <point x="440" y="91" type="qcurve"/>
      <point x="379" y="-16"/>
      <point x="240" y="-16" type="qcurve" smooth="yes"/>
      <point x="121" y="-16"/>
      <point x="80" y="60" type="qcurve" smooth="yes"/>
      <point x="62" y="93"/>
      <point x="62" y="169"/>
      <point x="103" y="222"/>
      <point x="188" y="244"/>
      <point x="234" y="251" type="qcurve" smooth="yes"/>
      <point x="339" y="267"/>
      <point x="427" y="267" type="qcurve"/>
      <point x="427" y="384"/>
      <point x="357" y="420" type="qcurve" smooth="yes"/>
      <point x="326" y="436"/>
      <point x="245" y="436"/>
      <point x="212" y="422" type="qcurve" smooth="yes"/>
      <point x="155" y="399"/>
      <point x="126" y="354" type="qcurve" smooth="yes"/>
      <point x="122" y="347"/>
      <point x="105" y="347"/>
      <point x="85" y="373"/>
      <point x="85" y="399"/>
      <point x="103" y="415"/>
      <point x="125" y="434" type="qcurve" smooth="yes"/>
      <point x="183" y="484"/>
      <point x="286" y="484" type="qcurve" smooth="yes"/>
      <point x="393" y="484"/>
      <point x="441" y="418" type="qcurve" smooth="yes"/>
      <point x="463" y="388"/>
      <point x="472" y="351" type="qcurve"/>
      <point x="479" y="365"/>
      <point x="488" y="380" type="qcurve" smooth="yes"/>
      <point x="522" y="424"/>
      <point x="618" y="484"/>
      <point x="736" y="484"/>
      <point x="772" y="463" type="qcurve" smooth="yes"/>
      <point x="839" y="424"/>
      <point x="839" y="340" type="qcurve" smooth="yes"/>
      <point x="839" y="311"/>
      <point x="825" y="273"/>
      <point x="784" y="246"/>
      <point x="742" y="233" type="qcurve" smooth="yes"/>
      <point x="637" y="201"/>
      <point x="486" y="201" type="qcurve" smooth="yes"/>
      <point x="476" y="201" type="line"/>
      <point x="475" y="195"/>
      <point x="474" y="190" type="qcurve" smooth="yes"/>
      <point x="476" y="114"/>
      <point x="549" y="34"/>
      <point x="665" y="34"/>
      <point x="772" y="81"/>
      <point x="812" y="124" type="qcurve" smooth="yes"/>
      <point x="824" y="137"/>
      <point x="841" y="137"/>
      <point x="841" y="118"/>
      <point x="811" y="72"/>
      <point x="782" y="46" type="qcurve" smooth="yes"/>
      <point x="709" y="-16"/>
      <point x="600" y="-16" type="qcurve" smooth="yes"/>
      <point x="539" y="-16"/>
      <point x="493" y="21" type="qcurve" smooth="yes"/>
      <point x="458" y="48"/>
    </contour>
  </outline>
</glyph>
<glyph name="dotlessi" format="1">
  <advance width="263" height="263"/>
  <unicode hex="0131"/>
  <outline>
    <contour>
      <point x="102" y="17" type="qcurve" smooth="yes"/>
      <point x="104" y="105" type="line"/>
      <point x="104" y="368" type="line"/>
      <point x="101" y="475" type="line" smooth="yes"/>
      <point x="101" y="483"/>
      <point x="130" y="483"/>
      <point x="161" y="468"/>
      <point x="161" y="457" type="qcurve" smooth="yes"/>
      <point x="159" y="368" type="line"/>
      <point x="159" y="105" type="line"/>
      <point x="162" y="-1" type="line" smooth="yes"/>
      <point x="162" y="-9"/>
      <point x="134" y="-9"/>
      <point x="102" y="6"/>
    </contour>
  </outline>
</glyph>
<glyph name="lslash" format="1">
  <advance width="304" height="304"/>
  <unicode hex="0142"/>
  <outline>
    <contour>
      <point x="114" y="290" type="line" smooth="yes"/>
      <point x="71" y="257"/>
      <point x="52" y="242"/>
      <point x="37" y="242"/>
      <point x="12" y="265"/>
      <point x="12" y="281"/>
      <point x="21" y="288" type="qcurve" smooth="yes"/>
      <point x="79" y="327"/>
      <point x="122" y="362" type="qcurve"/>
      <point x="122" y="590" type="line"/>
      <point x="119" y="697" type="line" smooth="yes"/>
      <point x="119" y="702"/>
      <point x="150" y="702"/>
      <point x="183" y="689"/>
      <point x="183" y="679" type="qcurve" smooth="yes"/>
      <point x="181" y="590" type="line"/>
      <point x="181" y="407" type="line"/>
      <point x="189" y="413" type="line" smooth="yes"/>
      <point x="221" y="438"/>
      <point x="249" y="462"/>
      <point x="266" y="462"/>
      <point x="290" y="439"/>
      <point x="290" y="423"/>
      <point x="286" y="420" type="qcurve" smooth="yes"/>
      <point x="227" y="376"/>
      <point x="181" y="340" type="qcurve"/>
      <point x="181" y="78" type="line" smooth="yes"/>
      <point x="181" y="48"/>
      <point x="193" y="35"/>
      <point x="203" y="35" type="qcurve" smooth="yes"/>
      <point x="205" y="35" type="line"/>
      <point x="205" y="35" type="line"/>
      <point x="228" y="36"/>
      <point x="255" y="64" type="qcurve" smooth="yes"/>
      <point x="266" y="74"/>
      <point x="274" y="74" type="qcurve" smooth="yes"/>
      <point x="278" y="74"/>
      <point x="278" y="49"/>
      <point x="252" y="16" type="qcurve" smooth="yes"/>
      <point x="224" y="-16"/>
      <point x="196" y="-16" type="qcurve" smooth="yes"/>
      <point x="186" y="-16" type="line"/>
      <point x="154" y="-12"/>
      <point x="123" y="31"/>
      <point x="122" y="75" type="qcurve" smooth="yes"/>
      <point x="122" y="296" type="line"/>
    </contour>
    <contour>
      <point x="252" y="16" type="move" smooth="yes"/>
    </contour>
    <contour>
      <point x="255" y="64" type="line" smooth="yes"/>
      <point x="256" y="64"/>
      <point x="256" y="65" type="qcurve" smooth="yes"/>
    </contour>
    <contour>
      <point x="286" y="420" type="move" smooth="yes"/>
    </contour>
  </outline>
</glyph>
<glyph name="uni01C0" format="1">
  <advance width="350" height="350"/>
  <unicode hex="01C0"/>
  <outline>
    <contour>
      <point x="204" y="439" type="line"/>
      <point x="145" y="439" type="line"/>
      <point x="145" y="712" type="line"/>
      <point x="204" y="712" type="line"/>
    </contour>
    <contour>
      <point x="204" y="-11" type="line"/>
      <point x="145" y="-11" type="line"/>
      <point x="145" y="262" type="line"/>
      <point x="204" y="262" type="line"/>
    </contour>
  </outline>
</glyph>
<glyph name="aeacute" format="1">
  <advance width="900" height="900"/>
  <unicode hex="01FD"/>
  <outline>
    <contour>
      <point x="490" y="247" type="line"/>
      <point x="619" y="247"/>
      <point x="709" y="273" type="qcurve" smooth="yes"/>
      <point x="754" y="286"/>
      <point x="780" y="316"/>
      <point x="780" y="341" type="qcurve" smooth="yes"/>
      <point x="780" y="385"/>
      <point x="720" y="431"/>
      <point x="678" y="431" type="qcurve" smooth="yes"/>
      <point x="603" y="431"/>
      <point x="498" y="317"/>
      <point x="483" y="252" type="qcurve"/>
    </contour>
    <contour>
      <point x="600" y="-13" type="qcurve" smooth="yes"/>
      <point x="542" y="-13"/>
      <point x="495" y="22" type="qcurve" smooth="yes"/>
      <point x="460" y="46"/>
      <point x="436" y="93" type="qcurve"/>
      <point x="370" y="-13"/>
      <point x="245" y="-13" type="qcurve" smooth="yes"/>
      <point x="175" y="-13"/>
      <point x="99" y="29"/>
      <point x="64" y="93"/>
      <point x="64" y="131" type="qcurve" smooth="yes"/>
      <point x="64" y="168"/>
      <point x="103" y="220"/>
      <point x="156" y="233" type="qcurve" smooth="yes"/>
      <point x="276" y="264"/>
      <point x="419" y="264" type="qcurve"/>
      <point x="417" y="384"/>
      <point x="353" y="416" type="qcurve" smooth="yes"/>
      <point x="324" y="431"/>
      <point x="284" y="431" type="qcurve" smooth="yes"/>
      <point x="182" y="431"/>
      <point x="133" y="348" type="qcurve" smooth="yes"/>
      <point x="130" y="343"/>
      <point x="123" y="343" type="qcurve" smooth="yes"/>
      <point x="115" y="343"/>
      <point x="88" y="374"/>
      <point x="88" y="384" type="qcurve" smooth="yes"/>
      <point x="88" y="408"/>
      <point x="199" y="481"/>
      <point x="285" y="481" type="qcurve" smooth="yes"/>
      <point x="430" y="481"/>
      <point x="469" y="345" type="qcurve"/>
      <point x="557" y="481"/>
      <point x="675" y="481" type="qcurve" smooth="yes"/>
      <point x="736" y="481"/>
      <point x="771" y="460" type="qcurve" smooth="yes"/>
      <point x="836" y="422"/>
      <point x="836" y="340" type="qcurve" smooth="yes"/>
      <point x="836" y="312"/>
      <point x="829" y="292" type="qcurve" smooth="yes"/>
      <point x="809" y="231"/>
      <point x="646" y="210" type="qcurve" smooth="yes"/>
      <point x="591" y="203"/>
      <point x="521" y="203" type="qcurve" smooth="yes"/>
      <point x="478" y="204" type="line"/>
      <point x="478" y="144"/>
      <point x="516" y="72"/>
      <point x="573" y="39"/>
      <point x="600" y="39" type="qcurve" smooth="yes"/>
      <point x="738" y="39"/>
      <point x="815" y="122" type="qcurve" smooth="yes"/>
      <point x="826" y="135"/>
      <point x="834" y="135" type="qcurve" smooth="yes"/>
      <point x="839" y="135"/>
      <point x="839" y="130" type="qcurve" smooth="yes"/>
      <point x="839" y="120"/>
      <point x="811" y="76"/>
      <point x="782" y="50" type="qcurve" smooth="yes"/>
      <point x="710" y="-13"/>
    </contour>
    <contour>
      <point x="240" y="38" type="qcurve" smooth="yes"/>
      <point x="304" y="38"/>
      <point x="405" y="128"/>
      <point x="417" y="222" type="qcurve"/>
      <point x="280" y="216"/>
      <point x="191" y="191" type="qcurve" smooth="yes"/>
      <point x="149" y="179"/>
      <point x="121" y="152"/>
      <point x="121" y="127" type="qcurve" smooth="yes"/>
      <point x="121" y="38"/>
    </contour>
    <contour>
      <point x="373" y="579" type="qcurve" smooth="yes"/>
      <point x="362" y="579"/>
      <point x="362" y="591" type="qcurve" smooth="yes"/>
      <point x="362" y="609"/>
      <point x="510" y="708" type="qcurve"/>
      <point x="516" y="708" type="line" smooth="yes"/>
      <point x="521" y="708"/>
      <point x="533" y="700" type="qcurve" smooth="yes"/>
      <point x="567" y="676"/>
      <point x="567" y="659" type="qcurve" smooth="yes"/>
      <point x="567" y="654"/>
      <point x="466" y="619" type="qcurve" smooth="yes"/>
      <point x="417" y="602"/>
      <point x="378" y="579"/>
    </contour>
  </outline>
</glyph>
<glyph name="uni0235" format="1">
  <advance width="637" height="637"/>
  <unicode hex="0235"/>
  <outline>
    <contour>
      <point x="515" y="-95" type="qcurve"/>
      <point x="524" y="-112"/>
      <point x="561" y="-138"/>
      <point x="596" y="-138"/>
      <point x="619" y="-115"/>
      <point x="619" y="-98" type="qcurve" smooth="yes"/>
      <point x="619" y="-54"/>
      <point x="578" y="-54" type="qcurve" smooth="yes"/>
      <point x="545" y="-54"/>
    </contour>
    <contour>
      <point x="534" y="-191"/>
      <point x="487" y="-146" type="qcurve"/>
      <point x="479" y="-166"/>
      <point x="472" y="-191"/>
      <point x="459" y="-191" type="qcurve" smooth="yes"/>
      <point x="427" y="-191"/>
      <point x="427" y="-165"/>
      <point x="450" y="-116"/>
      <point x="454" y="-106" type="qcurve"/>
      <point x="437" y="-82"/>
      <point x="433" y="-15"/>
      <point x="433" y="12" type="qcurve" smooth="yes"/>
      <point x="435" y="293" type="line" smooth="yes"/>
      <point x="435" y="353"/>
      <point x="401" y="428"/>
      <point x="348" y="428" type="qcurve" smooth="yes"/>
      <point x="267" y="428"/>
      <point x="157" y="310"/>
      <point x="155" y="162" type="qcurve" smooth="yes"/>
      <point x="154" y="129"/>
      <point x="153" y="105" type="qcurve" smooth="yes"/>
      <point x="153" y="89" type="line" smooth="yes"/>
      <point x="153" y="59"/>
      <point x="156" y="-1" type="qcurve" smooth="yes"/>
      <point x="156" y="-6"/>
      <point x="127" y="-6"/>
      <point x="95" y="7"/>
      <point x="95" y="17" type="qcurve" smooth="yes"/>
      <point x="97" y="115" type="line"/>
      <point x="97" y="364" type="line"/>
      <point x="94" y="471" type="line" smooth="yes"/>
      <point x="94" y="476"/>
      <point x="123" y="476"/>
      <point x="155" y="463"/>
      <point x="155" y="453" type="qcurve" smooth="yes"/>
      <point x="155" y="439" type="line" smooth="yes"/>
      <point x="153" y="411"/>
      <point x="153" y="376" type="qcurve" smooth="yes"/>
      <point x="153" y="358" type="line"/>
      <point x="162" y="373" type="line" smooth="yes"/>
      <point x="194" y="425"/>
      <point x="294" y="480"/>
      <point x="344" y="480" type="qcurve" smooth="yes"/>
      <point x="433" y="480"/>
      <point x="466" y="420" type="qcurve" smooth="yes"/>
      <point x="491" y="375"/>
      <point x="491" y="297" type="qcurve" smooth="yes"/>
      <point x="490" y="92" type="line" smooth="yes"/>
      <point x="490" y="29"/>
      <point x="493" y="-36" type="qcurve" smooth="yes"/>
      <point x="494" y="-48" type="line"/>
      <point x="502" y="-39" type="line" smooth="yes"/>
      <point x="533" y="-5"/>
      <point x="622" y="-5"/>
      <point x="677" y="-55"/>
      <point x="677" y="-138"/>
      <point x="622" y="-191"/>
    </contour>
    <contour>
      <point x="155" y="439" type="move" smooth="yes"/>
    </contour>
  </outline>
</glyph>
<glyph name="uni0250" format="1">
  <advance width="575" height="575"/>
  <unicode hex="0250"/>
  <outline>
    <contour>
      <point x="154" y="371" type="line" smooth="yes"/>
      <point x="194" y="481"/>
      <point x="333" y="481" type="qcurve" smooth="yes"/>
      <point x="457" y="481"/>
      <point x="497" y="407" type="qcurve" smooth="yes"/>
      <point x="514" y="375"/>
      <point x="514" y="300"/>
      <point x="475" y="248"/>
      <point x="422" y="235" type="qcurve" smooth="yes"/>
      <point x="302" y="204"/>
      <point x="164" y="204" type="qcurve" smooth="yes"/>
      <point x="159" y="204" type="line"/>
      <point x="161" y="84"/>
      <point x="225" y="52" type="qcurve" smooth="yes"/>
      <point x="254" y="37"/>
      <point x="301" y="37" type="qcurve"/>
      <point x="301" y="37" type="line"/>
      <point x="415" y="43"/>
      <point x="489" y="122" type="qcurve" smooth="yes"/>
      <point x="500" y="135"/>
      <point x="513" y="135"/>
      <point x="513" y="120"/>
      <point x="485" y="76"/>
      <point x="454" y="49" type="qcurve" smooth="yes"/>
      <point x="391" y="-7"/>
      <point x="183" y="-7"/>
      <point x="101" y="107"/>
      <point x="101" y="196" type="qcurve" smooth="yes"/>
      <point x="101" y="273" type="line" smooth="yes"/>
      <point x="101" y="379"/>
      <point x="65" y="435" type="qcurve" smooth="yes"/>
      <point x="64" y="439"/>
      <point x="64" y="448"/>
      <point x="88" y="476"/>
      <point x="102" y="476" type="qcurve" smooth="yes"/>
      <point x="130" y="476"/>
      <point x="144" y="372" type="qcurve" smooth="yes"/>
      <point x="147" y="352" type="line"/>
    </contour>
    <contour>
      <point x="457" y="341" type="qcurve" smooth="yes"/>
      <point x="457" y="430"/>
      <point x="338" y="430" type="qcurve" smooth="yes"/>
      <point x="274" y="430"/>
      <point x="173" y="340"/>
      <point x="161" y="246" type="qcurve"/>
      <point x="298" y="252"/>
      <point x="387" y="277" type="qcurve" smooth="yes"/>
      <point x="429" y="289"/>
      <point x="457" y="316"/>
    </contour>
  </outline>
</glyph>
<glyph name="uni0258" format="1">
  <advance width="530" height="530"/>
  <unicode hex="0258"/>
  <outline>
    <contour>
      <point x="471" y="371"/>
      <point x="473" y="180"/>
      <point x="410" y="45"/>
      <point x="307" y="-13"/>
      <point x="197" y="-13"/>
      <point x="160" y="4" type="qcurve" smooth="yes"/>
      <point x="91" y="40"/>
      <point x="66" y="110" type="qcurve" smooth="yes"/>
      <point x="64" y="115"/>
      <point x="64" y="131"/>
      <point x="71" y="131" type="qcurve" smooth="yes"/>
      <point x="80" y="131"/>
      <point x="87" y="119" type="qcurve" smooth="yes"/>
      <point x="134" y="42"/>
      <point x="244" y="42" type="qcurve" smooth="yes"/>
      <point x="288" y="42"/>
      <point x="365" y="94"/>
      <point x="406" y="170"/>
      <point x="412" y="215" type="qcurve"/>
      <point x="271" y="205"/>
      <point x="155" y="225" type="qcurve" smooth="yes"/>
      <point x="102" y="234"/>
      <point x="63" y="281"/>
      <point x="63" y="356"/>
      <point x="98" y="424"/>
      <point x="175" y="472"/>
      <point x="343" y="485"/>
    </contour>
    <contour>
      <point x="416" y="261" type="qcurve"/>
      <point x="403" y="349"/>
      <point x="312" y="433"/>
      <point x="182" y="422"/>
      <point x="121" y="369"/>
      <point x="121" y="328" type="qcurve" smooth="yes"/>
      <point x="121" y="312"/>
      <point x="130" y="298" type="qcurve" smooth="yes"/>
      <point x="154" y="257"/>
    </contour>
  </outline>
</glyph>
<glyph name="uni025C" format="1">
  <advance width="500" height="500"/>
  <unicode hex="025C"/>
  <outline>
    <contour>
      <point x="109" y="16"/>
      <point x="58" y="55"/>
      <point x="58" y="79"/>
      <point x="70" y="79" type="qcurve" smooth="yes"/>
      <point x="77" y="79"/>
      <point x="98" y="66" type="qcurve" smooth="yes"/>
      <point x="148" y="37"/>
      <point x="307" y="37"/>
      <point x="391" y="86"/>
      <point x="391" y="171"/>
      <point x="321" y="225"/>
      <point x="259" y="225" type="qcurve" smooth="yes"/>
      <point x="245" y="225"/>
      <point x="182" y="216" type="qcurve"/>
      <point x="180" y="216" type="line" smooth="yes"/>
      <point x="171" y="216"/>
      <point x="156" y="243"/>
      <point x="156" y="270"/>
      <point x="162" y="270" type="qcurve" smooth="yes"/>
      <point x="253" y="273"/>
      <point x="371" y="318"/>
      <point x="371" y="365" type="qcurve" smooth="yes"/>
      <point x="371" y="399"/>
      <point x="311" y="433"/>
      <point x="259" y="433" type="qcurve" smooth="yes"/>
      <point x="189" y="433"/>
      <point x="136" y="383" type="qcurve" smooth="yes"/>
      <point x="121" y="370"/>
      <point x="107" y="370"/>
      <point x="91" y="400"/>
      <point x="91" y="428"/>
      <point x="148" y="460"/>
      <point x="230" y="481"/>
      <point x="258" y="481" type="qcurve" smooth="yes"/>
      <point x="339" y="481"/>
      <point x="432" y="415"/>
      <point x="432" y="328"/>
      <point x="379" y="273"/>
      <point x="340" y="263" type="qcurve" smooth="yes"/>
      <point x="317" y="257" type="line"/>
      <point x="340" y="253" type="line" smooth="yes"/>
      <point x="384" y="245"/>
      <point x="452" y="180"/>
      <point x="452" y="130" type="qcurve" smooth="yes"/>
      <point x="452" y="66"/>
      <point x="340" y="-13"/>
      <point x="241" y="-13" type="qcurve" smooth="yes"/>
      <point x="195" y="-13"/>
    </contour>
  </outline>
</glyph>
<glyph name="uni026F" format="1">
  <advance width="816" height="816"/>
  <unicode hex="026F"/>
  <outline>
    <contour>
      <point x="660" y="14" type="qcurve" smooth="yes"/>
      <point x="661" y="73" type="line"/>
      <point x="661" y="95" type="line"/>
      <point x="652" y="75" type="line" smooth="yes"/>
      <point x="621" y="13"/>
      <point x="555" y="-5" type="qcurve" smooth="yes"/>
      <point x="533" y="-11"/>
      <point x="509" y="-11" type="qcurve" smooth="yes"/>
      <point x="461" y="-11"/>
      <point x="406" y="43"/>
      <point x="397" y="78" type="qcurve" smooth="yes"/>
      <point x="394" y="90" type="line"/>
      <point x="388" y="79" type="line" smooth="yes"/>
      <point x="362" y="35"/>
      <point x="281" y="-11"/>
      <point x="189" y="-11"/>
      <point x="126" y="42"/>
      <point x="97" y="127"/>
      <point x="97" y="173" type="qcurve" smooth="yes"/>
      <point x="97" y="365" type="line"/>
      <point x="94" y="471" type="line" smooth="yes"/>
      <point x="94" y="476"/>
      <point x="124" y="476"/>
      <point x="157" y="463"/>
      <point x="157" y="453" type="qcurve" smooth="yes"/>
      <point x="153" y="365" type="line"/>
      <point x="153" y="365" type="line"/>
      <point x="153" y="177" type="line" smooth="yes"/>
      <point x="153" y="116"/>
      <point x="195" y="39"/>
      <point x="242" y="39" type="qcurve" smooth="yes"/>
      <point x="274" y="39"/>
      <point x="339" y="85"/>
      <point x="383" y="159"/>
      <point x="383" y="202" type="qcurve" smooth="yes"/>
      <point x="383" y="365" type="line"/>
      <point x="378" y="471" type="line" smooth="yes"/>
      <point x="378" y="476"/>
      <point x="408" y="476"/>
      <point x="440" y="463"/>
      <point x="440" y="453" type="qcurve" smooth="yes"/>
      <point x="436" y="365" type="line"/>
      <point x="436" y="365" type="line"/>
      <point x="436" y="177" type="line" smooth="yes"/>
      <point x="436" y="39"/>
      <point x="515" y="39" type="qcurve" smooth="yes"/>
      <point x="569" y="39"/>
      <point x="610" y="87" type="qcurve" smooth="yes"/>
      <point x="658" y="146"/>
      <point x="661" y="260" type="qcurve" smooth="yes"/>
      <point x="663" y="314"/>
      <point x="664" y="365" type="qcurve" smooth="yes"/>
      <point x="664" y="365"/>
      <point x="659" y="471" type="qcurve" smooth="yes"/>
      <point x="659" y="476"/>
      <point x="689" y="476"/>
      <point x="722" y="463"/>
      <point x="722" y="453" type="qcurve" smooth="yes"/>
      <point x="720" y="365" type="line"/>
      <point x="720" y="114" type="line"/>
      <point x="723" y="-2" type="line" smooth="yes"/>
      <point x="723" y="-7"/>
      <point x="693" y="-7"/>
      <point x="660" y="6"/>
    </contour>
    <contour>
      <point x="440" y="453" type="move" smooth="yes"/>
    </contour>
  </outline>
</glyph>
<glyph name="uni0294" format="1">
  <advance width="600" height="600"/>
  <unicode hex="0294"/>
  <outline>
    <contour>
      <point x="307" y="-5" type="qcurve" smooth="yes"/>
      <point x="290" y="-5"/>
      <point x="255" y="8"/>
      <point x="255" y="17" type="qcurve" smooth="yes"/>
      <point x="261" y="272"/>
      <point x="263" y="285" type="qcurve" smooth="yes"/>
      <point x="272" y="336"/>
      <point x="336" y="391" type="qcurve" smooth="yes"/>
      <point x="390" y="438" type="line" smooth="yes"/>
      <point x="454" y="495"/>
      <point x="454" y="568" type="qcurve" smooth="yes"/>
      <point x="454" y="606"/>
      <point x="405" y="659"/>
      <point x="353" y="659" type="qcurve" smooth="yes"/>
      <point x="302" y="659"/>
      <point x="216" y="620"/>
      <point x="164" y="566"/>
      <point x="150" y="520" type="qcurve" smooth="yes"/>
      <point x="147" y="511"/>
      <point x="137" y="511" type="qcurve" smooth="yes"/>
      <point x="124" y="511"/>
      <point x="95" y="535"/>
      <point x="95" y="544" type="qcurve" smooth="yes"/>
      <point x="95" y="552"/>
      <point x="96" y="554" type="qcurve" smooth="yes"/>
      <point x="183" y="708"/>
      <point x="350" y="708" type="qcurve" smooth="yes"/>
      <point x="430" y="708"/>
      <point x="517" y="637"/>
      <point x="517" y="581" type="qcurve" smooth="yes"/>
      <point x="517" y="523"/>
      <point x="480" y="453"/>
      <point x="424" y="400"/>
      <point x="365" y="354"/>
      <point x="315" y="295"/>
      <point x="315" y="254" type="qcurve" smooth="yes"/>
      <point x="316" y="126"/>
      <point x="319" y="-1" type="qcurve" smooth="yes"/>
      <point x="319" y="-5"/>
    </contour>
  </outline>
</glyph>
<glyph name="uni0295" format="1">
  <advance width="600" height="600"/>
  <unicode hex="0295"/>
  <outline>
    <contour>
      <point x="284" y="105" type="line"/>
      <point x="285" y="254" type="line" smooth="yes"/>
      <point x="285" y="295"/>
      <point x="235" y="354"/>
      <point x="176" y="400"/>
      <point x="120" y="453"/>
      <point x="83" y="523"/>
      <point x="83" y="637"/>
      <point x="170" y="708"/>
      <point x="331" y="708"/>
      <point x="457" y="636"/>
      <point x="504" y="554" type="qcurve" smooth="yes"/>
      <point x="505" y="552"/>
      <point x="505" y="535"/>
      <point x="476" y="511"/>
      <point x="453" y="511"/>
      <point x="450" y="520" type="qcurve" smooth="yes"/>
      <point x="436" y="566"/>
      <point x="384" y="620"/>
      <point x="298" y="659"/>
      <point x="195" y="659"/>
      <point x="146" y="606"/>
      <point x="146" y="568" type="qcurve" smooth="yes"/>
      <point x="146" y="495"/>
      <point x="210" y="438" type="qcurve" smooth="yes"/>
      <point x="237" y="414"/>
      <point x="264" y="391" type="qcurve" smooth="yes"/>
      <point x="328" y="336"/>
      <point x="337" y="285" type="qcurve" smooth="yes"/>
      <point x="340" y="268"/>
      <point x="341" y="219" type="qcurve" smooth="yes"/>
      <point x="343" y="105" type="line"/>
      <point x="345" y="17" type="line" smooth="yes"/>
      <point x="345" y="8"/>
      <point x="310" y="-5"/>
      <point x="281" y="-5"/>
      <point x="281" y="-1" type="qcurve" smooth="yes"/>
    </contour>
  </outline>
</glyph>
<glyph name="uni02BD" format="1">
  <advance width="350" height="350"/>
  <unicode hex="02BD"/>
  <outline>
    <contour>
      <point x="218" y="622" type="qcurve" smooth="yes"/>
      <point x="211" y="624" type="line"/>
      <point x="170" y="642"/>
      <point x="115" y="713"/>
      <point x="115" y="745" type="qcurve" smooth="yes"/>
      <point x="115" y="749" type="line" smooth="yes"/>
      <point x="116" y="753"/>
      <point x="119" y="777"/>
      <point x="144" y="809"/>
      <point x="181" y="809"/>
      <point x="210" y="787"/>
      <point x="210" y="765" type="qcurve" smooth="yes"/>
      <point x="210" y="745"/>
      <point x="187" y="725" type="qcurve" smooth="yes"/>
      <point x="185" y="724"/>
      <point x="168" y="721"/>
      <point x="163" y="716" type="qcurve"/>
      <point x="172" y="672"/>
      <point x="222" y="639" type="qcurve" smooth="yes"/>
      <point x="226" y="636"/>
      <point x="226" y="632" type="qcurve" smooth="yes"/>
      <point x="226" y="622"/>
    </contour>
  </outline>
</glyph>
<glyph name="caron" format="1">
  <advance width="588" height="588"/>
  <unicode hex="02C7"/>
  <outline>
    <contour>
      <point x="295" y="631" type="qcurve"/>
      <point x="326" y="652"/>
      <point x="401" y="699"/>
      <point x="430" y="724"/>
      <point x="436" y="724" type="qcurve" smooth="yes"/>
      <point x="449" y="724"/>
      <point x="449" y="698"/>
      <point x="365" y="616" type="qcurve" smooth="yes"/>
      <point x="345" y="597"/>
      <point x="322" y="574"/>
      <point x="267" y="574"/>
      <point x="257" y="582" type="qcurve" smooth="yes"/>
      <point x="188" y="647"/>
      <point x="142" y="707"/>
      <point x="140" y="713" type="qcurve" smooth="yes"/>
      <point x="140" y="724"/>
      <point x="153" y="724" type="qcurve" smooth="yes"/>
      <point x="159" y="724"/>
      <point x="188" y="699"/>
      <point x="222" y="678" type="qcurve" smooth="yes"/>
      <point x="265" y="651"/>
    </contour>
  </outline>
</glyph>
<glyph name="uni02C8" format="1">
  <advance width="200" height="200"/>
  <unicode hex="02C8"/>
  <outline>
    <contour>
      <point x="68" y="795" type="line" smooth="yes"/>
      <point x="67" y="802"/>
      <point x="86" y="812"/>
      <point x="114" y="812"/>
      <point x="132" y="803"/>
      <point x="132" y="796" type="qcurve" smooth="yes"/>
      <point x="132" y="795" type="line"/>
      <point x="116" y="544" type="line" smooth="yes"/>
      <point x="115" y="533"/>
      <point x="104" y="533" type="qcurve" smooth="yes"/>
      <point x="86" y="533"/>
      <point x="84" y="544" type="qcurve" smooth="yes"/>
    </contour>
    <contour>
      <point x="84" y="544" type="line" smooth="yes"/>
      <point x="84" y="545"/>
      <point x="84" y="545" type="qcurve"/>
    </contour>
    <contour>
      <point x="116" y="544" type="qcurve" smooth="yes"/>
      <point x="116" y="545" type="line"/>
      <point x="116" y="545"/>
    </contour>
  </outline>
</glyph>
<glyph name="uni02D0" format="1">
  <advance width="350" height="350"/>
  <unicode hex="02D0"/>
  <outline>
    <contour>
      <point x="115" y="506" type="line"/>
      <point x="235" y="506" type="line"/>
      <point x="175" y="396" type="line"/>
    </contour>
    <contour>
      <point x="115" y="0" type="line"/>
      <point x="175" y="110" type="line"/>
      <point x="235" y="0" type="line"/>
    </contour>
  </outline>
</glyph>
<glyph name="dotaccent" format="1">
  <advance width="263" height="263"/>
  <unicode hex="02D9"/>
  <outline>
    <contour>
      <point x="86" y="668"/>
      <point x="108" y="693"/>
      <point x="147" y="693"/>
      <point x="175" y="656"/>
      <point x="175" y="619"/>
      <point x="152" y="595"/>
      <point x="133" y="595" type="qcurve" smooth="yes"/>
      <point x="114" y="595"/>
      <point x="100" y="613" type="qcurve" smooth="yes"/>
      <point x="86" y="631"/>
    </contour>
  </outline>
</glyph>
<glyph name="uni02E5" format="1">
  <advance width="389" height="389"/>
  <unicode hex="02E5"/>
  <outline>
    <contour>
      <point x="76" y="619" type="qcurve" smooth="yes"/>
      <point x="65" y="619"/>
      <point x="51" y="653"/>
      <point x="51" y="674"/>
      <point x="75" y="672"/>
      <point x="99" y="672" type="qcurve" smooth="yes"/>
      <point x="240" y="677" type="line"/>
      <point x="266" y="679" type="line"/>
      <point x="266" y="697" type="line" smooth="yes"/>
      <point x="266" y="702"/>
      <point x="296" y="702"/>
      <point x="329" y="689"/>
      <point x="329" y="679" type="qcurve" smooth="yes"/>
      <point x="325" y="590" type="line"/>
      <point x="325" y="590" type="line"/>
      <point x="325" y="106" type="line"/>
      <point x="330" y="0" type="line" smooth="yes"/>
      <point x="330" y="-5"/>
      <point x="300" y="-5"/>
      <point x="267" y="8"/>
      <point x="267" y="18" type="qcurve" smooth="yes"/>
      <point x="269" y="106" type="line"/>
      <point x="269" y="590" type="line"/>
      <point x="268" y="631" type="line"/>
      <point x="246" y="630"/>
      <point x="108" y="624"/>
    </contour>
    <contour>
      <point x="329" y="679" type="move" smooth="yes"/>
    </contour>
  </outline>
</glyph>
<glyph name="uni02E7" format="1">
  <advance width="389" height="389"/>
  <unicode hex="02E7"/>
  <outline>
    <contour>
      <point x="76" y="339" type="qcurve" smooth="yes"/>
      <point x="65" y="339"/>
      <point x="51" y="373"/>
      <point x="51" y="394"/>
      <point x="75" y="392"/>
      <point x="99" y="392" type="qcurve" smooth="yes"/>
      <point x="240" y="397" type="line"/>
      <point x="269" y="399" type="line"/>
      <point x="269" y="590" type="line"/>
      <point x="266" y="697" type="line" smooth="yes"/>
      <point x="266" y="702"/>
      <point x="296" y="702"/>
      <point x="329" y="689"/>
      <point x="329" y="679" type="qcurve" smooth="yes"/>
      <point x="325" y="590" type="line"/>
      <point x="325" y="590" type="line"/>
      <point x="325" y="106" type="line"/>
      <point x="330" y="0" type="line" smooth="yes"/>
      <point x="330" y="-5"/>
      <point x="300" y="-5"/>
      <point x="267" y="8"/>
      <point x="267" y="18" type="qcurve" smooth="yes"/>
      <point x="269" y="106" type="line"/>
      <point x="269" y="351" type="line"/>
      <point x="246" y="350"/>
      <point x="108" y="344"/>
    </contour>
    <contour>
      <point x="329" y="679" type="move" smooth="yes"/>
    </contour>
  </outline>
</glyph>
<glyph name="uni02E9" format="1">
  <advance width="389" height="389"/>
  <unicode hex="02E9"/>
  <outline>
    <contour>
      <point x="76" y="9" type="qcurve" smooth="yes"/>
      <point x="65" y="9"/>
      <point x="51" y="43"/>
      <point x="51" y="64"/>
      <point x="75" y="62"/>
      <point x="99" y="62" type="qcurve" smooth="yes"/>
      <point x="240" y="67" type="line"/>
      <point x="268" y="69" type="line"/>
      <point x="269" y="106" type="line"/>
      <point x="269" y="590" type="line"/>
      <point x="266" y="697" type="line" smooth="yes"/>
      <point x="266" y="702"/>
      <point x="296" y="702"/>
      <point x="329" y="689"/>
      <point x="329" y="679" type="qcurve" smooth="yes"/>
      <point x="325" y="590" type="line"/>
      <point x="325" y="590" type="line"/>
      <point x="325" y="106" type="line"/>
      <point x="330" y="0" type="line" smooth="yes"/>
      <point x="330" y="-5"/>
      <point x="300" y="-5"/>
      <point x="268" y="8"/>
      <point x="267" y="17" type="qcurve" smooth="yes"/>
      <point x="266" y="21" type="line"/>
      <point x="246" y="20"/>
      <point x="108" y="14"/>
    </contour>
    <contour>
      <point x="329" y="679" type="move" smooth="yes"/>
    </contour>
  </outline>
</glyph>
<glyph name="grave" format="1">
  <advance width="350" height="350"/>
  <unicode hex="0300"/>
  <unicode hex="02CB"/>
  <unicode hex="0060"/>
  <outline>
    <contour>
      <point x="100" y="686" type="line" smooth="yes"/>
      <point x="92" y="694"/>
      <point x="92" y="713"/>
      <point x="115" y="732"/>
      <point x="142" y="732"/>
      <point x="152" y="722" type="qcurve" smooth="yes"/>
      <point x="255" y="616" type="line" smooth="yes"/>
      <point x="262" y="609"/>
      <point x="262" y="589"/>
      <point x="247" y="571"/>
      <point x="227" y="571"/>
      <point x="220" y="578" type="qcurve" smooth="yes"/>
    </contour>
  </outline>
</glyph>
<glyph name="acutecomb" format="1">
  <advance width="0" height="0"/>
  <unicode hex="0301"/>
  <outline>
    <contour>
      <point x="351" y="659" type="qcurve" smooth="yes"/>
      <point x="249" y="617"/>
      <point x="181" y="577" type="qcurve" smooth="yes"/>
      <point x="175" y="574"/>
      <point x="171" y="574" type="qcurve" smooth="yes"/>
      <point x="156" y="574"/>
      <point x="156" y="589" type="qcurve" smooth="yes"/>
      <point x="156" y="595"/>
      <point x="162" y="601" type="qcurve" smooth="yes"/>
      <point x="218" y="651"/>
      <point x="305" y="708" type="qcurve" smooth="yes"/>
      <point x="309" y="710"/>
      <point x="325" y="710"/>
      <point x="359" y="682"/>
      <point x="359" y="662"/>
    </contour>
  </outline>
</glyph>
<glyph name="circumflex" format="1">
  <advance width="500" height="500"/>
  <unicode hex="0302"/>
  <unicode hex="02C6"/>
  <outline>
    <contour>
      <point x="250" y="660" type="qcurve"/>
      <point x="180" y="614"/>
      <point x="130" y="572" type="qcurve" smooth="yes"/>
      <point x="125" y="567"/>
      <point x="118" y="567" type="qcurve" smooth="yes"/>
      <point x="103" y="567"/>
      <point x="103" y="581" type="qcurve" smooth="yes"/>
      <point x="103" y="597"/>
      <point x="192" y="686" type="qcurve" smooth="yes"/>
      <point x="220" y="714" type="line" smooth="yes"/>
      <point x="231" y="724"/>
      <point x="268" y="724"/>
      <point x="291" y="702"/>
      <point x="329" y="665"/>
      <point x="348" y="644" type="qcurve" smooth="yes"/>
      <point x="396" y="591"/>
      <point x="396" y="581" type="qcurve" smooth="yes"/>
      <point x="396" y="567"/>
      <point x="381" y="567" type="qcurve" smooth="yes"/>
      <point x="374" y="567"/>
      <point x="369" y="572" type="qcurve" smooth="yes"/>
      <point x="319" y="615"/>
    </contour>
  </outline>
</glyph>
<glyph name="tilde" format="1">
  <advance width="500" height="500"/>
  <unicode hex="0303"/>
  <unicode hex="02DC"/>
  <outline>
    <contour>
      <point x="404" y="682" type="qcurve" smooth="yes"/>
      <point x="397" y="647"/>
      <point x="347" y="594"/>
      <point x="279" y="594"/>
      <point x="240" y="619"/>
      <point x="209" y="645"/>
      <point x="190" y="645" type="qcurve" smooth="yes"/>
      <point x="149" y="645"/>
      <point x="127" y="600" type="qcurve" smooth="yes"/>
      <point x="123" y="591"/>
      <point x="116" y="591" type="qcurve" smooth="yes"/>
      <point x="101" y="591"/>
      <point x="101" y="606" type="qcurve" smooth="yes"/>
      <point x="108" y="640"/>
      <point x="158" y="694"/>
      <point x="226" y="694"/>
      <point x="265" y="668"/>
      <point x="296" y="643"/>
      <point x="316" y="643" type="qcurve" smooth="yes"/>
      <point x="356" y="643"/>
      <point x="378" y="688" type="qcurve" smooth="yes"/>
      <point x="383" y="697"/>
      <point x="395" y="697"/>
      <point x="404" y="689"/>
    </contour>
  </outline>
</glyph>
<glyph name="macron" format="1">
  <advance width="500" height="500"/>
  <unicode hex="0304"/>
  <unicode hex="02C9"/>
  <unicode hex="00AF"/>
  <outline>
    <contour>
      <point x="383" y="623"/>
      <point x="364" y="623" type="qcurve" smooth="yes"/>
      <point x="136" y="623" type="line" smooth="yes"/>
      <point x="118" y="623"/>
      <point x="118" y="673"/>
      <point x="137" y="673" type="qcurve" smooth="yes"/>
      <point x="365" y="673" type="line" smooth="yes"/>
      <point x="383" y="673"/>
    </contour>
  </outline>
</glyph>
<glyph name="uni0306" format="1">
  <advance width="0" height="0"/>
  <unicode hex="0306"/>
  <outline>
    <contour>
      <point x="399" y="665" type="qcurve" smooth="yes"/>
      <point x="342" y="585"/>
      <point x="252" y="585" type="qcurve" smooth="yes"/>
      <point x="187" y="585"/>
      <point x="141" y="626" type="qcurve" smooth="yes"/>
      <point x="122" y="643"/>
      <point x="102" y="671"/>
      <point x="102" y="685"/>
      <point x="124" y="703"/>
      <point x="135" y="703" type="qcurve" smooth="yes"/>
      <point x="146" y="703"/>
      <point x="152" y="693" type="qcurve" smooth="yes"/>
      <point x="189" y="632"/>
      <point x="252" y="632" type="qcurve" smooth="yes"/>
      <point x="287" y="632"/>
      <point x="333" y="662"/>
      <point x="352" y="693" type="qcurve" smooth="yes"/>
      <point x="358" y="703"/>
      <point x="369" y="703" type="qcurve" smooth="yes"/>
      <point x="380" y="703"/>
      <point x="402" y="685"/>
      <point x="402" y="670"/>
    </contour>
  </outline>
</glyph>
<glyph name="uni0307" format="1">
  <advance width="0" height="0"/>
  <unicode hex="0307"/>
  <outline>
    <contour>
      <point x="256" y="594" type="qcurve" smooth="yes"/>
      <point x="237" y="594"/>
      <point x="207" y="630"/>
      <point x="207" y="648" type="qcurve" smooth="yes"/>
      <point x="207" y="690"/>
      <point x="246" y="690" type="qcurve" smooth="yes"/>
      <point x="263" y="690"/>
      <point x="294" y="654"/>
      <point x="294" y="634" type="qcurve" smooth="yes"/>
      <point x="294" y="594"/>
    </contour>
  </outline>
</glyph>
<glyph name="uni030C" format="1">
  <advance width="0" height="0"/>
  <unicode hex="030C"/>
  <outline>
    <contour>
      <point x="250" y="633" type="qcurve"/>
      <point x="319" y="678"/>
      <point x="369" y="721" type="qcurve" smooth="yes"/>
      <point x="374" y="726"/>
      <point x="381" y="726" type="qcurve" smooth="yes"/>
      <point x="396" y="726"/>
      <point x="396" y="712" type="qcurve" smooth="yes"/>
      <point x="396" y="702"/>
      <point x="362" y="665" type="qcurve" smooth="yes"/>
      <point x="316" y="614"/>
      <point x="280" y="581" type="qcurve" smooth="yes"/>
      <point x="268" y="569"/>
      <point x="231" y="569"/>
      <point x="211" y="588"/>
      <point x="173" y="626"/>
      <point x="152" y="648" type="qcurve" smooth="yes"/>
      <point x="103" y="701"/>
      <point x="103" y="726"/>
      <point x="118" y="726" type="qcurve" smooth="yes"/>
      <point x="125" y="726"/>
      <point x="140" y="713" type="qcurve" smooth="yes"/>
      <point x="177" y="681"/>
    </contour>
  </outline>
</glyph>
<glyph name="cedilla" format="1">
  <advance width="500" height="500"/>
  <unicode hex="0327"/>
  <unicode hex="00B8"/>
  <outline>
    <contour>
      <point x="261" y="-67" type="qcurve" smooth="yes"/>
      <point x="250" y="-67"/>
      <point x="220" y="-72" type="qcurve" smooth="yes"/>
      <point x="208" y="-72"/>
      <point x="191" y="-56"/>
      <point x="191" y="-42"/>
      <point x="202" y="-13"/>
      <point x="207" y="4" type="qcurve" smooth="yes"/>
      <point x="212" y="21" type="line"/>
      <point x="268" y="17" type="line"/>
      <point x="251" y="-29" type="line"/>
      <point x="263" y="-27"/>
      <point x="274" y="-27" type="qcurve" smooth="yes"/>
      <point x="310" y="-27"/>
      <point x="358" y="-62"/>
      <point x="358" y="-135"/>
      <point x="304" y="-178"/>
      <point x="210" y="-178"/>
      <point x="166" y="-156" type="qcurve" smooth="yes"/>
      <point x="156" y="-150"/>
      <point x="156" y="-123"/>
      <point x="165" y="-102"/>
      <point x="172" y="-102" type="qcurve" smooth="yes"/>
      <point x="175" y="-102"/>
      <point x="187" y="-111" type="qcurve" smooth="yes"/>
      <point x="212" y="-130"/>
      <point x="307" y="-130"/>
      <point x="307" y="-67"/>
    </contour>
  </outline>
</glyph>
<glyph name="underscore" format="1">
  <advance width="500" height="500"/>
  <unicode hex="0332"/>
  <unicode hex="005F"/>
  <outline>
    <contour>
      <point x="500" y="-109" type="line" smooth="yes"/>
      <point x="515" y="-109"/>
      <point x="515" y="-160"/>
      <point x="500" y="-160" type="qcurve" smooth="yes"/>
      <point x="0" y="-160" type="line" smooth="yes"/>
      <point x="-7" y="-160"/>
      <point x="-15" y="-144"/>
      <point x="-15" y="-125"/>
      <point x="-7" y="-109"/>
      <point x="0" y="-109" type="qcurve" smooth="yes"/>
    </contour>
  </outline>
</glyph>
<glyph name="Lambda" format="1">
  <advance width="686" height="686"/>
  <unicode hex="039B"/>
  <outline>
    <contour>
      <point x="322" y="699"/>
      <point x="336" y="710"/>
      <point x="358" y="710"/>
      <point x="394" y="690"/>
      <point x="394" y="676" type="qcurve" smooth="yes"/>
      <point x="394" y="663" type="line" smooth="yes"/>
      <point x="394" y="649"/>
      <point x="448" y="520" type="qcurve" smooth="yes"/>
      <point x="588" y="187"/>
      <point x="650" y="78" type="qcurve" smooth="yes"/>
      <point x="667" y="48"/>
      <point x="676" y="35" type="qcurve" smooth="yes"/>
      <point x="687" y="19"/>
      <point x="687" y="15" type="qcurve" smooth="yes"/>
      <point x="687" y="5"/>
      <point x="658" y="-7"/>
      <point x="646" y="-7" type="qcurve" smooth="yes"/>
      <point x="619" y="-7"/>
      <point x="615" y="4" type="qcurve" smooth="yes"/>
      <point x="599" y="51"/>
      <point x="549" y="161"/>
      <point x="483" y="308"/>
      <point x="452" y="382" type="qcurve" smooth="yes"/>
      <point x="395" y="513"/>
      <point x="354" y="620" type="qcurve"/>
      <point x="277" y="435"/>
      <point x="107" y="100" type="qcurve" smooth="yes"/>
      <point x="85" y="55"/>
      <point x="69" y="11" type="qcurve" smooth="yes"/>
      <point x="63" y="-6"/>
      <point x="-1" y="-6"/>
      <point x="-1" y="10" type="qcurve" smooth="yes"/>
      <point x="-1" y="17"/>
      <point x="14" y="39"/>
      <point x="59" y="125"/>
      <point x="119" y="243"/>
      <point x="184" y="376"/>
      <point x="215" y="441" type="qcurve" smooth="yes"/>
      <point x="280" y="577"/>
      <point x="312" y="652" type="qcurve" smooth="yes"/>
      <point x="316" y="662"/>
    </contour>
  </outline>
</glyph>
<glyph name="Mu" format="1">
  <advance width="813" height="813"/>
  <unicode hex="039C"/>
  <outline>
    <contour>
      <point x="649" y="17" type="qcurve" smooth="yes"/>
      <point x="652" y="106" type="line"/>
      <point x="652" y="623" type="line"/>
      <point x="437" y="150"/>
      <point x="437" y="124" type="qcurve" smooth="yes"/>
      <point x="437" y="114"/>
      <point x="407" y="99"/>
      <point x="396" y="99" type="qcurve" smooth="yes"/>
      <point x="372" y="99"/>
      <point x="368" y="114" type="qcurve" smooth="yes"/>
      <point x="357" y="149"/>
      <point x="329" y="205"/>
      <point x="282" y="308"/>
      <point x="256" y="366" type="qcurve" smooth="yes"/>
      <point x="208" y="474"/>
      <point x="161" y="592" type="qcurve"/>
      <point x="161" y="105" type="line"/>
      <point x="164" y="-1" type="line" smooth="yes"/>
      <point x="164" y="-11"/>
      <point x="133" y="-11"/>
      <point x="101" y="4"/>
      <point x="101" y="17" type="qcurve" smooth="yes"/>
      <point x="104" y="106" type="line"/>
      <point x="104" y="624" type="line"/>
      <point x="99" y="665" type="line" smooth="yes"/>
      <point x="99" y="682"/>
      <point x="139" y="703"/>
      <point x="167" y="703"/>
      <point x="180" y="695"/>
      <point x="184" y="675"/>
      <point x="212" y="606"/>
      <point x="268" y="473"/>
      <point x="296" y="408" type="qcurve" smooth="yes"/>
      <point x="339" y="310"/>
      <point x="400" y="182" type="qcurve"/>
      <point x="595" y="644"/>
      <point x="624" y="697" type="qcurve" smooth="yes"/>
      <point x="631" y="710"/>
      <point x="657" y="710"/>
      <point x="673" y="704" type="qcurve" smooth="yes"/>
      <point x="714" y="690"/>
      <point x="714" y="677" type="qcurve" smooth="yes"/>
      <point x="709" y="628" type="line"/>
      <point x="709" y="105" type="line"/>
      <point x="712" y="-1" type="line" smooth="yes"/>
      <point x="712" y="-11"/>
      <point x="681" y="-11"/>
      <point x="649" y="4"/>
    </contour>
  </outline>
</glyph>
<glyph name="uni0403" format="1">
  <advance width="573" height="573"/>
  <unicode hex="0403"/>
  <outline>
    <contour>
      <point x="456" y="821" type="qcurve" smooth="yes"/>
      <point x="407" y="803"/>
      <point x="310" y="769"/>
      <point x="271" y="746"/>
      <point x="262" y="746"/>
      <point x="255" y="753"/>
      <point x="255" y="763"/>
      <point x="270" y="777" type="qcurve" smooth="yes"/>
      <point x="307" y="811"/>
      <point x="402" y="875" type="qcurve" smooth="yes"/>
      <point x="404" y="875"/>
      <point x="414" y="875"/>
      <point x="427" y="866" type="qcurve" smooth="yes"/>
      <point x="460" y="843"/>
      <point x="460" y="826" type="qcurve" smooth="yes"/>
      <point x="460" y="822"/>
    </contour>
    <contour>
      <point x="106" y="19" type="qcurve" smooth="yes"/>
      <point x="108" y="108" type="line"/>
      <point x="108" y="634" type="line"/>
      <point x="104" y="685" type="line" smooth="yes"/>
      <point x="104" y="694"/>
      <point x="115" y="694" type="qcurve" smooth="yes"/>
      <point x="134" y="694"/>
      <point x="163" y="682" type="qcurve"/>
      <point x="164" y="681" type="line"/>
      <point x="437" y="699" type="line" smooth="yes"/>
      <point x="461" y="701"/>
      <point x="511" y="707"/>
      <point x="531" y="707"/>
      <point x="549" y="676"/>
      <point x="549" y="650"/>
      <point x="541" y="650" type="qcurve" smooth="yes"/>
      <point x="479" y="650" type="line" smooth="yes"/>
      <point x="452" y="650"/>
      <point x="438" y="649" type="qcurve" smooth="yes"/>
      <point x="168" y="631" type="line"/>
      <point x="168" y="107" type="line"/>
      <point x="171" y="1" type="line" smooth="yes"/>
      <point x="171" y="-4"/>
      <point x="140" y="-4"/>
      <point x="106" y="9"/>
    </contour>
    <contour>
      <point x="104" y="685" type="move" smooth="yes"/>
    </contour>
  </outline>
</glyph>
<glyph name="uni044C" format="1">
  <advance width="523" height="523"/>
  <unicode hex="044C"/>
  <outline>
    <contour>
      <point x="140" y="302" type="line"/>
      <point x="209" y="306"/>
      <point x="366" y="306"/>
      <point x="462" y="225"/>
      <point x="462" y="163" type="qcurve" smooth="yes"/>
      <point x="462" y="120"/>
      <point x="422" y="49"/>
      <point x="353" y="3"/>
      <point x="321" y="-3" type="qcurve" smooth="yes"/>
      <point x="270" y="-11"/>
      <point x="197" y="-11" type="qcurve" smooth="yes"/>
      <point x="147" y="-10" type="line"/>
      <point x="50" y="-4"/>
      <point x="50" y="12" type="qcurve" smooth="yes"/>
      <point x="50" y="24"/>
      <point x="69" y="24" type="qcurve" smooth="yes"/>
      <point x="83" y="24" type="line"/>
      <point x="83" y="375" type="line"/>
      <point x="80" y="472" type="line" smooth="yes"/>
      <point x="80" y="477"/>
      <point x="110" y="477"/>
      <point x="142" y="464"/>
      <point x="142" y="454" type="qcurve" smooth="yes"/>
      <point x="140" y="375" type="line"/>
    </contour>
    <contour>
      <point x="331" y="253" type="qcurve" smooth="yes"/>
      <point x="303" y="261"/>
      <point x="198" y="261"/>
      <point x="140" y="256" type="qcurve"/>
      <point x="140" y="30" type="line"/>
      <point x="171" y="29" type="line" smooth="yes"/>
      <point x="265" y="29"/>
      <point x="358" y="63"/>
      <point x="403" y="116"/>
      <point x="403" y="158" type="qcurve" smooth="yes"/>
      <point x="403" y="233"/>
    </contour>
  </outline>
</glyph>
<glyph name="uni0FD6" format="1">
  <advance width="1000" height="1000"/>
  <unicode hex="0FD6"/>
  <outline>
    <contour>
      <point x="475" y="-54" type="line"/>
      <point x="475" y="343" type="line"/>
      <point x="138" y="343" type="line"/>
      <point x="138" y="-56" type="line"/>
      <point x="88" y="-56" type="line"/>
      <point x="88" y="393" type="line"/>
      <point x="475" y="393" type="line"/>
      <point x="475" y="740" type="line"/>
      <point x="76" y="740" type="line"/>
      <point x="76" y="790" type="line"/>
      <point x="525" y="790" type="line"/>
      <point x="525" y="393" type="line"/>
      <point x="862" y="393" type="line"/>
      <point x="862" y="792" type="line"/>
      <point x="912" y="792" type="line"/>
      <point x="912" y="343" type="line"/>
      <point x="525" y="343" type="line"/>
      <point x="525" y="-4" type="line"/>
      <point x="924" y="-4" type="line"/>
      <point x="924" y="-54" type="line"/>
    </contour>
  </outline>
</glyph>
<glyph name="uni1E9E" format="1">
  <advance width="654" height="654"/>
  <unicode hex="1E9E"/>
  <outline>
    <contour>
      <point x="179" y="3" type="line" smooth="yes"/>
      <point x="179" y="-3"/>
      <point x="143" y="-3"/>
      <point x="107" y="11"/>
      <point x="107" y="21" type="qcurve" smooth="yes"/>
      <point x="107" y="22" type="line" smooth="yes"/>
      <point x="108" y="30"/>
      <point x="108" y="40" type="qcurve" smooth="yes"/>
      <point x="108" y="479" type="line" smooth="yes"/>
      <point x="108" y="612"/>
      <point x="179" y="671" type="qcurve" smooth="yes"/>
      <point x="238" y="721"/>
      <point x="415" y="721"/>
      <point x="514" y="638"/>
      <point x="514" y="513"/>
      <point x="428" y="431"/>
      <point x="369" y="415" type="qcurve" smooth="yes"/>
      <point x="333" y="405" type="line"/>
      <point x="370" y="405" type="line" smooth="yes"/>
      <point x="432" y="405"/>
      <point x="527" y="355"/>
      <point x="582" y="271"/>
      <point x="582" y="157"/>
      <point x="527" y="61"/>
      <point x="430" y="3"/>
      <point x="300" y="3"/>
      <point x="188" y="74"/>
      <point x="188" y="95" type="qcurve" smooth="yes"/>
      <point x="188" y="104"/>
      <point x="205" y="104"/>
      <point x="225" y="89" type="qcurve" smooth="yes"/>
      <point x="270" y="57"/>
      <point x="349" y="57" type="qcurve" smooth="yes"/>
      <point x="428" y="57"/>
      <point x="511" y="139"/>
      <point x="511" y="215" type="qcurve" smooth="yes"/>
      <point x="511" y="291"/>
      <point x="460" y="332" type="qcurve" smooth="yes"/>
      <point x="409" y="373"/>
      <point x="317" y="373" type="qcurve" smooth="yes"/>
      <point x="307" y="373" type="line" smooth="yes"/>
      <point x="275" y="373"/>
      <point x="237" y="363" type="qcurve"/>
      <point x="236" y="363" type="line" smooth="yes"/>
      <point x="227" y="363"/>
      <point x="207" y="398"/>
      <point x="207" y="420"/>
      <point x="211" y="420" type="qcurve" smooth="yes"/>
      <point x="343" y="424"/>
      <point x="410" y="487" type="qcurve" smooth="yes"/>
      <point x="445" y="520"/>
      <point x="445" y="571" type="qcurve" smooth="yes"/>
      <point x="445" y="666"/>
      <point x="331" y="666" type="qcurve" smooth="yes"/>
      <point x="234" y="666"/>
      <point x="196" y="586" type="qcurve" smooth="yes"/>
      <point x="174" y="543"/>
      <point x="174" y="472" type="qcurve" smooth="yes"/>
      <point x="174" y="109" type="line"/>
    </contour>
  </outline>
</glyph>
<glyph name="uni1F70" format="1">
  <advance width="575" height="575"/>
  <unicode hex="1F70"/>
  <outline>
    <contour>
      <point x="395" y="590" type="qcurve" smooth="yes"/>
      <point x="395" y="575"/>
      <point x="380" y="575" type="qcurve" smooth="yes"/>
      <point x="376" y="575"/>
      <point x="356" y="586" type="qcurve" smooth="yes"/>
      <point x="299" y="619"/>
      <point x="200" y="660" type="qcurve" smooth="yes"/>
      <point x="192" y="663"/>
      <point x="192" y="683"/>
      <point x="226" y="711"/>
      <point x="242" y="711"/>
      <point x="246" y="709" type="qcurve" smooth="yes"/>
      <point x="333" y="652"/>
      <point x="389" y="602" type="qcurve" smooth="yes"/>
      <point x="395" y="596"/>
    </contour>
    <contour>
      <point x="418" y="415" type="qcurve"/>
      <point x="420" y="461"/>
      <point x="420" y="475" type="qcurve" smooth="yes"/>
      <point x="420" y="484"/>
      <point x="451" y="484"/>
      <point x="482" y="470"/>
      <point x="482" y="459" type="qcurve" smooth="yes"/>
      <point x="482" y="457" type="line" smooth="yes"/>
      <point x="482" y="454"/>
      <point x="479" y="424" type="qcurve" smooth="yes"/>
      <point x="470" y="336"/>
      <point x="470" y="122" type="qcurve" smooth="yes"/>
      <point x="470" y="73"/>
      <point x="488" y="36"/>
      <point x="499" y="36" type="qcurve" smooth="yes"/>
      <point x="517" y="36"/>
      <point x="538" y="66" type="qcurve" smooth="yes"/>
      <point x="547" y="79"/>
      <point x="556" y="79" type="qcurve" smooth="yes"/>
      <point x="568" y="79"/>
      <point x="568" y="62" type="qcurve" smooth="yes"/>
      <point x="568" y="57" type="line" smooth="yes"/>
      <point x="568" y="54"/>
      <point x="566" y="51" type="qcurve" smooth="yes"/>
      <point x="555" y="22"/>
      <point x="511" y="-11"/>
      <point x="463" y="-11"/>
      <point x="424" y="32"/>
      <point x="421" y="80" type="qcurve"/>
      <point x="415" y="68"/>
      <point x="396" y="45" type="qcurve" smooth="yes"/>
      <point x="347" y="-16"/>
      <point x="190" y="-16"/>
      <point x="99" y="52"/>
      <point x="58" y="162"/>
      <point x="58" y="305"/>
      <point x="120" y="421"/>
      <point x="220" y="484"/>
      <point x="271" y="484" type="qcurve" smooth="yes"/>
      <point x="379" y="484"/>
    </contour>
    <contour>
      <point x="418" y="391" type="line"/>
      <point x="413" y="381"/>
      <point x="394" y="381"/>
      <point x="391" y="385" type="qcurve" smooth="yes"/>
      <point x="366" y="414"/>
      <point x="317" y="435"/>
      <point x="279" y="435" type="qcurve" smooth="yes"/>
      <point x="241" y="435"/>
      <point x="164" y="388"/>
      <point x="113" y="296"/>
      <point x="113" y="177"/>
      <point x="126" y="133" type="qcurve" smooth="yes"/>
      <point x="156" y="36"/>
      <point x="266" y="36" type="qcurve" smooth="yes"/>
      <point x="328" y="36"/>
      <point x="409" y="134"/>
      <point x="413" y="221" type="qcurve" smooth="yes"/>
    </contour>
  </outline>
</glyph>
<glyph name="uni1F71" format="1">
  <advance width="575" height="575"/>
  <unicode hex="1F71"/>
  <outline>
    <contour>
      <point x="394" y="659" type="qcurve" smooth="yes"/>
      <point x="292" y="617"/>
      <point x="224" y="577" type="qcurve" smooth="yes"/>
      <point x="218" y="574"/>
      <point x="214" y="574" type="qcurve" smooth="yes"/>
      <point x="199" y="574"/>
      <point x="199" y="589" type="qcurve" smooth="yes"/>
      <point x="199" y="595"/>
      <point x="205" y="601" type="qcurve" smooth="yes"/>
      <point x="261" y="651"/>
      <point x="348" y="708" type="qcurve" smooth="yes"/>
      <point x="352" y="710"/>
      <point x="368" y="710"/>
      <point x="402" y="682"/>
      <point x="402" y="662"/>
    </contour>
    <contour>
      <point x="418" y="415" type="qcurve"/>
      <point x="420" y="461"/>
      <point x="420" y="475" type="qcurve" smooth="yes"/>
      <point x="420" y="484"/>
      <point x="451" y="484"/>
      <point x="482" y="470"/>
      <point x="482" y="459" type="qcurve" smooth="yes"/>
      <point x="482" y="457" type="line" smooth="yes"/>
      <point x="482" y="454"/>
      <point x="479" y="424" type="qcurve" smooth="yes"/>
      <point x="470" y="336"/>
      <point x="470" y="122" type="qcurve" smooth="yes"/>
      <point x="470" y="73"/>
      <point x="488" y="36"/>
      <point x="499" y="36" type="qcurve" smooth="yes"/>
      <point x="517" y="36"/>
      <point x="538" y="66" type="qcurve" smooth="yes"/>
      <point x="547" y="79"/>
      <point x="556" y="79" type="qcurve" smooth="yes"/>
      <point x="568" y="79"/>
      <point x="568" y="62" type="qcurve" smooth="yes"/>
      <point x="568" y="57" type="line" smooth="yes"/>
      <point x="568" y="54"/>
      <point x="566" y="51" type="qcurve" smooth="yes"/>
      <point x="555" y="22"/>
      <point x="511" y="-11"/>
      <point x="463" y="-11"/>
      <point x="424" y="32"/>
      <point x="421" y="80" type="qcurve"/>
      <point x="415" y="68"/>
      <point x="396" y="45" type="qcurve" smooth="yes"/>
      <point x="347" y="-16"/>
      <point x="190" y="-16"/>
      <point x="99" y="52"/>
      <point x="58" y="162"/>
      <point x="58" y="305"/>
      <point x="120" y="421"/>
      <point x="220" y="484"/>
      <point x="271" y="484" type="qcurve" smooth="yes"/>
      <point x="379" y="484"/>
    </contour>
    <contour>
      <point x="418" y="391" type="line"/>
      <point x="413" y="381"/>
      <point x="394" y="381"/>
      <point x="391" y="385" type="qcurve" smooth="yes"/>
      <point x="366" y="414"/>
      <point x="317" y="435"/>
      <point x="279" y="435" type="qcurve" smooth="yes"/>
      <point x="241" y="435"/>
      <point x="164" y="388"/>
      <point x="113" y="296"/>
      <point x="113" y="177"/>
      <point x="126" y="133" type="qcurve" smooth="yes"/>
      <point x="156" y="36"/>
      <point x="266" y="36" type="qcurve" smooth="yes"/>
      <point x="328" y="36"/>
      <point x="409" y="134"/>
      <point x="413" y="221" type="qcurve" smooth="yes"/>
    </contour>
  </outline>
</glyph>
<glyph name="uni2010" format="1">
  <advance width="1000" height="1000"/>
  <unicode hex="2010"/>
  <outline>
    <contour>
      <point x="685" y="406" type="line" smooth="yes"/>
      <point x="702" y="406"/>
      <point x="702" y="355"/>
      <point x="685" y="355" type="qcurve" smooth="yes"/>
      <point x="315" y="355" type="line" smooth="yes"/>
      <point x="297" y="355"/>
      <point x="297" y="381" type="qcurve" smooth="yes"/>
      <point x="297" y="406"/>
      <point x="315" y="406" type="qcurve" smooth="yes"/>
    </contour>
  </outline>
</glyph>
<glyph name="figuredash" format="1">
  <advance width="500" height="500"/>
  <unicode hex="2013"/>
  <unicode hex="2012"/>
  <outline>
    <contour>
      <point x="500" y="285" type="line" smooth="yes"/>
      <point x="515" y="285"/>
      <point x="515" y="234"/>
      <point x="500" y="234" type="qcurve" smooth="yes"/>
      <point x="0" y="234" type="line" smooth="yes"/>
      <point x="-7" y="234"/>
      <point x="-15" y="250"/>
      <point x="-15" y="269"/>
      <point x="-7" y="285"/>
      <point x="0" y="285" type="qcurve" smooth="yes"/>
    </contour>
  </outline>
</glyph>
<glyph name="uni2016" format="1">
  <advance width="1000" height="1000"/>
  <unicode hex="2016"/>
  <outline>
    <contour>
      <point x="612" y="-120" type="line" smooth="yes"/>
      <point x="612" y="-134"/>
      <point x="567" y="-134"/>
      <point x="567" y="-120" type="qcurve" smooth="yes"/>
      <point x="567" y="880" type="line" smooth="yes"/>
      <point x="567" y="894"/>
      <point x="612" y="894"/>
      <point x="612" y="880" type="qcurve" smooth="yes"/>
    </contour>
    <contour>
      <point x="433" y="-120" type="line" smooth="yes"/>
      <point x="433" y="-134"/>
      <point x="388" y="-134"/>
      <point x="388" y="-120" type="qcurve" smooth="yes"/>
      <point x="388" y="880" type="line" smooth="yes"/>
      <point x="388" y="894"/>
      <point x="433" y="894"/>
      <point x="433" y="880" type="qcurve" smooth="yes"/>
    </contour>
  </outline>
</glyph>
<glyph name="dagger" format="1">
  <advance width="1000" height="1000"/>
  <unicode hex="2020"/>
  <outline>
    <contour>
      <point x="524" y="65" type="line"/>
      <point x="525" y="-18" type="line" smooth="yes"/>
      <point x="525" y="-25"/>
      <point x="512" y="-33"/>
      <point x="493" y="-33"/>
      <point x="473" y="-22"/>
      <point x="473" y="-13" type="qcurve" smooth="yes"/>
      <point x="473" y="-12" type="line" smooth="yes"/>
      <point x="476" y="20"/>
      <point x="476" y="64" type="qcurve" smooth="yes"/>
      <point x="476" y="513" type="line"/>
      <point x="417" y="512" type="line" smooth="yes"/>
      <point x="375" y="512"/>
      <point x="336" y="509" type="qcurve" smooth="yes"/>
      <point x="335" y="509" type="line" smooth="yes"/>
      <point x="327" y="509"/>
      <point x="316" y="531"/>
      <point x="316" y="562"/>
      <point x="331" y="562" type="qcurve" smooth="yes"/>
      <point x="365" y="560"/>
      <point x="418" y="560" type="qcurve" smooth="yes"/>
      <point x="476" y="561" type="line"/>
      <point x="476" y="672" type="line" smooth="yes"/>
      <point x="476" y="729"/>
      <point x="474" y="759" type="qcurve" smooth="yes"/>
      <point x="474" y="774"/>
      <point x="505" y="774"/>
      <point x="527" y="764"/>
      <point x="527" y="756" type="qcurve" smooth="yes"/>
      <point x="527" y="754" type="line" smooth="yes"/>
      <point x="524" y="718"/>
      <point x="524" y="673" type="qcurve" smooth="yes"/>
      <point x="524" y="562" type="line"/>
      <point x="585" y="563" type="line" smooth="yes"/>
      <point x="595" y="563"/>
      <point x="661" y="566" type="qcurve" smooth="yes"/>
      <point x="662" y="566" type="line" smooth="yes"/>
      <point x="671" y="566"/>
      <point x="682" y="546"/>
      <point x="682" y="535" type="qcurve" smooth="yes"/>
      <point x="682" y="514"/>
      <point x="667" y="514" type="qcurve" smooth="yes"/>
      <point x="584" y="515" type="line"/>
      <point x="524" y="514" type="line"/>
    </contour>
  </outline>
</glyph>
<glyph name="daggerdbl" format="1">
  <advance width="1000" height="1000"/>
  <unicode hex="2021"/>
  <outline>
    <contour>
      <point x="524" y="65" type="line"/>
      <point x="525" y="-18" type="line" smooth="yes"/>
      <point x="525" y="-25"/>
      <point x="512" y="-33"/>
      <point x="493" y="-33"/>
      <point x="473" y="-22"/>
      <point x="473" y="-13" type="qcurve" smooth="yes"/>
      <point x="473" y="-12" type="line" smooth="yes"/>
      <point x="476" y="20"/>
      <point x="476" y="64" type="qcurve" smooth="yes"/>
      <point x="476" y="183" type="line"/>
      <point x="417" y="182" type="line" smooth="yes"/>
      <point x="375" y="182"/>
      <point x="336" y="179" type="qcurve" smooth="yes"/>
      <point x="335" y="179" type="line" smooth="yes"/>
      <point x="327" y="179"/>
      <point x="316" y="201"/>
      <point x="316" y="232"/>
      <point x="331" y="232" type="qcurve" smooth="yes"/>
      <point x="365" y="230"/>
      <point x="418" y="230" type="qcurve" smooth="yes"/>
      <point x="476" y="231" type="line"/>
      <point x="476" y="522" type="line"/>
      <point x="417" y="521" type="line" smooth="yes"/>
      <point x="375" y="521"/>
      <point x="336" y="518" type="qcurve" smooth="yes"/>
      <point x="335" y="518" type="line" smooth="yes"/>
      <point x="327" y="518"/>
      <point x="316" y="540"/>
      <point x="316" y="571"/>
      <point x="331" y="571" type="qcurve" smooth="yes"/>
      <point x="365" y="569"/>
      <point x="418" y="569" type="qcurve" smooth="yes"/>
      <point x="476" y="570" type="line"/>
      <point x="476" y="672" type="line" smooth="yes"/>
      <point x="476" y="729"/>
      <point x="474" y="759" type="qcurve" smooth="yes"/>
      <point x="474" y="774"/>
      <point x="505" y="774"/>
      <point x="527" y="764"/>
      <point x="527" y="756" type="qcurve" smooth="yes"/>
      <point x="527" y="754" type="line" smooth="yes"/>
      <point x="524" y="718"/>
      <point x="524" y="673" type="qcurve" smooth="yes"/>
      <point x="524" y="571" type="line"/>
      <point x="585" y="572" type="line" smooth="yes"/>
      <point x="595" y="572"/>
      <point x="661" y="575" type="qcurve" smooth="yes"/>
      <point x="662" y="575" type="line" smooth="yes"/>
      <point x="671" y="575"/>
      <point x="682" y="555"/>
      <point x="682" y="544" type="qcurve" smooth="yes"/>
      <point x="682" y="523"/>
      <point x="667" y="523" type="qcurve" smooth="yes"/>
      <point x="584" y="524" type="line"/>
      <point x="524" y="523" type="line"/>
      <point x="524" y="232" type="line"/>
      <point x="585" y="233" type="line" smooth="yes"/>
      <point x="595" y="233"/>
      <point x="661" y="236" type="qcurve" smooth="yes"/>
      <point x="662" y="236" type="line" smooth="yes"/>
      <point x="671" y="236"/>
      <point x="682" y="216"/>
      <point x="682" y="205" type="qcurve" smooth="yes"/>
      <point x="682" y="184"/>
      <point x="667" y="184" type="qcurve" smooth="yes"/>
      <point x="584" y="185" type="line"/>
      <point x="524" y="184" type="line"/>
    </contour>
  </outline>
</glyph>
<glyph name="uni2027" format="1">
  <advance width="1000" height="1000"/>
  <unicode hex="2027"/>
  <outline>
    <contour>
      <point x="515" y="323"/>
      <point x="476" y="323"/>
      <point x="444" y="363"/>
      <point x="444" y="408"/>
      <point x="474" y="437"/>
      <point x="515" y="437"/>
      <point x="549" y="397"/>
      <point x="549" y="354"/>
    </contour>
  </outline>
</glyph>
<glyph name="perthousand" format="1">
  <advance width="1000" height="1000"/>
  <unicode hex="2030"/>
  <outline>
    <contour>
      <point x="509" y="657" type="line" smooth="yes"/>
      <point x="539" y="705"/>
      <point x="546" y="721" type="qcurve" smooth="yes"/>
      <point x="549" y="726"/>
      <point x="567" y="726"/>
      <point x="595" y="706"/>
      <point x="595" y="692"/>
      <point x="584" y="677"/>
      <point x="561" y="642"/>
      <point x="555" y="633" type="qcurve" smooth="yes"/>
      <point x="175" y="59" type="line" smooth="yes"/>
      <point x="165" y="44"/>
      <point x="139" y="2"/>
      <point x="128" y="-15" type="qcurve" smooth="yes"/>
      <point x="125" y="-20"/>
      <point x="105" y="-20"/>
      <point x="75" y="0"/>
      <point x="75" y="11"/>
      <point x="83" y="20" type="qcurve" smooth="yes"/>
      <point x="113" y="57"/>
      <point x="131" y="82" type="qcurve" smooth="yes"/>
    </contour>
    <contour>
      <point x="136" y="691" type="qcurve"/>
      <point x="169" y="724"/>
      <point x="250" y="724"/>
      <point x="278" y="701" type="qcurve" smooth="yes"/>
      <point x="336" y="655"/>
      <point x="336" y="550" type="qcurve" smooth="yes"/>
      <point x="336" y="448"/>
      <point x="279" y="402" type="qcurve" smooth="yes"/>
      <point x="250" y="378"/>
      <point x="204" y="378" type="qcurve" smooth="yes"/>
      <point x="133" y="378"/>
      <point x="67" y="473"/>
      <point x="67" y="550" type="qcurve" smooth="yes"/>
      <point x="67" y="627"/>
      <point x="102" y="676" type="qcurve" smooth="yes"/>
      <point x="115" y="696"/>
      <point x="129" y="696"/>
    </contour>
    <contour>
      <point x="116" y="549" type="qcurve" smooth="yes"/>
      <point x="116" y="422"/>
      <point x="202" y="422" type="qcurve" smooth="yes"/>
      <point x="250" y="422"/>
      <point x="287" y="496"/>
      <point x="287" y="585"/>
      <point x="280" y="614" type="qcurve" smooth="yes"/>
      <point x="262" y="680"/>
      <point x="204" y="680" type="qcurve" smooth="yes"/>
      <point x="184" y="680"/>
      <point x="164" y="666" type="qcurve" smooth="yes"/>
      <point x="116" y="632"/>
    </contour>
    <contour>
      <point x="741" y="298" type="qcurve"/>
      <point x="774" y="331"/>
      <point x="855" y="331"/>
      <point x="884" y="308" type="qcurve" smooth="yes"/>
      <point x="941" y="262"/>
      <point x="941" y="157" type="qcurve" smooth="yes"/>
      <point x="941" y="55"/>
      <point x="884" y="8" type="qcurve" smooth="yes"/>
      <point x="855" y="-15"/>
      <point x="809" y="-15" type="qcurve" smooth="yes"/>
      <point x="738" y="-15"/>
      <point x="672" y="80"/>
      <point x="672" y="157" type="qcurve" smooth="yes"/>
      <point x="672" y="234"/>
      <point x="706" y="284" type="qcurve" smooth="yes"/>
      <point x="720" y="303"/>
      <point x="734" y="303"/>
    </contour>
    <contour>
      <point x="421" y="298" type="qcurve"/>
      <point x="454" y="331"/>
      <point x="535" y="331"/>
      <point x="564" y="308" type="qcurve" smooth="yes"/>
      <point x="621" y="262"/>
      <point x="621" y="157" type="qcurve" smooth="yes"/>
      <point x="621" y="55"/>
      <point x="564" y="8" type="qcurve" smooth="yes"/>
      <point x="535" y="-15"/>
      <point x="489" y="-15" type="qcurve" smooth="yes"/>
      <point x="418" y="-15"/>
      <point x="352" y="80"/>
      <point x="352" y="157" type="qcurve" smooth="yes"/>
      <point x="352" y="234"/>
      <point x="386" y="284" type="qcurve" smooth="yes"/>
      <point x="400" y="303"/>
      <point x="414" y="303"/>
    </contour>
    <contour>
      <point x="807" y="29" type="qcurve" smooth="yes"/>
      <point x="855" y="29"/>
      <point x="892" y="103"/>
      <point x="892" y="192"/>
      <point x="884" y="221" type="qcurve" smooth="yes"/>
      <point x="867" y="287"/>
      <point x="809" y="287" type="qcurve" smooth="yes"/>
      <point x="789" y="287"/>
      <point x="768" y="272" type="qcurve" smooth="yes"/>
      <point x="721" y="239"/>
      <point x="721" y="156" type="qcurve" smooth="yes"/>
      <point x="721" y="82"/>
      <point x="754" y="48" type="qcurve" smooth="yes"/>
      <point x="773" y="29"/>
    </contour>
    <contour>
      <point x="487" y="29" type="qcurve" smooth="yes"/>
      <point x="535" y="29"/>
      <point x="572" y="103"/>
      <point x="572" y="192"/>
      <point x="564" y="221" type="qcurve" smooth="yes"/>
      <point x="547" y="287"/>
      <point x="489" y="287" type="qcurve" smooth="yes"/>
      <point x="469" y="287"/>
      <point x="448" y="272" type="qcurve" smooth="yes"/>
      <point x="401" y="239"/>
      <point x="401" y="156" type="qcurve" smooth="yes"/>
      <point x="401" y="82"/>
      <point x="434" y="48" type="qcurve" smooth="yes"/>
      <point x="453" y="29"/>
    </contour>
  </outline>
</glyph>
<glyph name="uni2031" format="1">
  <advance width="1000" height="1000"/>
  <unicode hex="2031"/>
  <outline>
    <contour>
      <point x="566" y="295" type="qcurve"/>
      <point x="588" y="328"/>
      <point x="651" y="328"/>
      <point x="672" y="306" type="qcurve" smooth="yes"/>
      <point x="714" y="259"/>
      <point x="714" y="158" type="qcurve" smooth="yes"/>
      <point x="714" y="56"/>
      <point x="672" y="10" type="qcurve" smooth="yes"/>
      <point x="651" y="-12"/>
      <point x="616" y="-12" type="qcurve" smooth="yes"/>
      <point x="514" y="-12"/>
      <point x="514" y="159" type="qcurve" smooth="yes"/>
      <point x="514" y="237"/>
      <point x="540" y="284" type="qcurve" smooth="yes"/>
      <point x="550" y="300"/>
      <point x="561" y="300"/>
    </contour>
    <contour>
      <point x="118" y="688" type="qcurve"/>
      <point x="140" y="721"/>
      <point x="203" y="721"/>
      <point x="224" y="698" type="qcurve" smooth="yes"/>
      <point x="266" y="652"/>
      <point x="266" y="449"/>
      <point x="224" y="404" type="qcurve" smooth="yes"/>
      <point x="203" y="381"/>
      <point x="168" y="381" type="qcurve" smooth="yes"/>
      <point x="66" y="381"/>
      <point x="66" y="552" type="qcurve" smooth="yes"/>
      <point x="66" y="630"/>
      <point x="92" y="677" type="qcurve" smooth="yes"/>
      <point x="102" y="693"/>
      <point x="113" y="693"/>
    </contour>
    <contour>
      <point x="118" y="-7" type="qcurve" smooth="yes"/>
      <point x="114" y="-16"/>
      <point x="96" y="-16"/>
      <point x="71" y="3"/>
      <point x="70" y="9" type="qcurve" smooth="yes"/>
      <point x="72" y="14"/>
      <point x="97" y="55"/>
      <point x="110" y="80" type="qcurve" smooth="yes"/>
      <point x="409" y="692"/>
      <point x="418" y="719" type="qcurve" smooth="yes"/>
      <point x="420" y="723"/>
      <point x="437" y="723"/>
      <point x="460" y="703"/>
      <point x="459" y="692"/>
      <point x="444" y="663"/>
      <point x="431" y="635" type="qcurve" smooth="yes"/>
      <point x="154" y="69"/>
    </contour>
    <contour>
      <point x="431" y="635" type="qcurve"/>
      <point x="432" y="635" type="line" smooth="yes"/>
      <point x="431" y="635"/>
    </contour>
    <contour>
      <point x="803" y="295" type="qcurve"/>
      <point x="825" y="328"/>
      <point x="888" y="328"/>
      <point x="909" y="306" type="qcurve" smooth="yes"/>
      <point x="951" y="259"/>
      <point x="951" y="158" type="qcurve" smooth="yes"/>
      <point x="951" y="56"/>
      <point x="909" y="10" type="qcurve" smooth="yes"/>
      <point x="888" y="-12"/>
      <point x="853" y="-12" type="qcurve" smooth="yes"/>
      <point x="751" y="-12"/>
      <point x="751" y="159" type="qcurve" smooth="yes"/>
      <point x="751" y="237"/>
      <point x="777" y="284" type="qcurve" smooth="yes"/>
      <point x="787" y="300"/>
      <point x="798" y="300"/>
    </contour>
    <contour>
      <point x="329" y="295" type="qcurve"/>
      <point x="351" y="328"/>
      <point x="414" y="328"/>
      <point x="435" y="306" type="qcurve" smooth="yes"/>
      <point x="477" y="259"/>
      <point x="477" y="158" type="qcurve" smooth="yes"/>
      <point x="477" y="56"/>
      <point x="435" y="10" type="qcurve" smooth="yes"/>
      <point x="414" y="-12"/>
      <point x="379" y="-12" type="qcurve" smooth="yes"/>
      <point x="277" y="-12"/>
      <point x="277" y="159" type="qcurve" smooth="yes"/>
      <point x="277" y="237"/>
      <point x="303" y="284" type="qcurve" smooth="yes"/>
      <point x="313" y="300"/>
      <point x="324" y="300"/>
    </contour>
    <contour>
      <point x="619" y="32" type="qcurve" smooth="yes"/>
      <point x="671" y="32"/>
      <point x="671" y="148" type="qcurve" smooth="yes"/>
      <point x="671" y="192"/>
      <point x="666" y="220" type="qcurve" smooth="yes"/>
      <point x="657" y="284"/>
      <point x="616" y="284" type="qcurve" smooth="yes"/>
      <point x="595" y="284"/>
      <point x="557" y="222"/>
      <point x="557" y="80"/>
      <point x="578" y="49" type="qcurve" smooth="yes"/>
      <point x="589" y="32"/>
    </contour>
    <contour>
      <point x="171" y="425" type="qcurve" smooth="yes"/>
      <point x="223" y="425"/>
      <point x="223" y="541" type="qcurve" smooth="yes"/>
      <point x="223" y="585"/>
      <point x="219" y="614" type="qcurve" smooth="yes"/>
      <point x="209" y="677"/>
      <point x="168" y="677" type="qcurve" smooth="yes"/>
      <point x="147" y="677"/>
      <point x="109" y="615"/>
      <point x="109" y="473"/>
      <point x="130" y="443" type="qcurve" smooth="yes"/>
      <point x="142" y="425"/>
    </contour>
    <contour>
      <point x="856" y="32" type="qcurve" smooth="yes"/>
      <point x="908" y="32"/>
      <point x="908" y="148" type="qcurve" smooth="yes"/>
      <point x="908" y="192"/>
      <point x="903" y="220" type="qcurve" smooth="yes"/>
      <point x="894" y="284"/>
      <point x="853" y="284" type="qcurve" smooth="yes"/>
      <point x="832" y="284"/>
      <point x="794" y="222"/>
      <point x="794" y="80"/>
      <point x="815" y="49" type="qcurve" smooth="yes"/>
      <point x="826" y="32"/>
    </contour>
    <contour>
      <point x="382" y="32" type="qcurve" smooth="yes"/>
      <point x="434" y="32"/>
      <point x="434" y="148" type="qcurve" smooth="yes"/>
      <point x="434" y="192"/>
      <point x="429" y="220" type="qcurve" smooth="yes"/>
      <point x="420" y="284"/>
      <point x="379" y="284" type="qcurve" smooth="yes"/>
      <point x="358" y="284"/>
      <point x="320" y="222"/>
      <point x="320" y="151" type="qcurve" smooth="yes"/>
      <point x="320" y="79"/>
      <point x="341" y="49" type="qcurve" smooth="yes"/>
      <point x="353" y="32"/>
    </contour>
  </outline>
</glyph>
<glyph name="uni2035" format="1">
  <advance width="500" height="500"/>
  <unicode hex="2035"/>
  <outline>
    <contour>
      <point x="250" y="806" type="qcurve" smooth="yes"/>
      <point x="317" y="604" type="line"/>
      <point x="317" y="604"/>
      <point x="317" y="600" type="qcurve" smooth="yes"/>
      <point x="317" y="596"/>
      <point x="292" y="582"/>
      <point x="270" y="582"/>
      <point x="268" y="588" type="qcurve" smooth="yes"/>
      <point x="190" y="784" type="line" smooth="yes"/>
      <point x="189" y="785"/>
      <point x="189" y="787" type="qcurve" smooth="yes"/>
      <point x="189" y="797"/>
      <point x="218" y="814"/>
      <point x="248" y="814"/>
    </contour>
  </outline>
</glyph>
<glyph name="uni203B" format="1">
  <advance width="1000" height="1000"/>
  <unicode hex="203B"/>
  <outline>
    <contour>
      <point x="511" y="585" type="qcurve" smooth="yes"/>
      <point x="491" y="585"/>
      <point x="460" y="622"/>
      <point x="460" y="661"/>
      <point x="481" y="685"/>
      <point x="519" y="685"/>
      <point x="551" y="647"/>
      <point x="551" y="627" type="qcurve" smooth="yes"/>
      <point x="551" y="585"/>
    </contour>
    <contour>
      <point x="770" y="53" type="qcurve" smooth="yes"/>
      <point x="502" y="322" type="line"/>
      <point x="282" y="104" type="line" smooth="yes"/>
      <point x="270" y="92"/>
      <point x="255" y="76" type="qcurve" smooth="yes"/>
      <point x="220" y="39"/>
      <point x="206" y="39"/>
      <point x="190" y="63"/>
      <point x="190" y="84"/>
      <point x="195" y="89" type="qcurve" smooth="yes"/>
      <point x="243" y="131"/>
      <point x="253" y="141" type="qcurve" smooth="yes"/>
      <point x="467" y="356" type="line"/>
      <point x="257" y="567" type="line" smooth="yes"/>
      <point x="219" y="608"/>
      <point x="196" y="624" type="qcurve" smooth="yes"/>
      <point x="191" y="628"/>
      <point x="191" y="647"/>
      <point x="207" y="673"/>
      <point x="222" y="673"/>
      <point x="228" y="666" type="qcurve" smooth="yes"/>
      <point x="261" y="631"/>
      <point x="287" y="605" type="qcurve" smooth="yes"/>
      <point x="501" y="390" type="line"/>
      <point x="712" y="601" type="line" smooth="yes"/>
      <point x="758" y="647"/>
      <point x="773" y="665" type="qcurve" smooth="yes"/>
      <point x="778" y="670"/>
      <point x="791" y="670"/>
      <point x="808" y="644"/>
      <point x="808" y="625"/>
      <point x="793" y="612"/>
      <point x="774" y="592" type="qcurve" smooth="yes"/>
      <point x="535" y="356" type="line"/>
      <point x="739" y="152" type="line" smooth="yes"/>
      <point x="757" y="134"/>
      <point x="797" y="99" type="qcurve" smooth="yes"/>
      <point x="803" y="95"/>
      <point x="803" y="73"/>
      <point x="787" y="49"/>
      <point x="773" y="49"/>
    </contour>
    <contour>
      <point x="789" y="318" type="qcurve" smooth="yes"/>
      <point x="769" y="318"/>
      <point x="738" y="355"/>
      <point x="738" y="394"/>
      <point x="759" y="418"/>
      <point x="797" y="418"/>
      <point x="829" y="380"/>
      <point x="829" y="360" type="qcurve" smooth="yes"/>
      <point x="829" y="318"/>
    </contour>
    <contour>
      <point x="230" y="318" type="qcurve" smooth="yes"/>
      <point x="210" y="318"/>
      <point x="179" y="355"/>
      <point x="179" y="394"/>
      <point x="200" y="418"/>
      <point x="238" y="418"/>
      <point x="270" y="380"/>
      <point x="270" y="360" type="qcurve" smooth="yes"/>
      <point x="270" y="318"/>
    </contour>
    <contour>
      <point x="511" y="42" type="qcurve" smooth="yes"/>
      <point x="491" y="42"/>
      <point x="460" y="79"/>
      <point x="460" y="118"/>
      <point x="481" y="142"/>
      <point x="519" y="142"/>
      <point x="551" y="104"/>
      <point x="551" y="84" type="qcurve" smooth="yes"/>
      <point x="551" y="42"/>
    </contour>
  </outline>
</glyph>
<glyph name="exclamdbl" format="1">
  <advance width="1000" height="1000"/>
  <unicode hex="203C"/>
  <outline>
    <contour>
      <point x="642" y="695" type="line" smooth="yes"/>
      <point x="642" y="711"/>
      <point x="676" y="711"/>
      <point x="709" y="693"/>
      <point x="709" y="682" type="qcurve" smooth="yes"/>
      <point x="709" y="680" type="line" smooth="yes"/>
      <point x="708" y="664"/>
      <point x="704" y="627"/>
      <point x="703" y="609" type="qcurve" smooth="yes"/>
      <point x="695" y="223" type="line"/>
      <point x="695" y="173" type="line" smooth="yes"/>
      <point x="695" y="166"/>
      <point x="672" y="166"/>
      <point x="647" y="178"/>
      <point x="647" y="187" type="qcurve" smooth="yes"/>
      <point x="647" y="188" type="line" smooth="yes"/>
      <point x="649" y="204"/>
      <point x="649" y="227" type="qcurve" smooth="yes"/>
      <point x="647" y="614" type="line" smooth="yes"/>
      <point x="647" y="663"/>
      <point x="642" y="693" type="qcurve"/>
    </contour>
    <contour>
      <point x="311" y="695" type="line" smooth="yes"/>
      <point x="311" y="711"/>
      <point x="345" y="711"/>
      <point x="378" y="693"/>
      <point x="378" y="682" type="qcurve" smooth="yes"/>
      <point x="378" y="680" type="line" smooth="yes"/>
      <point x="377" y="664"/>
      <point x="373" y="627"/>
      <point x="372" y="609" type="qcurve" smooth="yes"/>
      <point x="364" y="223" type="line"/>
      <point x="364" y="173" type="line" smooth="yes"/>
      <point x="364" y="166"/>
      <point x="341" y="166"/>
      <point x="316" y="178"/>
      <point x="316" y="187" type="qcurve" smooth="yes"/>
      <point x="316" y="188" type="line" smooth="yes"/>
      <point x="318" y="204"/>
      <point x="318" y="227" type="qcurve" smooth="yes"/>
      <point x="316" y="614" type="line" smooth="yes"/>
      <point x="316" y="663"/>
      <point x="311" y="693" type="qcurve"/>
    </contour>
    <contour>
      <point x="677" y="-5" type="qcurve" smooth="yes"/>
      <point x="657" y="-5"/>
      <point x="626" y="32"/>
      <point x="626" y="71"/>
      <point x="647" y="95"/>
      <point x="685" y="95"/>
      <point x="717" y="57"/>
      <point x="717" y="37" type="qcurve" smooth="yes"/>
      <point x="717" y="-5"/>
    </contour>
    <contour>
      <point x="346" y="-5" type="qcurve" smooth="yes"/>
      <point x="326" y="-5"/>
      <point x="295" y="32"/>
      <point x="295" y="71"/>
      <point x="316" y="95"/>
      <point x="354" y="95"/>
      <point x="386" y="57"/>
      <point x="386" y="37" type="qcurve" smooth="yes"/>
      <point x="386" y="-5"/>
    </contour>
  </outline>
</glyph>
<glyph name="uni0305" format="1">
  <advance width="0" height="0"/>
  <unicode hex="203E"/>
  <unicode hex="0305"/>
  <outline>
    <contour>
      <point x="500" y="840" type="line" smooth="yes"/>
      <point x="515" y="840"/>
      <point x="515" y="789"/>
      <point x="500" y="789" type="qcurve" smooth="yes"/>
      <point x="0" y="789" type="line" smooth="yes"/>
      <point x="-7" y="789"/>
      <point x="-15" y="805"/>
      <point x="-15" y="824"/>
      <point x="-7" y="840"/>
      <point x="0" y="840" type="qcurve" smooth="yes"/>
    </contour>
  </outline>
</glyph>
<glyph name="uni2048" format="1">
  <advance width="1000" height="1000"/>
  <unicode hex="2048"/>
  <outline>
    <contour>
      <point x="373" y="254" type="qcurve" smooth="yes"/>
      <point x="373" y="236" type="line" smooth="yes"/>
      <point x="373" y="224"/>
      <point x="383" y="183" type="qcurve" smooth="yes"/>
      <point x="383" y="173"/>
      <point x="327" y="173"/>
      <point x="316" y="202"/>
      <point x="316" y="224" type="qcurve" smooth="yes"/>
      <point x="316" y="299"/>
      <point x="346" y="340" type="qcurve" smooth="yes"/>
      <point x="367" y="368"/>
      <point x="421" y="414"/>
      <point x="448" y="438" type="qcurve" smooth="yes"/>
      <point x="512" y="495"/>
      <point x="512" y="568" type="qcurve" smooth="yes"/>
      <point x="512" y="606"/>
      <point x="463" y="659"/>
      <point x="360" y="659"/>
      <point x="274" y="620"/>
      <point x="222" y="566"/>
      <point x="208" y="520" type="qcurve" smooth="yes"/>
      <point x="205" y="511"/>
      <point x="182" y="511"/>
      <point x="153" y="535"/>
      <point x="153" y="544" type="qcurve" smooth="yes"/>
      <point x="153" y="552"/>
      <point x="154" y="555" type="qcurve" smooth="yes"/>
      <point x="201" y="636"/>
      <point x="327" y="708"/>
      <point x="488" y="708"/>
      <point x="575" y="637"/>
      <point x="575" y="523"/>
      <point x="538" y="453"/>
      <point x="482" y="400"/>
      <point x="423" y="354"/>
      <point x="373" y="295"/>
    </contour>
    <contour>
      <point x="667" y="695" type="line" smooth="yes"/>
      <point x="667" y="707"/>
      <point x="705" y="707"/>
      <point x="742" y="691"/>
      <point x="742" y="681" type="qcurve" smooth="yes"/>
      <point x="742" y="680" type="line" smooth="yes"/>
      <point x="741" y="665"/>
      <point x="737" y="631"/>
      <point x="736" y="609" type="qcurve" smooth="yes"/>
      <point x="724" y="223" type="line"/>
      <point x="724" y="173" type="line" smooth="yes"/>
      <point x="724" y="170"/>
      <point x="701" y="170"/>
      <point x="676" y="180"/>
      <point x="676" y="187" type="qcurve" smooth="yes"/>
      <point x="676" y="188" type="line" smooth="yes"/>
      <point x="678" y="204"/>
      <point x="678" y="227" type="qcurve" smooth="yes"/>
      <point x="672" y="614" type="line" smooth="yes"/>
      <point x="672" y="663"/>
      <point x="667" y="693" type="qcurve"/>
    </contour>
    <contour>
      <point x="718" y="96"/>
      <point x="748" y="58"/>
      <point x="748" y="19"/>
      <point x="726" y="-4"/>
      <point x="682" y="-4"/>
      <point x="653" y="31"/>
      <point x="653" y="70"/>
      <point x="676" y="96"/>
    </contour>
    <contour>
      <point x="371" y="96"/>
      <point x="401" y="58"/>
      <point x="401" y="19"/>
      <point x="379" y="-4"/>
      <point x="335" y="-4"/>
      <point x="306" y="31"/>
      <point x="306" y="70"/>
      <point x="329" y="96"/>
    </contour>
  </outline>
</glyph>
<glyph name="uni207A" format="1">
  <advance width="600" height="600"/>
  <unicode hex="207A"/>
  <outline>
    <contour>
      <point x="295" y="472" type="line" smooth="yes"/>
      <point x="295" y="457"/>
      <point x="261" y="457"/>
      <point x="243" y="469"/>
      <point x="243" y="477" type="qcurve" smooth="yes"/>
      <point x="243" y="478" type="line" smooth="yes"/>
      <point x="243" y="495"/>
      <point x="245" y="521" type="qcurve" smooth="yes"/>
      <point x="246" y="545" type="line"/>
      <point x="246" y="632" type="line"/>
      <point x="168" y="632" type="line" smooth="yes"/>
      <point x="154" y="632"/>
      <point x="126" y="630" type="qcurve" smooth="yes"/>
      <point x="96" y="629" type="line"/>
      <point x="94" y="629" type="line" smooth="yes"/>
      <point x="88" y="629"/>
      <point x="76" y="649"/>
      <point x="76" y="682"/>
      <point x="91" y="682" type="qcurve" smooth="yes"/>
      <point x="129" y="680"/>
      <point x="169" y="680" type="qcurve" smooth="yes"/>
      <point x="246" y="680" type="line"/>
      <point x="246" y="752" type="line" smooth="yes"/>
      <point x="246" y="792"/>
      <point x="244" y="830" type="qcurve" smooth="yes"/>
      <point x="244" y="845"/>
      <point x="277" y="845"/>
      <point x="297" y="833"/>
      <point x="297" y="827" type="qcurve" smooth="yes"/>
      <point x="297" y="825" type="line"/>
      <point x="296" y="795" type="line" smooth="yes"/>
      <point x="294" y="767"/>
      <point x="294" y="753" type="qcurve" smooth="yes"/>
      <point x="294" y="680" type="line"/>
      <point x="375" y="680" type="line"/>
      <point x="398" y="681" type="line" smooth="yes"/>
      <point x="424" y="683"/>
      <point x="442" y="683" type="qcurve" smooth="yes"/>
      <point x="443" y="683" type="line" smooth="yes"/>
      <point x="451" y="683"/>
      <point x="463" y="665"/>
      <point x="463" y="631"/>
      <point x="448" y="631" type="qcurve" smooth="yes"/>
      <point x="374" y="632" type="line"/>
      <point x="294" y="632" type="line"/>
      <point x="294" y="546" type="line"/>
    </contour>
    <contour>
      <point x="244" y="830" type="move" smooth="yes"/>
    </contour>
    <contour>
      <point x="91" y="682" type="move" smooth="yes"/>
    </contour>
  </outline>
</glyph>
<glyph name="uni207F" format="1">
  <advance width="408" height="408"/>
  <unicode hex="207F"/>
  <outline>
    <contour>
      <point x="343" y="323" type="line" smooth="yes"/>
      <point x="343" y="317"/>
      <point x="315" y="317"/>
      <point x="290" y="329"/>
      <point x="290" y="337" type="qcurve" smooth="yes"/>
      <point x="290" y="338" type="line"/>
      <point x="292" y="417" type="line"/>
      <point x="292" y="529" type="line" smooth="yes"/>
      <point x="292" y="582"/>
      <point x="263" y="637"/>
      <point x="184" y="637"/>
      <point x="118" y="583"/>
      <point x="100" y="524" type="qcurve" smooth="yes"/>
      <point x="87" y="482"/>
      <point x="87" y="409" type="qcurve" smooth="yes"/>
      <point x="88" y="353" type="line"/>
      <point x="88" y="353" type="line"/>
      <point x="89" y="342"/>
      <point x="89" y="323" type="qcurve" smooth="yes"/>
      <point x="89" y="317"/>
      <point x="62" y="317"/>
      <point x="36" y="330"/>
      <point x="36" y="338" type="qcurve" smooth="yes"/>
      <point x="37" y="417" type="line"/>
      <point x="37" y="587" type="line"/>
      <point x="35" y="674" type="line" smooth="yes"/>
      <point x="35" y="680"/>
      <point x="62" y="680"/>
      <point x="89" y="667"/>
      <point x="89" y="659" type="qcurve" smooth="yes"/>
      <point x="87" y="625"/>
      <point x="87" y="607" type="qcurve" smooth="yes"/>
      <point x="87" y="591" type="line"/>
      <point x="96" y="604" type="line" smooth="yes"/>
      <point x="123" y="642"/>
      <point x="189" y="683"/>
      <point x="223" y="683" type="qcurve" smooth="yes"/>
      <point x="341" y="683"/>
      <point x="341" y="533" type="qcurve" smooth="yes"/>
      <point x="341" y="409" type="line"/>
    </contour>
  </outline>
</glyph>
<glyph name="uni20DD" format="1">
  <advance width="1000" height="1000"/>
  <unicode hex="20DD"/>
  <outline>
    <contour>
      <point x="632" y="-107"/>
      <point x="369" y="-107"/>
      <point x="154" y="21"/>
      <point x="89" y="129" type="qcurve" smooth="yes"/>
      <point x="25" y="235"/>
      <point x="25" y="499"/>
      <point x="154" y="713"/>
      <point x="369" y="842"/>
      <point x="632" y="842"/>
      <point x="846" y="713"/>
      <point x="975" y="499"/>
      <point x="975" y="236"/>
      <point x="846" y="21"/>
    </contour>
    <contour>
      <point x="620" y="-68"/>
      <point x="819" y="49"/>
      <point x="936" y="247"/>
      <point x="936" y="487"/>
      <point x="819" y="686"/>
      <point x="620" y="803"/>
      <point x="380" y="803"/>
      <point x="181" y="686"/>
      <point x="64" y="487"/>
      <point x="64" y="247"/>
      <point x="181" y="49"/>
      <point x="380" y="-68"/>
    </contour>
  </outline>
</glyph>
<glyph name="uni2105" format="1">
  <advance width="1000" height="1000"/>
  <unicode hex="2105"/>
  <outline>
    <contour>
      <point x="177" y="11" type="line" smooth="yes"/>
      <point x="147" y="-19"/>
      <point x="94" y="-80" type="qcurve" smooth="yes"/>
      <point x="88" y="-86"/>
      <point x="73" y="-86"/>
      <point x="58" y="-60"/>
      <point x="58" y="-36"/>
      <point x="63" y="-32" type="qcurve" smooth="yes"/>
      <point x="102" y="1"/>
      <point x="145" y="44" type="qcurve" smooth="yes"/>
      <point x="836" y="739" type="line" smooth="yes"/>
      <point x="855" y="759"/>
      <point x="900" y="806"/>
      <point x="919" y="830" type="qcurve" smooth="yes"/>
      <point x="925" y="837"/>
      <point x="940" y="837"/>
      <point x="955" y="810"/>
      <point x="955" y="786"/>
      <point x="950" y="782" type="qcurve" smooth="yes"/>
      <point x="932" y="765"/>
      <point x="888" y="727"/>
      <point x="868" y="706" type="qcurve" smooth="yes"/>
    </contour>
    <contour>
      <point x="435" y="486" type="qcurve" smooth="yes"/>
      <point x="435" y="480"/>
      <point x="411" y="437"/>
      <point x="386" y="411" type="qcurve" smooth="yes"/>
      <point x="325" y="348"/>
      <point x="234" y="348" type="qcurve" smooth="yes"/>
      <point x="189" y="348"/>
      <point x="114" y="390"/>
      <point x="69" y="471"/>
      <point x="69" y="580"/>
      <point x="106" y="670"/>
      <point x="137" y="704" type="qcurve" smooth="yes"/>
      <point x="204" y="777"/>
      <point x="287" y="777" type="qcurve" smooth="yes"/>
      <point x="328" y="777"/>
      <point x="383" y="748"/>
      <point x="410" y="713"/>
      <point x="410" y="691"/>
      <point x="390" y="668"/>
      <point x="373" y="668"/>
      <point x="365" y="685"/>
      <point x="356" y="698" type="qcurve" smooth="yes"/>
      <point x="331" y="731"/>
      <point x="249" y="731"/>
      <point x="171" y="676"/>
      <point x="120" y="586"/>
      <point x="120" y="486"/>
      <point x="154" y="424"/>
      <point x="207" y="395"/>
      <point x="274" y="395"/>
      <point x="305" y="408" type="qcurve" smooth="yes"/>
      <point x="352" y="429"/>
      <point x="406" y="483" type="qcurve" smooth="yes"/>
      <point x="418" y="496"/>
      <point x="435" y="496"/>
    </contour>
    <contour>
      <point x="672" y="349" type="qcurve"/>
      <point x="716" y="383"/>
      <point x="773" y="383" type="qcurve" smooth="yes"/>
      <point x="846" y="383"/>
      <point x="938" y="275"/>
      <point x="938" y="178" type="qcurve" smooth="yes"/>
      <point x="938" y="123"/>
      <point x="892" y="21"/>
      <point x="802" y="-45"/>
      <point x="650" y="-45"/>
      <point x="555" y="58"/>
      <point x="555" y="146" type="qcurve" smooth="yes"/>
      <point x="555" y="219"/>
      <point x="598" y="291" type="qcurve" smooth="yes"/>
      <point x="616" y="321"/>
      <point x="650" y="356"/>
      <point x="667" y="356"/>
    </contour>
    <contour>
      <point x="734" y="3" type="qcurve" smooth="yes"/>
      <point x="776" y="3"/>
      <point x="845" y="50"/>
      <point x="887" y="130"/>
      <point x="887" y="249"/>
      <point x="826" y="337"/>
      <point x="721" y="337"/>
      <point x="647" y="279"/>
      <point x="606" y="191"/>
      <point x="606" y="147" type="qcurve" smooth="yes"/>
      <point x="606" y="77"/>
      <point x="673" y="3"/>
    </contour>
  </outline>
</glyph>
<glyph name="uni210A" format="1">
  <advance width="1000" height="1000"/>
  <unicode hex="210A"/>
  <outline>
    <contour>
      <point x="701" y="457" type="line"/>
      <point x="697" y="381"/>
      <point x="697" y="358" type="qcurve" smooth="yes"/>
      <point x="697" y="50" type="line" smooth="yes"/>
      <point x="697" y="-22"/>
      <point x="630" y="-122"/>
      <point x="519" y="-173"/>
      <point x="398" y="-173"/>
      <point x="328" y="-144"/>
      <point x="289" y="-106"/>
      <point x="273" y="-75"/>
      <point x="273" y="-74" type="qcurve" smooth="yes"/>
      <point x="273" y="-61"/>
      <point x="297" y="-35"/>
      <point x="317" y="-35"/>
      <point x="321" y="-45" type="qcurve" smooth="yes"/>
      <point x="340" y="-87"/>
      <point x="401" y="-122"/>
      <point x="453" y="-122" type="qcurve" smooth="yes"/>
      <point x="565" y="-122"/>
      <point x="617" y="-46" type="qcurve" smooth="yes"/>
      <point x="643" y="-7"/>
      <point x="643" y="51" type="qcurve" smooth="yes"/>
      <point x="643" y="134" type="line"/>
      <point x="603" y="64"/>
      <point x="494" y="9"/>
      <point x="440" y="9" type="qcurve" smooth="yes"/>
      <point x="362" y="9"/>
      <point x="269" y="112"/>
      <point x="269" y="211" type="qcurve" smooth="yes"/>
      <point x="269" y="314"/>
      <point x="340" y="398" type="qcurve" smooth="yes"/>
      <point x="373" y="437"/>
      <point x="460" y="484"/>
      <point x="506" y="484" type="qcurve" smooth="yes"/>
      <point x="607" y="484"/>
      <point x="643" y="407" type="qcurve"/>
      <point x="642" y="475" type="line" smooth="yes"/>
      <point x="642" y="484"/>
      <point x="671" y="484"/>
      <point x="701" y="469"/>
      <point x="701" y="458" type="qcurve" smooth="yes"/>
    </contour>
    <contour>
      <point x="643" y="390" type="line"/>
      <point x="634" y="375"/>
      <point x="617" y="375"/>
      <point x="613" y="380" type="qcurve" smooth="yes"/>
      <point x="571" y="435"/>
      <point x="509" y="435" type="qcurve" smooth="yes"/>
      <point x="435" y="435"/>
      <point x="380" y="363" type="qcurve" smooth="yes"/>
      <point x="325" y="292"/>
      <point x="325" y="131"/>
      <point x="388" y="59"/>
      <point x="477" y="59"/>
      <point x="559" y="97"/>
      <point x="592" y="134" type="qcurve" smooth="yes"/>
      <point x="641" y="188"/>
      <point x="642" y="270" type="qcurve" smooth="yes"/>
      <point x="643" y="302"/>
      <point x="643" y="340" type="qcurve" smooth="yes"/>
    </contour>
  </outline>
</glyph>
<glyph name="uni2160" format="1">
  <advance width="1000" height="1000"/>
  <unicode hex="2160"/>
  <outline>
    <contour>
      <point x="469" y="18" type="qcurve" smooth="yes"/>
      <point x="471" y="107" type="line"/>
      <point x="471" y="589" type="line"/>
      <point x="468" y="695" type="line" smooth="yes"/>
      <point x="468" y="705"/>
      <point x="499" y="705"/>
      <point x="532" y="690"/>
      <point x="532" y="677" type="qcurve" smooth="yes"/>
      <point x="530" y="588" type="line"/>
      <point x="530" y="106" type="line"/>
      <point x="533" y="0" type="line" smooth="yes"/>
      <point x="533" y="-10"/>
      <point x="502" y="-10"/>
      <point x="469" y="5"/>
    </contour>
  </outline>
</glyph>
<glyph name="uni2163" format="1">
  <advance width="1000" height="1000"/>
  <unicode hex="2163"/>
  <outline>
    <contour>
      <point x="356" y="689" type="qcurve" smooth="yes"/>
      <point x="356" y="703"/>
      <point x="386" y="703" type="qcurve" smooth="yes"/>
      <point x="425" y="703"/>
      <point x="429" y="684" type="qcurve" smooth="yes"/>
      <point x="435" y="656"/>
      <point x="447" y="617" type="qcurve" smooth="yes"/>
      <point x="540" y="350"/>
      <point x="613" y="78" type="qcurve"/>
      <point x="684" y="331"/>
      <point x="777" y="607" type="qcurve" smooth="yes"/>
      <point x="795" y="658"/>
      <point x="803" y="701" type="qcurve" smooth="yes"/>
      <point x="804" y="711"/>
      <point x="833" y="711"/>
      <point x="867" y="691"/>
      <point x="867" y="677" type="qcurve" smooth="yes"/>
      <point x="867" y="674"/>
      <point x="851" y="642"/>
      <point x="814" y="545"/>
      <point x="774" y="423"/>
      <point x="733" y="294"/>
      <point x="696" y="171"/>
      <point x="667" y="72"/>
      <point x="650" y="11"/>
      <point x="649" y="8" type="qcurve" smooth="yes"/>
      <point x="643" y="-15"/>
      <point x="623" y="-15" type="qcurve" smooth="yes"/>
      <point x="609" y="-15"/>
      <point x="575" y="17"/>
      <point x="550" y="111"/>
      <point x="507" y="255"/>
      <point x="461" y="403"/>
      <point x="438" y="471" type="qcurve" smooth="yes"/>
      <point x="391" y="616"/>
      <point x="357" y="685" type="qcurve" smooth="yes"/>
      <point x="356" y="687"/>
    </contour>
    <contour>
      <point x="217" y="19" type="qcurve" smooth="yes"/>
      <point x="219" y="108" type="line"/>
      <point x="219" y="590" type="line"/>
      <point x="216" y="692" type="line" smooth="yes"/>
      <point x="216" y="705"/>
      <point x="248" y="705"/>
      <point x="279" y="688"/>
      <point x="279" y="675" type="qcurve" smooth="yes"/>
      <point x="277" y="586" type="line"/>
      <point x="277" y="107" type="line"/>
      <point x="280" y="1" type="line" smooth="yes"/>
      <point x="280" y="-9"/>
      <point x="249" y="-9"/>
      <point x="217" y="6"/>
    </contour>
  </outline>
</glyph>
<glyph name="uni2164" format="1">
  <advance width="1000" height="1000"/>
  <unicode hex="2164"/>
  <outline>
    <contour>
      <point x="204" y="690" type="qcurve" smooth="yes"/>
      <point x="204" y="703"/>
      <point x="226" y="703" type="qcurve" smooth="yes"/>
      <point x="271" y="703"/>
      <point x="277" y="684" type="qcurve" smooth="yes"/>
      <point x="281" y="671"/>
      <point x="289" y="645"/>
      <point x="316" y="576" type="qcurve" smooth="yes"/>
      <point x="420" y="310"/>
      <point x="496" y="74" type="qcurve"/>
      <point x="616" y="397"/>
      <point x="711" y="619" type="qcurve" smooth="yes"/>
      <point x="721" y="643"/>
      <point x="736" y="699" type="qcurve" smooth="yes"/>
      <point x="739" y="710"/>
      <point x="768" y="710"/>
      <point x="803" y="687"/>
      <point x="803" y="673" type="qcurve" smooth="yes"/>
      <point x="803" y="670"/>
      <point x="798" y="662" type="qcurve" smooth="yes"/>
      <point x="782" y="635" type="line" smooth="yes"/>
      <point x="751" y="583"/>
      <point x="598" y="194" type="qcurve" smooth="yes"/>
      <point x="545" y="57"/>
      <point x="531" y="7" type="qcurve" smooth="yes"/>
      <point x="523" y="-16"/>
      <point x="492" y="-16"/>
      <point x="461" y="15"/>
      <point x="450" y="47" type="qcurve" smooth="yes"/>
      <point x="382" y="251"/>
      <point x="239" y="615" type="qcurve" smooth="yes"/>
      <point x="231" y="636"/>
      <point x="221" y="654" type="qcurve" smooth="yes"/>
      <point x="204" y="683"/>
    </contour>
  </outline>
</glyph>
<glyph name="uni2167" format="1">
  <advance width="1000" height="1000"/>
  <unicode hex="2167"/>
  <outline>
    <contour>
      <point x="42" y="689" type="qcurve" smooth="yes"/>
      <point x="42" y="703"/>
      <point x="73" y="703" type="qcurve" smooth="yes"/>
      <point x="113" y="703"/>
      <point x="115" y="684" type="qcurve" smooth="yes"/>
      <point x="119" y="653"/>
      <point x="142" y="573" type="qcurve" smooth="yes"/>
      <point x="212" y="326"/>
      <point x="266" y="78" type="qcurve"/>
      <point x="324" y="331"/>
      <point x="365" y="478" type="qcurve" smooth="yes"/>
      <point x="407" y="632"/>
      <point x="421" y="701" type="qcurve" smooth="yes"/>
      <point x="424" y="713"/>
      <point x="453" y="713"/>
      <point x="484" y="692"/>
      <point x="484" y="673"/>
      <point x="470" y="640"/>
      <point x="439" y="541"/>
      <point x="405" y="419"/>
      <point x="372" y="291"/>
      <point x="342" y="170"/>
      <point x="319" y="72"/>
      <point x="305" y="11"/>
      <point x="304" y="8" type="qcurve" smooth="yes"/>
      <point x="300" y="-13"/>
      <point x="263" y="-13"/>
      <point x="228" y="19"/>
      <point x="220" y="48" type="qcurve" smooth="yes"/>
      <point x="163" y="298"/>
      <point x="75" y="601" type="qcurve" smooth="yes"/>
      <point x="67" y="629"/>
      <point x="42" y="687"/>
    </contour>
    <contour>
      <point x="856" y="19" type="qcurve" smooth="yes"/>
      <point x="858" y="108" type="line"/>
      <point x="858" y="590" type="line"/>
      <point x="855" y="692" type="line" smooth="yes"/>
      <point x="855" y="705"/>
      <point x="887" y="705"/>
      <point x="918" y="688"/>
      <point x="918" y="675" type="qcurve" smooth="yes"/>
      <point x="916" y="586" type="line"/>
      <point x="916" y="107" type="line"/>
      <point x="919" y="1" type="line" smooth="yes"/>
      <point x="919" y="-9"/>
      <point x="888" y="-9"/>
      <point x="856" y="6"/>
    </contour>
    <contour>
      <point x="687" y="19" type="qcurve" smooth="yes"/>
      <point x="689" y="108" type="line"/>
      <point x="689" y="590" type="line"/>
      <point x="686" y="692" type="line" smooth="yes"/>
      <point x="686" y="705"/>
      <point x="718" y="705"/>
      <point x="749" y="688"/>
      <point x="749" y="675" type="qcurve" smooth="yes"/>
      <point x="747" y="586" type="line"/>
      <point x="747" y="107" type="line"/>
      <point x="750" y="1" type="line" smooth="yes"/>
      <point x="750" y="-9"/>
      <point x="719" y="-9"/>
      <point x="687" y="6"/>
    </contour>
    <contour>
      <point x="521" y="19" type="qcurve" smooth="yes"/>
      <point x="523" y="108" type="line"/>
      <point x="523" y="590" type="line"/>
      <point x="520" y="692" type="line" smooth="yes"/>
      <point x="520" y="705"/>
      <point x="552" y="705"/>
      <point x="583" y="688"/>
      <point x="583" y="675" type="qcurve" smooth="yes"/>
      <point x="581" y="586" type="line"/>
      <point x="581" y="107" type="line"/>
      <point x="584" y="1" type="line" smooth="yes"/>
      <point x="584" y="-9"/>
      <point x="553" y="-9"/>
      <point x="521" y="6"/>
    </contour>
  </outline>
</glyph>
<glyph name="uni2169" format="1">
  <advance width="1000" height="1000"/>
  <unicode hex="2169"/>
  <outline>
    <contour>
      <point x="498" y="319" type="qcurve"/>
      <point x="475" y="285"/>
      <point x="412" y="193"/>
      <point x="348" y="98"/>
      <point x="296" y="21"/>
      <point x="284" y="1" type="qcurve" smooth="yes"/>
      <point x="276" y="-10"/>
      <point x="238" y="-10"/>
      <point x="209" y="1"/>
      <point x="209" y="11" type="qcurve" smooth="yes"/>
      <point x="209" y="17"/>
      <point x="222" y="31" type="qcurve" smooth="yes"/>
      <point x="265" y="77"/>
      <point x="297" y="126" type="qcurve" smooth="yes"/>
      <point x="335" y="182"/>
      <point x="465" y="369" type="qcurve"/>
      <point x="300" y="617"/>
      <point x="268" y="652" type="qcurve" smooth="yes"/>
      <point x="259" y="662"/>
      <point x="246" y="676"/>
      <point x="246" y="682" type="qcurve" smooth="yes"/>
      <point x="246" y="692"/>
      <point x="278" y="706"/>
      <point x="310" y="706"/>
      <point x="320" y="687"/>
      <point x="351" y="637"/>
      <point x="393" y="573"/>
      <point x="437" y="506"/>
      <point x="475" y="448"/>
      <point x="500" y="412"/>
      <point x="500" y="411" type="qcurve"/>
      <point x="640" y="606"/>
      <point x="698" y="693" type="qcurve" smooth="yes"/>
      <point x="703" y="699"/>
      <point x="727" y="699"/>
      <point x="761" y="680"/>
      <point x="761" y="664"/>
      <point x="757" y="660" type="qcurve" smooth="yes"/>
      <point x="722" y="625"/>
      <point x="611" y="473"/>
      <point x="533" y="362" type="qcurve"/>
      <point x="668" y="159"/>
      <point x="719" y="98" type="qcurve" smooth="yes"/>
      <point x="747" y="65"/>
      <point x="786" y="26" type="qcurve" smooth="yes"/>
      <point x="790" y="22"/>
      <point x="790" y="18" type="qcurve" smooth="yes"/>
      <point x="790" y="8"/>
      <point x="757" y="-9"/>
      <point x="726" y="-9"/>
      <point x="718" y="0" type="qcurve" smooth="yes"/>
      <point x="621" y="131"/>
      <point x="502" y="313"/>
    </contour>
  </outline>
</glyph>
<glyph name="uni2172" format="1">
  <advance width="1000" height="1000"/>
  <unicode hex="2172"/>
  <outline>
    <contour>
      <point x="674" y="655" type="qcurve" smooth="yes"/>
      <point x="674" y="696"/>
      <point x="712" y="696" type="qcurve" smooth="yes"/>
      <point x="729" y="696"/>
      <point x="759" y="661"/>
      <point x="759" y="641" type="qcurve" smooth="yes"/>
      <point x="759" y="602"/>
      <point x="722" y="602" type="qcurve" smooth="yes"/>
      <point x="703" y="602"/>
      <point x="674" y="637"/>
    </contour>
    <contour>
      <point x="457" y="655" type="qcurve" smooth="yes"/>
      <point x="457" y="696"/>
      <point x="495" y="696" type="qcurve" smooth="yes"/>
      <point x="512" y="696"/>
      <point x="542" y="661"/>
      <point x="542" y="641" type="qcurve" smooth="yes"/>
      <point x="542" y="602"/>
      <point x="505" y="602" type="qcurve" smooth="yes"/>
      <point x="486" y="602"/>
      <point x="457" y="637"/>
    </contour>
    <contour>
      <point x="241" y="655" type="qcurve" smooth="yes"/>
      <point x="241" y="696"/>
      <point x="279" y="696" type="qcurve" smooth="yes"/>
      <point x="296" y="696"/>
      <point x="326" y="661"/>
      <point x="326" y="641" type="qcurve" smooth="yes"/>
      <point x="326" y="602"/>
      <point x="289" y="602" type="qcurve" smooth="yes"/>
      <point x="270" y="602"/>
      <point x="241" y="637"/>
    </contour>
    <contour>
      <point x="688" y="17" type="qcurve" smooth="yes"/>
      <point x="690" y="105" type="line"/>
      <point x="690" y="368" type="line"/>
      <point x="687" y="475" type="line" smooth="yes"/>
      <point x="687" y="483"/>
      <point x="716" y="483"/>
      <point x="747" y="468"/>
      <point x="747" y="457" type="qcurve" smooth="yes"/>
      <point x="745" y="368" type="line"/>
      <point x="745" y="105" type="line"/>
      <point x="748" y="-1" type="line" smooth="yes"/>
      <point x="748" y="-9"/>
      <point x="720" y="-9"/>
      <point x="688" y="6"/>
    </contour>
    <contour>
      <point x="471" y="17" type="qcurve" smooth="yes"/>
      <point x="473" y="105" type="line"/>
      <point x="473" y="368" type="line"/>
      <point x="470" y="475" type="line" smooth="yes"/>
      <point x="470" y="483"/>
      <point x="499" y="483"/>
      <point x="530" y="468"/>
      <point x="530" y="457" type="qcurve" smooth="yes"/>
      <point x="528" y="368" type="line"/>
      <point x="528" y="105" type="line"/>
      <point x="531" y="-1" type="line" smooth="yes"/>
      <point x="531" y="-9"/>
      <point x="503" y="-9"/>
      <point x="471" y="6"/>
    </contour>
    <contour>
      <point x="255" y="17" type="qcurve" smooth="yes"/>
      <point x="257" y="105" type="line"/>
      <point x="257" y="368" type="line"/>
      <point x="254" y="475" type="line" smooth="yes"/>
      <point x="254" y="483"/>
      <point x="283" y="483"/>
      <point x="314" y="468"/>
      <point x="314" y="457" type="qcurve" smooth="yes"/>
      <point x="312" y="368" type="line"/>
      <point x="312" y="105" type="line"/>
      <point x="315" y="-1" type="line" smooth="yes"/>
      <point x="315" y="-9"/>
      <point x="287" y="-9"/>
      <point x="255" y="6"/>
    </contour>
  </outline>
</glyph>
<glyph name="uni2176" format="1">
  <advance width="1000" height="1000"/>
  <unicode hex="2176"/>
  <outline>
    <contour>
      <point x="774" y="655" type="qcurve" smooth="yes"/>
      <point x="774" y="696"/>
      <point x="812" y="696" type="qcurve" smooth="yes"/>
      <point x="829" y="696"/>
      <point x="859" y="661"/>
      <point x="859" y="641" type="qcurve" smooth="yes"/>
      <point x="859" y="602"/>
      <point x="822" y="602" type="qcurve" smooth="yes"/>
      <point x="803" y="602"/>
      <point x="774" y="637"/>
    </contour>
    <contour>
      <point x="598" y="655" type="qcurve" smooth="yes"/>
      <point x="598" y="696"/>
      <point x="636" y="696" type="qcurve" smooth="yes"/>
      <point x="653" y="696"/>
      <point x="683" y="661"/>
      <point x="683" y="641" type="qcurve" smooth="yes"/>
      <point x="683" y="602"/>
      <point x="646" y="602" type="qcurve" smooth="yes"/>
      <point x="627" y="602"/>
      <point x="598" y="637"/>
    </contour>
    <contour>
      <point x="135" y="465" type="qcurve" smooth="yes"/>
      <point x="135" y="480"/>
      <point x="167" y="480" type="qcurve" smooth="yes"/>
      <point x="194" y="480"/>
      <point x="198" y="466" type="qcurve" smooth="yes"/>
      <point x="201" y="456"/>
      <point x="210" y="425"/>
      <point x="214" y="414" type="qcurve" smooth="yes"/>
      <point x="330" y="67" type="line"/>
      <point x="459" y="405" type="line" smooth="yes"/>
      <point x="471" y="437"/>
      <point x="481" y="475" type="qcurve" smooth="yes"/>
      <point x="484" y="484"/>
      <point x="498" y="484" type="qcurve" smooth="yes"/>
      <point x="512" y="484"/>
      <point x="543" y="468"/>
      <point x="543" y="458" type="qcurve" smooth="yes"/>
      <point x="543" y="455"/>
      <point x="539" y="448" type="qcurve" smooth="yes"/>
      <point x="519" y="409"/>
      <point x="511" y="388" type="qcurve" smooth="yes"/>
      <point x="384" y="66" type="line" smooth="yes"/>
      <point x="375" y="45"/>
      <point x="362" y="6" type="qcurve" smooth="yes"/>
      <point x="357" y="-16"/>
      <point x="339" y="-16" type="qcurve" smooth="yes"/>
      <point x="324" y="-16"/>
      <point x="304" y="1" type="qcurve" smooth="yes"/>
      <point x="297" y="9"/>
      <point x="291" y="27"/>
      <point x="283" y="47" type="qcurve" smooth="yes"/>
      <point x="161" y="400" type="line" smooth="yes"/>
      <point x="151" y="427"/>
      <point x="135" y="461"/>
    </contour>
    <contour>
      <point x="788" y="17" type="qcurve" smooth="yes"/>
      <point x="790" y="105" type="line"/>
      <point x="790" y="368" type="line"/>
      <point x="787" y="475" type="line" smooth="yes"/>
      <point x="787" y="483"/>
      <point x="816" y="483"/>
      <point x="847" y="468"/>
      <point x="847" y="457" type="qcurve" smooth="yes"/>
      <point x="845" y="368" type="line"/>
      <point x="845" y="105" type="line"/>
      <point x="848" y="-1" type="line" smooth="yes"/>
      <point x="848" y="-9"/>
      <point x="820" y="-9"/>
      <point x="788" y="6"/>
    </contour>
    <contour>
      <point x="612" y="17" type="qcurve" smooth="yes"/>
      <point x="614" y="105" type="line"/>
      <point x="614" y="368" type="line"/>
      <point x="611" y="475" type="line" smooth="yes"/>
      <point x="611" y="483"/>
      <point x="640" y="483"/>
      <point x="671" y="468"/>
      <point x="671" y="457" type="qcurve" smooth="yes"/>
      <point x="669" y="368" type="line"/>
      <point x="669" y="105" type="line"/>
      <point x="672" y="-1" type="line" smooth="yes"/>
      <point x="672" y="-9"/>
      <point x="644" y="-9"/>
      <point x="612" y="6"/>
    </contour>
  </outline>
</glyph>
<glyph name="arrowup" format="1">
  <advance width="1000" height="1000"/>
  <unicode hex="2191"/>
  <outline>
    <contour>
      <point x="523" y="-56" type="line" smooth="yes"/>
      <point x="523" y="-74"/>
      <point x="500" y="-74" type="qcurve" smooth="yes"/>
      <point x="492" y="-74"/>
      <point x="477" y="-65"/>
      <point x="477" y="-56" type="qcurve" smooth="yes"/>
      <point x="477" y="708" type="line"/>
      <point x="436" y="630"/>
      <point x="377" y="554" type="qcurve" smooth="yes"/>
      <point x="373" y="548"/>
      <point x="354" y="548"/>
      <point x="335" y="562"/>
      <point x="335" y="574"/>
      <point x="346" y="589"/>
      <point x="367" y="614"/>
      <point x="398" y="658"/>
      <point x="458" y="746"/>
      <point x="480" y="795" type="qcurve" smooth="yes"/>
      <point x="485" y="806"/>
      <point x="500" y="806" type="qcurve" smooth="yes"/>
      <point x="515" y="806"/>
      <point x="520" y="795" type="qcurve" smooth="yes"/>
      <point x="542" y="746"/>
      <point x="602" y="658"/>
      <point x="633" y="614"/>
      <point x="644" y="602" type="qcurve" smooth="yes"/>
      <point x="665" y="576"/>
      <point x="665" y="562"/>
      <point x="646" y="548"/>
      <point x="628" y="548"/>
      <point x="623" y="554" type="qcurve" smooth="yes"/>
      <point x="564" y="630"/>
      <point x="523" y="708" type="qcurve"/>
    </contour>
  </outline>
</glyph>
<glyph name="arrowboth" format="1">
  <advance width="1000" height="1000"/>
  <unicode hex="2194"/>
  <outline>
    <contour>
      <point x="175" y="345" type="line"/>
      <point x="234" y="314"/>
      <point x="319" y="254"/>
      <point x="334" y="241"/>
      <point x="334" y="222"/>
      <point x="320" y="203"/>
      <point x="309" y="203"/>
      <point x="294" y="214"/>
      <point x="270" y="235"/>
      <point x="225" y="266"/>
      <point x="138" y="327"/>
      <point x="88" y="349" type="qcurve" smooth="yes"/>
      <point x="77" y="354"/>
      <point x="77" y="383"/>
      <point x="88" y="388" type="qcurve" smooth="yes"/>
      <point x="191" y="435"/>
      <point x="304" y="531" type="qcurve" smooth="yes"/>
      <point x="307" y="534"/>
      <point x="320" y="534"/>
      <point x="334" y="515"/>
      <point x="334" y="496"/>
      <point x="319" y="484"/>
      <point x="295" y="466" type="qcurve" smooth="yes"/>
      <point x="235" y="423"/>
      <point x="175" y="391" type="qcurve"/>
      <point x="826" y="391" type="line"/>
      <point x="756" y="430"/>
      <point x="683" y="484"/>
      <point x="672" y="492" type="qcurve" smooth="yes"/>
      <point x="667" y="496"/>
      <point x="667" y="515"/>
      <point x="681" y="534"/>
      <point x="694" y="534"/>
      <point x="714" y="517"/>
      <point x="748" y="490" type="qcurve" smooth="yes"/>
      <point x="833" y="425"/>
      <point x="913" y="388" type="qcurve" smooth="yes"/>
      <point x="924" y="383"/>
      <point x="924" y="354"/>
      <point x="913" y="349" type="qcurve" smooth="yes"/>
      <point x="864" y="327"/>
      <point x="777" y="266"/>
      <point x="732" y="235"/>
      <point x="720" y="224" type="qcurve" smooth="yes"/>
      <point x="695" y="203"/>
      <point x="681" y="203"/>
      <point x="667" y="222"/>
      <point x="667" y="241"/>
      <point x="683" y="254"/>
      <point x="706" y="270" type="qcurve" smooth="yes"/>
      <point x="764" y="312"/>
      <point x="826" y="345" type="qcurve"/>
    </contour>
  </outline>
</glyph>
<glyph name="uni2196" format="1">
  <advance width="1000" height="1000"/>
  <unicode hex="2196"/>
  <outline>
    <contour>
      <point x="255" y="582" type="line"/>
      <point x="273" y="520"/>
      <point x="292" y="416"/>
      <point x="293" y="402" type="qcurve" smooth="yes"/>
      <point x="293" y="401" type="line" smooth="yes"/>
      <point x="293" y="391"/>
      <point x="275" y="380"/>
      <point x="250" y="380"/>
      <point x="248" y="392" type="qcurve" smooth="yes"/>
      <point x="231" y="547"/>
      <point x="196" y="646" type="qcurve" smooth="yes"/>
      <point x="195" y="648"/>
      <point x="195" y="660"/>
      <point x="208" y="674"/>
      <point x="221" y="674"/>
      <point x="247" y="664" type="qcurve" smooth="yes"/>
      <point x="308" y="640"/>
      <point x="477" y="621" type="qcurve" smooth="yes"/>
      <point x="489" y="620"/>
      <point x="489" y="595"/>
      <point x="477" y="576"/>
      <point x="468" y="576" type="qcurve" smooth="yes"/>
      <point x="467" y="576" type="line"/>
      <point x="359" y="593"/>
      <point x="287" y="614" type="qcurve"/>
      <point x="835" y="68" type="line" smooth="yes"/>
      <point x="840" y="63"/>
      <point x="840" y="45"/>
      <point x="824" y="29"/>
      <point x="809" y="29"/>
      <point x="805" y="33" type="qcurve" smooth="yes"/>
    </contour>
  </outline>
</glyph>
<glyph name="uni2197" format="1">
  <advance width="1000" height="1000"/>
  <unicode hex="2197"/>
  <outline>
    <contour>
      <point x="711" y="616" type="line"/>
      <point x="631" y="592"/>
      <point x="531" y="578" type="qcurve"/>
      <point x="530" y="578" type="line" smooth="yes"/>
      <point x="521" y="578"/>
      <point x="509" y="597"/>
      <point x="509" y="622"/>
      <point x="521" y="623" type="qcurve" smooth="yes"/>
      <point x="683" y="642"/>
      <point x="775" y="675" type="qcurve" smooth="yes"/>
      <point x="777" y="676"/>
      <point x="789" y="676"/>
      <point x="803" y="663"/>
      <point x="803" y="650"/>
      <point x="793" y="624" type="qcurve" smooth="yes"/>
      <point x="770" y="565"/>
      <point x="750" y="394" type="qcurve" smooth="yes"/>
      <point x="749" y="382"/>
      <point x="724" y="382"/>
      <point x="705" y="393"/>
      <point x="705" y="403" type="qcurve" smooth="yes"/>
      <point x="705" y="404" type="line"/>
      <point x="719" y="504"/>
      <point x="743" y="584" type="qcurve"/>
      <point x="197" y="36" type="line" smooth="yes"/>
      <point x="192" y="31"/>
      <point x="174" y="31"/>
      <point x="158" y="47"/>
      <point x="158" y="62"/>
      <point x="162" y="66" type="qcurve" smooth="yes"/>
    </contour>
  </outline>
</glyph>
<glyph name="uni2198" format="1">
  <advance width="1000" height="1000"/>
  <unicode hex="2198"/>
  <outline>
    <contour>
      <point x="748" y="154" type="line"/>
      <point x="727" y="226"/>
      <point x="710" y="334" type="qcurve"/>
      <point x="710" y="335" type="line" smooth="yes"/>
      <point x="710" y="345"/>
      <point x="729" y="356"/>
      <point x="754" y="356"/>
      <point x="755" y="344" type="qcurve" smooth="yes"/>
      <point x="774" y="182"/>
      <point x="807" y="90" type="qcurve" smooth="yes"/>
      <point x="808" y="88"/>
      <point x="808" y="76"/>
      <point x="795" y="62"/>
      <point x="782" y="62"/>
      <point x="780" y="63" type="qcurve" smooth="yes"/>
      <point x="702" y="95"/>
      <point x="526" y="115" type="qcurve" smooth="yes"/>
      <point x="514" y="116"/>
      <point x="514" y="141"/>
      <point x="526" y="160"/>
      <point x="535" y="160" type="qcurve" smooth="yes"/>
      <point x="536" y="160" type="line" smooth="yes"/>
      <point x="565" y="158"/>
      <point x="679" y="133"/>
      <point x="716" y="122" type="qcurve"/>
      <point x="168" y="668" type="line" smooth="yes"/>
      <point x="163" y="673"/>
      <point x="163" y="691"/>
      <point x="179" y="707"/>
      <point x="194" y="707"/>
      <point x="198" y="703" type="qcurve" smooth="yes"/>
    </contour>
  </outline>
</glyph>
<glyph name="uni21B7" format="1">
  <advance width="1000" height="1000"/>
  <unicode hex="21B7"/>
  <outline>
    <contour>
      <point x="778" y="370" type="line" smooth="yes"/>
      <point x="778" y="507"/>
      <point x="587" y="698"/>
      <point x="313" y="698"/>
      <point x="124" y="509"/>
      <point x="122" y="375" type="qcurve"/>
      <point x="77" y="375" type="line"/>
      <point x="78" y="476"/>
      <point x="178" y="642"/>
      <point x="347" y="743"/>
      <point x="554" y="743"/>
      <point x="722" y="642"/>
      <point x="823" y="474"/>
      <point x="823" y="370" type="qcurve" smooth="yes"/>
      <point x="823" y="291" type="line"/>
      <point x="832" y="308" type="line" smooth="yes"/>
      <point x="880" y="392"/>
      <point x="916" y="434" type="qcurve" smooth="yes"/>
      <point x="920" y="439"/>
      <point x="936" y="439"/>
      <point x="956" y="424"/>
      <point x="956" y="419" type="qcurve" smooth="yes"/>
      <point x="956" y="410"/>
      <point x="927" y="378"/>
      <point x="847" y="262"/>
      <point x="820" y="206" type="qcurve" smooth="yes"/>
      <point x="816" y="196"/>
      <point x="786" y="196"/>
      <point x="782" y="206" type="qcurve" smooth="yes"/>
      <point x="760" y="252"/>
      <point x="718" y="315" type="qcurve" smooth="yes"/>
      <point x="672" y="381"/>
      <point x="645" y="410"/>
      <point x="645" y="424"/>
      <point x="665" y="439"/>
      <point x="681" y="439"/>
      <point x="685" y="434" type="qcurve" smooth="yes"/>
      <point x="721" y="392"/>
      <point x="769" y="308" type="qcurve" smooth="yes"/>
      <point x="778" y="291" type="line"/>
    </contour>
  </outline>
</glyph>
<glyph name="uni21CB" format="1">
  <advance width="1000" height="1000"/>
  <unicode hex="21CB"/>
  <outline>
    <contour>
      <point x="82" y="533" type="line" smooth="yes"/>
      <point x="58" y="533"/>
      <point x="58" y="551" type="qcurve" smooth="yes"/>
      <point x="58" y="566"/>
      <point x="75" y="575" type="qcurve" smooth="yes"/>
      <point x="167" y="622"/>
      <point x="249" y="684" type="qcurve" smooth="yes"/>
      <point x="257" y="689"/>
      <point x="269" y="700" type="qcurve" smooth="yes"/>
      <point x="294" y="721"/>
      <point x="308" y="721"/>
      <point x="325" y="701"/>
      <point x="325" y="683"/>
      <point x="297" y="659"/>
      <point x="253" y="630"/>
      <point x="230" y="616" type="qcurve" smooth="yes"/>
      <point x="178" y="585"/>
      <point x="166" y="579" type="qcurve"/>
      <point x="926" y="579" type="line" smooth="yes"/>
      <point x="936" y="579"/>
      <point x="946" y="564"/>
      <point x="946" y="547"/>
      <point x="937" y="533"/>
      <point x="929" y="533" type="qcurve" smooth="yes"/>
    </contour>
    <contour>
      <point x="72" y="180" type="line" smooth="yes"/>
      <point x="62" y="180"/>
      <point x="52" y="195"/>
      <point x="52" y="212"/>
      <point x="61" y="226"/>
      <point x="69" y="226" type="qcurve" smooth="yes"/>
      <point x="916" y="226" type="line" smooth="yes"/>
      <point x="940" y="226"/>
      <point x="940" y="208" type="qcurve" smooth="yes"/>
      <point x="940" y="193"/>
      <point x="923" y="184" type="qcurve" smooth="yes"/>
      <point x="838" y="141"/>
      <point x="749" y="75" type="qcurve" smooth="yes"/>
      <point x="742" y="70"/>
      <point x="730" y="60" type="qcurve" smooth="yes"/>
      <point x="705" y="38"/>
      <point x="690" y="38"/>
      <point x="673" y="59"/>
      <point x="673" y="76"/>
      <point x="701" y="100"/>
      <point x="745" y="129"/>
      <point x="768" y="142" type="qcurve" smooth="yes"/>
      <point x="820" y="174"/>
      <point x="832" y="180" type="qcurve"/>
    </contour>
  </outline>
</glyph>
<glyph name="arrowdblleft" format="1">
  <advance width="1000" height="1000"/>
  <unicode hex="21D0"/>
  <outline>
    <contour>
      <point x="944" y="224" type="qcurve" smooth="yes"/>
      <point x="944" y="198"/>
      <point x="926" y="198" type="qcurve" smooth="yes"/>
      <point x="278" y="198" type="line"/>
      <point x="397" y="79" type="line" smooth="yes"/>
      <point x="403" y="73"/>
      <point x="403" y="55"/>
      <point x="386" y="39"/>
      <point x="367" y="39"/>
      <point x="361" y="45" type="qcurve" smooth="yes"/>
      <point x="54" y="351" type="line" smooth="yes"/>
      <point x="48" y="357"/>
      <point x="48" y="376"/>
      <point x="55" y="383" type="qcurve" smooth="yes"/>
      <point x="362" y="690" type="line" smooth="yes"/>
      <point x="368" y="696"/>
      <point x="386" y="696"/>
      <point x="403" y="680"/>
      <point x="403" y="662"/>
      <point x="397" y="656" type="qcurve" smooth="yes"/>
      <point x="278" y="536" type="line"/>
      <point x="926" y="536" type="line" smooth="yes"/>
      <point x="944" y="536"/>
      <point x="944" y="511" type="qcurve" smooth="yes"/>
      <point x="944" y="485"/>
      <point x="926" y="485" type="qcurve" smooth="yes"/>
      <point x="225" y="485" type="line"/>
      <point x="106" y="368" type="line"/>
      <point x="225" y="249" type="line"/>
      <point x="926" y="249" type="line" smooth="yes"/>
      <point x="944" y="249"/>
    </contour>
  </outline>
</glyph>
<glyph name="arrowdblright" format="1">
  <advance width="1000" height="1000"/>
  <unicode hex="21D2"/>
  <outline>
    <contour>
      <point x="76" y="511" type="qcurve" smooth="yes"/>
      <point x="76" y="536"/>
      <point x="94" y="536" type="qcurve" smooth="yes"/>
      <point x="702" y="536" type="line"/>
      <point x="583" y="656" type="line" smooth="yes"/>
      <point x="577" y="662"/>
      <point x="577" y="680"/>
      <point x="594" y="696"/>
      <point x="612" y="696"/>
      <point x="618" y="690" type="qcurve" smooth="yes"/>
      <point x="925" y="383" type="line" smooth="yes"/>
      <point x="932" y="376"/>
      <point x="932" y="357"/>
      <point x="926" y="351" type="qcurve" smooth="yes"/>
      <point x="619" y="45" type="line" smooth="yes"/>
      <point x="613" y="39"/>
      <point x="594" y="39"/>
      <point x="577" y="55"/>
      <point x="577" y="73"/>
      <point x="583" y="79" type="qcurve" smooth="yes"/>
      <point x="702" y="198" type="line"/>
      <point x="94" y="198" type="line" smooth="yes"/>
      <point x="76" y="198"/>
      <point x="76" y="224" type="qcurve" smooth="yes"/>
      <point x="76" y="249"/>
      <point x="94" y="249" type="qcurve" smooth="yes"/>
      <point x="755" y="249" type="line"/>
      <point x="874" y="368" type="line"/>
      <point x="755" y="485" type="line"/>
      <point x="94" y="485" type="line" smooth="yes"/>
      <point x="76" y="485"/>
    </contour>
  </outline>
</glyph>
<glyph name="existential" format="1">
  <advance width="1000" height="1000"/>
  <unicode hex="2203"/>
  <outline>
    <contour>
      <point x="249" y="37" type="line" smooth="yes"/>
      <point x="241" y="37"/>
      <point x="232" y="53"/>
      <point x="232" y="63" type="qcurve" smooth="yes"/>
      <point x="232" y="73"/>
      <point x="241" y="89"/>
      <point x="249" y="89" type="qcurve" smooth="yes"/>
      <point x="724" y="89" type="line"/>
      <point x="724" y="342" type="line"/>
      <point x="249" y="342" type="line" smooth="yes"/>
      <point x="241" y="342"/>
      <point x="232" y="358"/>
      <point x="232" y="368" type="qcurve" smooth="yes"/>
      <point x="232" y="378"/>
      <point x="241" y="394"/>
      <point x="249" y="394" type="qcurve" smooth="yes"/>
      <point x="724" y="394" type="line"/>
      <point x="724" y="648" type="line"/>
      <point x="249" y="648" type="line" smooth="yes"/>
      <point x="241" y="648"/>
      <point x="232" y="664"/>
      <point x="232" y="674" type="qcurve" smooth="yes"/>
      <point x="232" y="684"/>
      <point x="241" y="700"/>
      <point x="249" y="700" type="qcurve" smooth="yes"/>
      <point x="731" y="700" type="line" smooth="yes"/>
      <point x="751" y="700"/>
      <point x="776" y="678"/>
      <point x="776" y="655" type="qcurve" smooth="yes"/>
      <point x="776" y="82" type="line" smooth="yes"/>
      <point x="776" y="61"/>
      <point x="751" y="37"/>
      <point x="731" y="37" type="qcurve" smooth="yes"/>
    </contour>
  </outline>
</glyph>
<glyph name="Delta" format="1">
  <advance width="1000" height="1000"/>
  <unicode hex="2206"/>
  <outline>
    <contour>
      <point x="490" y="585" type="line"/>
      <point x="246" y="61" type="line"/>
      <point x="728" y="61" type="line"/>
    </contour>
    <contour>
      <point x="805" y="48" type="line" smooth="yes"/>
      <point x="810" y="37"/>
      <point x="810" y="22"/>
      <point x="796" y="11"/>
      <point x="784" y="11" type="qcurve" smooth="yes"/>
      <point x="224" y="11" type="line" smooth="yes"/>
      <point x="212" y="11"/>
      <point x="198" y="22"/>
      <point x="198" y="37"/>
      <point x="203" y="48" type="qcurve" smooth="yes"/>
      <point x="493" y="670" type="line" smooth="yes"/>
      <point x="498" y="682"/>
      <point x="504" y="682" type="qcurve" smooth="yes"/>
      <point x="518" y="682"/>
      <point x="522" y="671" type="qcurve" smooth="yes"/>
    </contour>
  </outline>
</glyph>
<glyph name="uni220A" format="1">
  <advance width="1000" height="1000"/>
  <unicode hex="220A"/>
  <outline>
    <contour>
      <point x="599" y="230" type="line" smooth="yes"/>
      <point x="542" y="233"/>
      <point x="490" y="233" type="qcurve" smooth="yes"/>
      <point x="344" y="233" type="line"/>
      <point x="349" y="164"/>
      <point x="405" y="84"/>
      <point x="487" y="49"/>
      <point x="534" y="49" type="qcurve" smooth="yes"/>
      <point x="638" y="49"/>
      <point x="689" y="133" type="qcurve" smooth="yes"/>
      <point x="690" y="134"/>
      <point x="700" y="134"/>
      <point x="715" y="126"/>
      <point x="715" y="110"/>
      <point x="690" y="71"/>
      <point x="666" y="48" type="qcurve" smooth="yes"/>
      <point x="606" y="-6"/>
      <point x="453" y="-6"/>
      <point x="340" y="60"/>
      <point x="278" y="177"/>
      <point x="278" y="253" type="qcurve" smooth="yes"/>
      <point x="278" y="255" type="line" smooth="yes"/>
      <point x="278" y="332"/>
      <point x="339" y="450"/>
      <point x="451" y="516"/>
      <point x="527" y="516" type="qcurve" smooth="yes"/>
      <point x="613" y="516"/>
      <point x="670" y="458" type="qcurve" smooth="yes"/>
      <point x="692" y="435"/>
      <point x="713" y="396"/>
      <point x="713" y="380"/>
      <point x="696" y="372"/>
      <point x="687" y="372"/>
      <point x="681" y="375" type="qcurve" smooth="yes"/>
      <point x="653" y="422"/>
      <point x="579" y="466"/>
      <point x="487" y="466"/>
      <point x="406" y="431"/>
      <point x="349" y="352"/>
      <point x="344" y="286" type="qcurve"/>
      <point x="520" y="286" type="line" smooth="yes"/>
      <point x="530" y="286"/>
      <point x="620" y="292" type="qcurve" smooth="yes"/>
      <point x="633" y="294"/>
      <point x="633" y="263"/>
      <point x="614" y="230"/>
      <point x="600" y="230" type="qcurve" smooth="yes"/>
    </contour>
  </outline>
</glyph>
<glyph name="uni2213" format="1">
  <advance width="1000" height="1000"/>
  <unicode hex="2213"/>
  <outline>
    <contour>
      <point x="735" y="668" type="line" smooth="yes"/>
      <point x="748" y="668"/>
      <point x="811" y="671" type="qcurve" smooth="yes"/>
      <point x="812" y="671" type="line" smooth="yes"/>
      <point x="821" y="671"/>
      <point x="832" y="651"/>
      <point x="832" y="640" type="qcurve" smooth="yes"/>
      <point x="832" y="619"/>
      <point x="817" y="619" type="qcurve" smooth="yes"/>
      <point x="734" y="620" type="line"/>
      <point x="267" y="614" type="line" smooth="yes"/>
      <point x="204" y="614"/>
      <point x="186" y="611" type="qcurve" smooth="yes"/>
      <point x="184" y="611" type="line" smooth="yes"/>
      <point x="176" y="611"/>
      <point x="166" y="632"/>
      <point x="166" y="643" type="qcurve" smooth="yes"/>
      <point x="166" y="664"/>
      <point x="181" y="664" type="qcurve" smooth="yes"/>
      <point x="211" y="662"/>
      <point x="268" y="662" type="qcurve" smooth="yes"/>
    </contour>
    <contour>
      <point x="735" y="304" type="line" smooth="yes"/>
      <point x="748" y="304"/>
      <point x="811" y="307" type="qcurve" smooth="yes"/>
      <point x="812" y="307" type="line" smooth="yes"/>
      <point x="821" y="307"/>
      <point x="832" y="287"/>
      <point x="832" y="276" type="qcurve" smooth="yes"/>
      <point x="832" y="255"/>
      <point x="817" y="255" type="qcurve" smooth="yes"/>
      <point x="734" y="256" type="line"/>
      <point x="524" y="253" type="line"/>
      <point x="524" y="121" type="line"/>
      <point x="525" y="38" type="line" smooth="yes"/>
      <point x="525" y="31"/>
      <point x="512" y="23"/>
      <point x="493" y="23"/>
      <point x="473" y="34"/>
      <point x="473" y="43" type="qcurve" smooth="yes"/>
      <point x="473" y="44" type="line" smooth="yes"/>
      <point x="476" y="76"/>
      <point x="476" y="120" type="qcurve" smooth="yes"/>
      <point x="476" y="252" type="line"/>
      <point x="267" y="250" type="line" smooth="yes"/>
      <point x="204" y="250"/>
      <point x="186" y="247" type="qcurve" smooth="yes"/>
      <point x="184" y="247" type="line" smooth="yes"/>
      <point x="176" y="247"/>
      <point x="166" y="268"/>
      <point x="166" y="279" type="qcurve" smooth="yes"/>
      <point x="166" y="300"/>
      <point x="181" y="300" type="qcurve" smooth="yes"/>
      <point x="211" y="298"/>
      <point x="268" y="298" type="qcurve" smooth="yes"/>
      <point x="476" y="301" type="line"/>
      <point x="476" y="419" type="line" smooth="yes"/>
      <point x="476" y="476"/>
      <point x="474" y="506" type="qcurve" smooth="yes"/>
      <point x="474" y="521"/>
      <point x="505" y="521"/>
      <point x="527" y="511"/>
      <point x="527" y="503" type="qcurve" smooth="yes"/>
      <point x="527" y="501" type="line" smooth="yes"/>
      <point x="524" y="465"/>
      <point x="524" y="420" type="qcurve" smooth="yes"/>
      <point x="524" y="301" type="line"/>
    </contour>
  </outline>
</glyph>
<glyph name="infinity" format="1">
  <advance width="1000" height="1000"/>
  <unicode hex="221E"/>
  <outline>
    <contour>
      <point x="498" y="311" type="qcurve"/>
      <point x="450" y="229"/>
      <point x="374" y="193" type="qcurve" smooth="yes"/>
      <point x="332" y="173"/>
      <point x="280" y="173" type="qcurve" smooth="yes"/>
      <point x="196" y="173"/>
      <point x="97" y="265"/>
      <point x="97" y="347" type="qcurve" smooth="yes"/>
      <point x="97" y="438"/>
      <point x="164" y="509" type="qcurve" smooth="yes"/>
      <point x="233" y="581"/>
      <point x="321" y="581" type="qcurve" smooth="yes"/>
      <point x="416" y="581"/>
      <point x="463" y="512" type="qcurve" smooth="yes"/>
      <point x="485" y="479"/>
      <point x="500" y="437" type="qcurve"/>
      <point x="549" y="522"/>
      <point x="626" y="560" type="qcurve" smooth="yes"/>
      <point x="668" y="581"/>
      <point x="719" y="581" type="qcurve" smooth="yes"/>
      <point x="802" y="581"/>
      <point x="903" y="488"/>
      <point x="903" y="407" type="qcurve" smooth="yes"/>
      <point x="903" y="317"/>
      <point x="838" y="246" type="qcurve" smooth="yes"/>
      <point x="772" y="173"/>
      <point x="680" y="173" type="qcurve" smooth="yes"/>
      <point x="583" y="173"/>
      <point x="532" y="244" type="qcurve" smooth="yes"/>
      <point x="510" y="275"/>
    </contour>
    <contour>
      <point x="525" y="374" type="line" smooth="yes"/>
      <point x="527" y="370"/>
      <point x="532" y="352"/>
      <point x="551" y="306"/>
      <point x="568" y="279" type="qcurve" smooth="yes"/>
      <point x="603" y="224"/>
      <point x="680" y="224" type="qcurve" smooth="yes"/>
      <point x="723" y="224"/>
      <point x="801" y="277"/>
      <point x="851" y="361"/>
      <point x="851" y="466"/>
      <point x="780" y="530"/>
      <point x="677" y="530"/>
      <point x="642" y="512" type="qcurve" smooth="yes"/>
      <point x="575" y="476"/>
      <point x="537" y="400" type="qcurve" smooth="yes"/>
    </contour>
    <contour>
      <point x="473" y="373" type="qcurve"/>
      <point x="445" y="456"/>
      <point x="378" y="530"/>
      <point x="321" y="530" type="qcurve" smooth="yes"/>
      <point x="256" y="530"/>
      <point x="202" y="470" type="qcurve" smooth="yes"/>
      <point x="149" y="412"/>
      <point x="149" y="288"/>
      <point x="218" y="224"/>
      <point x="327" y="224"/>
      <point x="397" y="263"/>
      <point x="445" y="317"/>
      <point x="471" y="364"/>
    </contour>
  </outline>
</glyph>
<glyph name="angle" format="1">
  <advance width="1000" height="1000"/>
  <unicode hex="2220"/>
  <outline>
    <contour>
      <point x="743" y="103" type="line" smooth="yes"/>
      <point x="749" y="103"/>
      <point x="833" y="107" type="qcurve"/>
      <point x="834" y="107" type="line" smooth="yes"/>
      <point x="843" y="107"/>
      <point x="854" y="86"/>
      <point x="854" y="75" type="qcurve" smooth="yes"/>
      <point x="854" y="54"/>
      <point x="839" y="54" type="qcurve" smooth="yes"/>
      <point x="817" y="55"/>
      <point x="788" y="55" type="qcurve" smooth="yes"/>
      <point x="742" y="55" type="line"/>
      <point x="208" y="49" type="line" smooth="yes"/>
      <point x="195" y="49"/>
      <point x="181" y="62"/>
      <point x="181" y="79"/>
      <point x="187" y="86" type="qcurve" smooth="yes"/>
      <point x="640" y="597" type="line" smooth="yes"/>
      <point x="697" y="663"/>
      <point x="718" y="694" type="qcurve" smooth="yes"/>
      <point x="723" y="702"/>
      <point x="742" y="702"/>
      <point x="761" y="675"/>
      <point x="761" y="654"/>
      <point x="741" y="632"/>
      <point x="702" y="592"/>
      <point x="681" y="568" type="qcurve" smooth="yes"/>
      <point x="267" y="97" type="line"/>
    </contour>
  </outline>
</glyph>
<glyph name="uni2225" format="1">
  <advance width="1000" height="1000"/>
  <unicode hex="2225"/>
  <outline>
    <contour>
      <point x="243" y="-87" type="qcurve" smooth="yes"/>
      <point x="238" y="-97"/>
      <point x="220" y="-97"/>
      <point x="208" y="-87" type="qcurve" smooth="yes"/>
      <point x="197" y="-77"/>
      <point x="197" y="-59"/>
      <point x="213" y="-28"/>
      <point x="220" y="-3" type="qcurve" smooth="yes"/>
      <point x="224" y="8" type="line"/>
      <point x="224" y="9" type="line"/>
      <point x="443" y="735"/>
      <point x="454" y="782"/>
      <point x="461" y="806"/>
      <point x="466" y="806" type="qcurve" smooth="yes"/>
      <point x="482" y="806"/>
      <point x="500" y="783" type="qcurve" smooth="yes"/>
      <point x="506" y="775"/>
      <point x="506" y="769" type="qcurve" smooth="yes"/>
      <point x="506" y="768" type="line"/>
      <point x="505" y="767" type="line"/>
      <point x="492" y="738"/>
      <point x="481" y="701" type="qcurve" smooth="yes"/>
      <point x="260" y="-28"/>
      <point x="249" y="-67"/>
    </contour>
    <contour>
      <point x="220" y="-3" type="line"/>
      <point x="220" y="-2" type="line"/>
    </contour>
    <contour>
      <point x="200" y="-53" type="qcurve" smooth="yes"/>
      <point x="199" y="-53" type="line"/>
      <point x="199" y="-53"/>
    </contour>
    <contour>
      <point x="493" y="-87" type="qcurve" smooth="yes"/>
      <point x="488" y="-97"/>
      <point x="470" y="-97"/>
      <point x="458" y="-87" type="qcurve" smooth="yes"/>
      <point x="447" y="-77"/>
      <point x="447" y="-59"/>
      <point x="466" y="-20"/>
      <point x="474" y="9" type="qcurve" smooth="yes"/>
      <point x="693" y="735"/>
      <point x="704" y="782"/>
      <point x="711" y="806"/>
      <point x="716" y="806" type="qcurve" smooth="yes"/>
      <point x="732" y="806"/>
      <point x="750" y="783" type="qcurve" smooth="yes"/>
      <point x="756" y="775"/>
      <point x="756" y="769" type="qcurve" smooth="yes"/>
      <point x="756" y="768" type="line"/>
      <point x="755" y="767" type="line"/>
      <point x="742" y="738"/>
      <point x="731" y="701" type="qcurve" smooth="yes"/>
      <point x="510" y="-28"/>
      <point x="499" y="-67"/>
    </contour>
    <contour>
      <point x="450" y="-53" type="qcurve"/>
      <point x="449" y="-53" type="line" smooth="yes"/>
      <point x="450" y="-53"/>
    </contour>
  </outline>
</glyph>
<glyph name="logicaland" format="1">
  <advance width="1000" height="1000"/>
  <unicode hex="2227"/>
  <outline>
    <contour>
      <point x="500" y="618" type="line"/>
      <point x="190" y="66" type="line" smooth="yes"/>
      <point x="184" y="57"/>
      <point x="165" y="57"/>
      <point x="146" y="73"/>
      <point x="146" y="90"/>
      <point x="149" y="94" type="qcurve" smooth="yes"/>
      <point x="483" y="686" type="line" smooth="yes"/>
      <point x="489" y="697"/>
      <point x="501" y="697" type="qcurve" smooth="yes"/>
      <point x="513" y="697"/>
      <point x="519" y="687" type="qcurve" smooth="yes"/>
      <point x="852" y="94" type="line" smooth="yes"/>
      <point x="855" y="88"/>
      <point x="855" y="73"/>
      <point x="837" y="57"/>
      <point x="816" y="57"/>
      <point x="811" y="66" type="qcurve" smooth="yes"/>
    </contour>
  </outline>
</glyph>
<glyph name="logicalor" format="1">
  <advance width="1000" height="1000"/>
  <unicode hex="2228"/>
  <outline>
    <contour>
      <point x="149" y="669" type="line" smooth="yes"/>
      <point x="146" y="674"/>
      <point x="146" y="690"/>
      <point x="165" y="706"/>
      <point x="184" y="706"/>
      <point x="190" y="697" type="qcurve" smooth="yes"/>
      <point x="500" y="145" type="line"/>
      <point x="811" y="697" type="line" smooth="yes"/>
      <point x="816" y="706"/>
      <point x="837" y="706"/>
      <point x="855" y="691"/>
      <point x="855" y="675"/>
      <point x="852" y="669" type="qcurve" smooth="yes"/>
      <point x="519" y="76" type="line" smooth="yes"/>
      <point x="513" y="63"/>
      <point x="502" y="63" type="qcurve" smooth="yes"/>
      <point x="491" y="63"/>
      <point x="483" y="77" type="qcurve" smooth="yes"/>
    </contour>
  </outline>
</glyph>
<glyph name="intersection" format="1">
  <advance width="1000" height="1000"/>
  <unicode hex="2229"/>
  <outline>
    <contour>
      <point x="731" y="455" type="line" smooth="yes"/>
      <point x="731" y="521"/>
      <point x="665" y="615"/>
      <point x="560" y="665"/>
      <point x="441" y="665"/>
      <point x="333" y="615"/>
      <point x="265" y="522"/>
      <point x="265" y="455" type="qcurve" smooth="yes"/>
      <point x="265" y="57" type="line" smooth="yes"/>
      <point x="265" y="49"/>
      <point x="249" y="40"/>
      <point x="239" y="40" type="qcurve" smooth="yes"/>
      <point x="229" y="40"/>
      <point x="213" y="49"/>
      <point x="213" y="57" type="qcurve" smooth="yes"/>
      <point x="213" y="460" type="line" smooth="yes"/>
      <point x="213" y="537"/>
      <point x="291" y="655"/>
      <point x="421" y="722"/>
      <point x="557" y="722"/>
      <point x="659" y="684"/>
      <point x="698" y="649" type="qcurve" smooth="yes"/>
      <point x="783" y="574"/>
      <point x="783" y="460" type="qcurve" smooth="yes"/>
      <point x="783" y="57" type="line" smooth="yes"/>
      <point x="783" y="49"/>
      <point x="767" y="40"/>
      <point x="757" y="40" type="qcurve" smooth="yes"/>
      <point x="747" y="40"/>
      <point x="731" y="49"/>
      <point x="731" y="57" type="qcurve" smooth="yes"/>
    </contour>
  </outline>
</glyph>
<glyph name="union" format="1">
  <advance width="1000" height="1000"/>
  <unicode hex="222A"/>
  <outline>
    <contour>
      <point x="243" y="711" type="qcurve" smooth="yes"/>
      <point x="269" y="711"/>
      <point x="269" y="694" type="qcurve" smooth="yes"/>
      <point x="269" y="296" type="line" smooth="yes"/>
      <point x="269" y="230"/>
      <point x="335" y="136"/>
      <point x="441" y="86"/>
      <point x="500" y="86" type="qcurve" smooth="yes"/>
      <point x="559" y="86"/>
      <point x="667" y="136"/>
      <point x="735" y="230"/>
      <point x="735" y="296" type="qcurve" smooth="yes"/>
      <point x="735" y="694" type="line" smooth="yes"/>
      <point x="735" y="711"/>
      <point x="761" y="711" type="qcurve" smooth="yes"/>
      <point x="787" y="711"/>
      <point x="787" y="694" type="qcurve" smooth="yes"/>
      <point x="787" y="291" type="line" smooth="yes"/>
      <point x="787" y="214"/>
      <point x="709" y="96"/>
      <point x="579" y="29"/>
      <point x="443" y="29"/>
      <point x="341" y="67"/>
      <point x="302" y="102" type="qcurve" smooth="yes"/>
      <point x="217" y="177"/>
      <point x="217" y="291" type="qcurve" smooth="yes"/>
      <point x="217" y="694" type="line" smooth="yes"/>
      <point x="217" y="711"/>
    </contour>
  </outline>
</glyph>
<glyph name="integral" format="1">
  <advance width="1000" height="1000"/>
  <unicode hex="222B"/>
  <outline>
    <contour>
      <point x="447" y="-47"/>
      <point x="418" y="-47" type="qcurve" smooth="yes"/>
      <point x="371" y="-47"/>
      <point x="330" y="-15" type="qcurve" smooth="yes"/>
      <point x="322" y="-9"/>
      <point x="322" y="20"/>
      <point x="331" y="42"/>
      <point x="338" y="42" type="qcurve" smooth="yes"/>
      <point x="341" y="42"/>
      <point x="353" y="30" type="qcurve" smooth="yes"/>
      <point x="380" y="5"/>
      <point x="411" y="5" type="qcurve" smooth="yes"/>
      <point x="423" y="5"/>
      <point x="442" y="15"/>
      <point x="457" y="51"/>
      <point x="462" y="90" type="qcurve" smooth="yes"/>
      <point x="472" y="166"/>
      <point x="472" y="492"/>
      <point x="481" y="654"/>
      <point x="505" y="744"/>
      <point x="548" y="780"/>
      <point x="577" y="780" type="qcurve" smooth="yes"/>
      <point x="624" y="780"/>
      <point x="665" y="748" type="qcurve" smooth="yes"/>
      <point x="673" y="743"/>
      <point x="673" y="713"/>
      <point x="664" y="691"/>
      <point x="657" y="691" type="qcurve" smooth="yes"/>
      <point x="654" y="691"/>
      <point x="642" y="703" type="qcurve" smooth="yes"/>
      <point x="619" y="728"/>
      <point x="584" y="728" type="qcurve" smooth="yes"/>
      <point x="572" y="728"/>
      <point x="553" y="718"/>
      <point x="538" y="682"/>
      <point x="533" y="644" type="qcurve" smooth="yes"/>
      <point x="523" y="566"/>
      <point x="523" y="235"/>
      <point x="514" y="72"/>
      <point x="490" y="-15"/>
    </contour>
  </outline>
</glyph>
<glyph name="uni222C" format="1">
  <advance width="1000" height="1000"/>
  <unicode hex="222C"/>
  <outline>
    <contour>
      <point x="590" y="-47"/>
      <point x="561" y="-47" type="qcurve" smooth="yes"/>
      <point x="514" y="-47"/>
      <point x="473" y="-15" type="qcurve" smooth="yes"/>
      <point x="465" y="-9"/>
      <point x="465" y="20"/>
      <point x="474" y="42"/>
      <point x="481" y="42" type="qcurve" smooth="yes"/>
      <point x="484" y="42"/>
      <point x="496" y="30" type="qcurve" smooth="yes"/>
      <point x="523" y="5"/>
      <point x="554" y="5" type="qcurve" smooth="yes"/>
      <point x="566" y="5"/>
      <point x="585" y="15"/>
      <point x="600" y="51"/>
      <point x="605" y="90" type="qcurve" smooth="yes"/>
      <point x="615" y="166"/>
      <point x="615" y="492"/>
      <point x="624" y="654"/>
      <point x="648" y="744"/>
      <point x="691" y="780"/>
      <point x="720" y="780" type="qcurve" smooth="yes"/>
      <point x="767" y="780"/>
      <point x="808" y="748" type="qcurve" smooth="yes"/>
      <point x="816" y="743"/>
      <point x="816" y="713"/>
      <point x="807" y="691"/>
      <point x="800" y="691" type="qcurve" smooth="yes"/>
      <point x="797" y="691"/>
      <point x="786" y="703" type="qcurve" smooth="yes"/>
      <point x="762" y="728"/>
      <point x="727" y="728" type="qcurve" smooth="yes"/>
      <point x="715" y="728"/>
      <point x="696" y="718"/>
      <point x="681" y="682"/>
      <point x="676" y="644" type="qcurve" smooth="yes"/>
      <point x="666" y="566"/>
      <point x="666" y="235"/>
      <point x="657" y="72"/>
      <point x="633" y="-15"/>
    </contour>
    <contour>
      <point x="324" y="-47"/>
      <point x="295" y="-47" type="qcurve" smooth="yes"/>
      <point x="248" y="-47"/>
      <point x="207" y="-15" type="qcurve" smooth="yes"/>
      <point x="199" y="-9"/>
      <point x="199" y="20"/>
      <point x="208" y="42"/>
      <point x="215" y="42" type="qcurve" smooth="yes"/>
      <point x="218" y="42"/>
      <point x="230" y="30" type="qcurve" smooth="yes"/>
      <point x="257" y="5"/>
      <point x="288" y="5" type="qcurve" smooth="yes"/>
      <point x="300" y="5"/>
      <point x="319" y="15"/>
      <point x="334" y="51"/>
      <point x="339" y="90" type="qcurve" smooth="yes"/>
      <point x="349" y="166"/>
      <point x="349" y="492"/>
      <point x="358" y="654"/>
      <point x="382" y="744"/>
      <point x="425" y="780"/>
      <point x="454" y="780" type="qcurve" smooth="yes"/>
      <point x="501" y="780"/>
      <point x="542" y="748" type="qcurve" smooth="yes"/>
      <point x="550" y="743"/>
      <point x="550" y="713"/>
      <point x="541" y="691"/>
      <point x="534" y="691" type="qcurve" smooth="yes"/>
      <point x="531" y="691"/>
      <point x="520" y="703" type="qcurve" smooth="yes"/>
      <point x="496" y="728"/>
      <point x="461" y="728" type="qcurve" smooth="yes"/>
      <point x="449" y="728"/>
      <point x="430" y="718"/>
      <point x="415" y="682"/>
      <point x="410" y="644" type="qcurve" smooth="yes"/>
      <point x="400" y="566"/>
      <point x="400" y="235"/>
      <point x="391" y="72"/>
      <point x="367" y="-15"/>
    </contour>
  </outline>
</glyph>
<glyph name="therefore" format="1">
  <advance width="1000" height="1000"/>
  <unicode hex="2234"/>
  <outline>
    <contour>
      <point x="505" y="566" type="qcurve" smooth="yes"/>
      <point x="485" y="566"/>
      <point x="454" y="603"/>
      <point x="454" y="642"/>
      <point x="475" y="666"/>
      <point x="513" y="666"/>
      <point x="545" y="628"/>
      <point x="545" y="608" type="qcurve" smooth="yes"/>
      <point x="545" y="566"/>
    </contour>
    <contour>
      <point x="778" y="89" type="qcurve" smooth="yes"/>
      <point x="758" y="89"/>
      <point x="727" y="126"/>
      <point x="727" y="165"/>
      <point x="748" y="189"/>
      <point x="786" y="189"/>
      <point x="818" y="151"/>
      <point x="818" y="131" type="qcurve" smooth="yes"/>
      <point x="818" y="89"/>
    </contour>
    <contour>
      <point x="232" y="89" type="qcurve" smooth="yes"/>
      <point x="212" y="89"/>
      <point x="181" y="126"/>
      <point x="181" y="165"/>
      <point x="202" y="189"/>
      <point x="240" y="189"/>
      <point x="272" y="151"/>
      <point x="272" y="131" type="qcurve" smooth="yes"/>
      <point x="272" y="89"/>
    </contour>
  </outline>
</glyph>
<glyph name="uni2235" format="1">
  <advance width="1000" height="1000"/>
  <unicode hex="2235"/>
  <outline>
    <contour>
      <point x="779" y="554" type="qcurve" smooth="yes"/>
      <point x="759" y="554"/>
      <point x="728" y="591"/>
      <point x="728" y="630"/>
      <point x="749" y="654"/>
      <point x="787" y="654"/>
      <point x="819" y="616"/>
      <point x="819" y="596" type="qcurve" smooth="yes"/>
      <point x="819" y="554"/>
    </contour>
    <contour>
      <point x="233" y="554" type="qcurve" smooth="yes"/>
      <point x="213" y="554"/>
      <point x="182" y="591"/>
      <point x="182" y="630"/>
      <point x="203" y="654"/>
      <point x="241" y="654"/>
      <point x="273" y="616"/>
      <point x="273" y="596" type="qcurve" smooth="yes"/>
      <point x="273" y="554"/>
    </contour>
    <contour>
      <point x="506" y="78" type="qcurve" smooth="yes"/>
      <point x="486" y="78"/>
      <point x="455" y="115"/>
      <point x="455" y="154"/>
      <point x="476" y="178"/>
      <point x="514" y="178"/>
      <point x="546" y="140"/>
      <point x="546" y="120" type="qcurve" smooth="yes"/>
      <point x="546" y="78"/>
    </contour>
  </outline>
</glyph>
<glyph name="uni2243" format="1">
  <advance width="1000" height="1000"/>
  <unicode hex="2243"/>
  <outline>
    <contour>
      <point x="833" y="499" type="qcurve" smooth="yes"/>
      <point x="848" y="499"/>
      <point x="848" y="475"/>
      <point x="800" y="434"/>
      <point x="721" y="401"/>
      <point x="677" y="401" type="qcurve" smooth="yes"/>
      <point x="587" y="401"/>
      <point x="473" y="450" type="qcurve" smooth="yes"/>
      <point x="436" y="467"/>
      <point x="345" y="486"/>
      <point x="308" y="486" type="qcurve" smooth="yes"/>
      <point x="234" y="486"/>
      <point x="174" y="443" type="qcurve" smooth="yes"/>
      <point x="166" y="436"/>
      <point x="158" y="436" type="qcurve" smooth="yes"/>
      <point x="147" y="436"/>
      <point x="147" y="464"/>
      <point x="197" y="506"/>
      <point x="276" y="538"/>
      <point x="320" y="538" type="qcurve" smooth="yes"/>
      <point x="409" y="538"/>
      <point x="523" y="489" type="qcurve" smooth="yes"/>
      <point x="560" y="473"/>
      <point x="651" y="453"/>
      <point x="726" y="453"/>
      <point x="798" y="478"/>
      <point x="822" y="496" type="qcurve" smooth="yes"/>
      <point x="827" y="499"/>
    </contour>
    <contour>
      <point x="755" y="284" type="line" smooth="yes"/>
      <point x="768" y="284"/>
      <point x="831" y="287" type="qcurve" smooth="yes"/>
      <point x="832" y="287" type="line" smooth="yes"/>
      <point x="841" y="287"/>
      <point x="852" y="266"/>
      <point x="852" y="255" type="qcurve" smooth="yes"/>
      <point x="852" y="233"/>
      <point x="837" y="233" type="qcurve" smooth="yes"/>
      <point x="754" y="234" type="line"/>
      <point x="247" y="228" type="line" smooth="yes"/>
      <point x="184" y="228"/>
      <point x="166" y="225" type="qcurve" smooth="yes"/>
      <point x="165" y="225" type="line" smooth="yes"/>
      <point x="157" y="225"/>
      <point x="146" y="247"/>
      <point x="146" y="280"/>
      <point x="161" y="280" type="qcurve" smooth="yes"/>
      <point x="191" y="278"/>
      <point x="248" y="278" type="qcurve" smooth="yes"/>
    </contour>
  </outline>
</glyph>
<glyph name="approxequal" format="1">
  <advance width="1000" height="1000"/>
  <unicode hex="2248"/>
  <outline>
    <contour>
      <point x="680" y="400" type="qcurve" smooth="yes"/>
      <point x="593" y="400"/>
      <point x="390" y="485"/>
      <point x="231" y="485"/>
      <point x="173" y="446" type="qcurve" smooth="yes"/>
      <point x="164" y="440"/>
      <point x="157" y="440" type="qcurve" smooth="yes"/>
      <point x="150" y="440"/>
      <point x="149" y="456"/>
      <point x="156" y="465" type="qcurve" smooth="yes"/>
      <point x="179" y="492"/>
      <point x="266" y="539"/>
      <point x="316" y="539" type="qcurve" smooth="yes"/>
      <point x="411" y="539"/>
      <point x="601" y="454"/>
      <point x="766" y="454"/>
      <point x="823" y="493" type="qcurve" smooth="yes"/>
      <point x="832" y="499"/>
      <point x="839" y="499" type="qcurve" smooth="yes"/>
      <point x="846" y="499"/>
      <point x="847" y="484"/>
      <point x="840" y="474" type="qcurve" smooth="yes"/>
      <point x="819" y="448"/>
      <point x="730" y="400"/>
    </contour>
    <contour>
      <point x="840" y="474" type="move" smooth="yes"/>
    </contour>
    <contour>
      <point x="680" y="160" type="qcurve" smooth="yes"/>
      <point x="593" y="160"/>
      <point x="390" y="245"/>
      <point x="231" y="245"/>
      <point x="173" y="206" type="qcurve" smooth="yes"/>
      <point x="164" y="200"/>
      <point x="157" y="200" type="qcurve" smooth="yes"/>
      <point x="150" y="200"/>
      <point x="149" y="216"/>
      <point x="156" y="225" type="qcurve" smooth="yes"/>
      <point x="179" y="252"/>
      <point x="266" y="299"/>
      <point x="316" y="299" type="qcurve" smooth="yes"/>
      <point x="411" y="299"/>
      <point x="601" y="214"/>
      <point x="766" y="214"/>
      <point x="823" y="253" type="qcurve" smooth="yes"/>
      <point x="832" y="259"/>
      <point x="839" y="259" type="qcurve" smooth="yes"/>
      <point x="846" y="259"/>
      <point x="847" y="244"/>
      <point x="840" y="234" type="qcurve" smooth="yes"/>
      <point x="819" y="208"/>
      <point x="730" y="160"/>
    </contour>
    <contour>
      <point x="840" y="234" type="move" smooth="yes"/>
    </contour>
  </outline>
</glyph>
<glyph name="uni224C" format="1">
  <advance width="1000" height="1000"/>
  <unicode hex="224C"/>
  <outline>
    <contour>
      <point x="808" y="202" type="qcurve" smooth="yes"/>
      <point x="825" y="202"/>
      <point x="825" y="165" type="qcurve" smooth="yes"/>
      <point x="825" y="148"/>
      <point x="813" y="148" type="qcurve" smooth="yes"/>
      <point x="759" y="149" type="line"/>
      <point x="504" y="146" type="line" smooth="yes"/>
      <point x="221" y="143"/>
      <point x="197" y="140" type="qcurve" smooth="yes"/>
      <point x="190" y="140"/>
      <point x="181" y="163"/>
      <point x="181" y="195"/>
      <point x="192" y="195" type="qcurve" smooth="yes"/>
      <point x="232" y="193"/>
      <point x="279" y="193" type="qcurve" smooth="yes"/>
      <point x="731" y="199" type="line" smooth="yes"/>
      <point x="763" y="199"/>
    </contour>
    <contour>
      <point x="192" y="195" type="move" smooth="yes"/>
    </contour>
    <contour>
      <point x="808" y="58" type="qcurve" smooth="yes"/>
      <point x="825" y="58"/>
      <point x="825" y="21" type="qcurve" smooth="yes"/>
      <point x="825" y="4"/>
      <point x="813" y="4" type="qcurve" smooth="yes"/>
      <point x="759" y="5" type="line"/>
      <point x="504" y="2" type="line" smooth="yes"/>
      <point x="247" y="0"/>
      <point x="197" y="-4" type="qcurve" smooth="yes"/>
      <point x="190" y="-4"/>
      <point x="181" y="19"/>
      <point x="181" y="51"/>
      <point x="192" y="51" type="qcurve" smooth="yes"/>
      <point x="232" y="49"/>
      <point x="279" y="49" type="qcurve" smooth="yes"/>
      <point x="731" y="55" type="line" smooth="yes"/>
      <point x="763" y="55"/>
    </contour>
    <contour>
      <point x="192" y="51" type="move" smooth="yes"/>
    </contour>
    <contour>
      <point x="406" y="336" type="qcurve" smooth="yes"/>
      <point x="348" y="298"/>
      <point x="196" y="298"/>
      <point x="101" y="388"/>
      <point x="101" y="468" type="qcurve" smooth="yes"/>
      <point x="101" y="523"/>
      <point x="156" y="620"/>
      <point x="233" y="673"/>
      <point x="309" y="697"/>
      <point x="362" y="697" type="qcurve" smooth="yes"/>
      <point x="373" y="697"/>
      <point x="378" y="684" type="qcurve" smooth="yes"/>
      <point x="385" y="670"/>
      <point x="385" y="660" type="qcurve" smooth="yes"/>
      <point x="385" y="640"/>
      <point x="376" y="640" type="qcurve" smooth="yes"/>
      <point x="360" y="643"/>
      <point x="342" y="643" type="qcurve" smooth="yes"/>
      <point x="283" y="643"/>
      <point x="226" y="605" type="qcurve"/>
      <point x="155" y="550"/>
      <point x="155" y="468" type="qcurve" smooth="yes"/>
      <point x="155" y="351"/>
      <point x="274" y="351" type="qcurve" smooth="yes"/>
      <point x="338" y="351"/>
      <point x="429" y="417"/>
      <point x="488" y="518"/>
      <point x="506" y="552" type="qcurve" smooth="yes"/>
      <point x="580" y="698"/>
      <point x="719" y="698" type="qcurve" smooth="yes"/>
      <point x="800" y="698"/>
      <point x="899" y="607"/>
      <point x="899" y="463"/>
      <point x="865" y="412" type="qcurve" smooth="yes"/>
      <point x="831" y="361"/>
      <point x="721" y="303"/>
      <point x="659" y="303" type="qcurve" smooth="yes"/>
      <point x="651" y="303" type="line"/>
      <point x="626" y="308"/>
      <point x="626" y="316" type="qcurve" smooth="yes"/>
      <point x="626" y="325"/>
      <point x="647" y="329" type="qcurve" smooth="yes"/>
      <point x="743" y="344"/>
      <point x="845" y="453"/>
      <point x="845" y="528" type="qcurve" smooth="yes"/>
      <point x="845" y="580"/>
      <point x="782" y="645"/>
      <point x="654" y="645"/>
      <point x="581" y="583"/>
      <point x="551" y="521" type="qcurve" smooth="yes"/>
      <point x="528" y="479"/>
      <point x="464" y="374"/>
    </contour>
  </outline>
</glyph>
<glyph name="equivalence" format="1">
  <advance width="1000" height="1000"/>
  <unicode hex="2261"/>
  <outline>
    <contour>
      <point x="735" y="565" type="line" smooth="yes"/>
      <point x="748" y="565"/>
      <point x="811" y="568" type="qcurve" smooth="yes"/>
      <point x="812" y="568" type="line" smooth="yes"/>
      <point x="821" y="568"/>
      <point x="832" y="548"/>
      <point x="832" y="537" type="qcurve" smooth="yes"/>
      <point x="832" y="516"/>
      <point x="817" y="516" type="qcurve" smooth="yes"/>
      <point x="734" y="517" type="line"/>
      <point x="267" y="511" type="line" smooth="yes"/>
      <point x="204" y="511"/>
      <point x="186" y="508" type="qcurve" smooth="yes"/>
      <point x="184" y="508" type="line" smooth="yes"/>
      <point x="176" y="508"/>
      <point x="166" y="529"/>
      <point x="166" y="540" type="qcurve" smooth="yes"/>
      <point x="166" y="561"/>
      <point x="181" y="561" type="qcurve" smooth="yes"/>
      <point x="211" y="559"/>
      <point x="268" y="559" type="qcurve" smooth="yes"/>
    </contour>
    <contour>
      <point x="735" y="395" type="line" smooth="yes"/>
      <point x="748" y="395"/>
      <point x="811" y="398" type="qcurve" smooth="yes"/>
      <point x="812" y="398" type="line" smooth="yes"/>
      <point x="821" y="398"/>
      <point x="832" y="378"/>
      <point x="832" y="367" type="qcurve" smooth="yes"/>
      <point x="832" y="346"/>
      <point x="817" y="346" type="qcurve" smooth="yes"/>
      <point x="734" y="347" type="line"/>
      <point x="267" y="341" type="line" smooth="yes"/>
      <point x="204" y="341"/>
      <point x="186" y="338" type="qcurve" smooth="yes"/>
      <point x="184" y="338" type="line" smooth="yes"/>
      <point x="176" y="338"/>
      <point x="166" y="359"/>
      <point x="166" y="370" type="qcurve" smooth="yes"/>
      <point x="166" y="391"/>
      <point x="181" y="391" type="qcurve" smooth="yes"/>
      <point x="211" y="389"/>
      <point x="268" y="389" type="qcurve" smooth="yes"/>
    </contour>
    <contour>
      <point x="735" y="225" type="line" smooth="yes"/>
      <point x="748" y="225"/>
      <point x="811" y="228" type="qcurve" smooth="yes"/>
      <point x="812" y="228" type="line" smooth="yes"/>
      <point x="821" y="228"/>
      <point x="832" y="208"/>
      <point x="832" y="197" type="qcurve" smooth="yes"/>
      <point x="832" y="176"/>
      <point x="817" y="176" type="qcurve" smooth="yes"/>
      <point x="734" y="177" type="line"/>
      <point x="267" y="171" type="line" smooth="yes"/>
      <point x="204" y="171"/>
      <point x="186" y="168" type="qcurve" smooth="yes"/>
      <point x="184" y="168" type="line" smooth="yes"/>
      <point x="176" y="168"/>
      <point x="166" y="189"/>
      <point x="166" y="200" type="qcurve" smooth="yes"/>
      <point x="166" y="221"/>
      <point x="181" y="221" type="qcurve" smooth="yes"/>
      <point x="211" y="219"/>
      <point x="268" y="219" type="qcurve" smooth="yes"/>
    </contour>
  </outline>
</glyph>
<glyph name="uni2273" format="1">
  <advance width="1000" height="1000"/>
  <unicode hex="2273"/>
  <outline>
    <contour>
      <point x="727" y="477" type="qcurve"/>
      <point x="628" y="506"/>
      <point x="333" y="599"/>
      <point x="282" y="617"/>
      <point x="239" y="633"/>
      <point x="212" y="642" type="qcurve" smooth="yes"/>
      <point x="201" y="646"/>
      <point x="201" y="665" type="qcurve" smooth="yes"/>
      <point x="201" y="705"/>
      <point x="218" y="705" type="qcurve" smooth="yes"/>
      <point x="220" y="705"/>
      <point x="254" y="686"/>
      <point x="350" y="647"/>
      <point x="463" y="607"/>
      <point x="577" y="570"/>
      <point x="672" y="541"/>
      <point x="732" y="523"/>
      <point x="743" y="520"/>
      <point x="759" y="516"/>
      <point x="774" y="507"/>
      <point x="784" y="479"/>
      <point x="784" y="451"/>
      <point x="765" y="438"/>
      <point x="709" y="421"/>
      <point x="621" y="394"/>
      <point x="518" y="361"/>
      <point x="467" y="344" type="qcurve" smooth="yes"/>
      <point x="316" y="294"/>
      <point x="247" y="260"/>
      <point x="223" y="246"/>
      <point x="221" y="246" type="qcurve" smooth="yes"/>
      <point x="211" y="246"/>
      <point x="200" y="273"/>
      <point x="200" y="303"/>
      <point x="208" y="306" type="qcurve" smooth="yes"/>
      <point x="231" y="312"/>
      <point x="266" y="326"/>
      <point x="312" y="342"/>
      <point x="400" y="372"/>
      <point x="501" y="406"/>
      <point x="604" y="439"/>
      <point x="695" y="467"/>
    </contour>
    <contour>
      <point x="811" y="113" type="qcurve" smooth="yes"/>
      <point x="811" y="109"/>
      <point x="792" y="84"/>
      <point x="774" y="69" type="qcurve" smooth="yes"/>
      <point x="731" y="33"/>
      <point x="680" y="33" type="qcurve" smooth="yes"/>
      <point x="589" y="33"/>
      <point x="484" y="81" type="qcurve" smooth="yes"/>
      <point x="406" y="118"/>
      <point x="333" y="118" type="qcurve" smooth="yes"/>
      <point x="293" y="118"/>
      <point x="245" y="92"/>
      <point x="231" y="83" type="qcurve" smooth="yes"/>
      <point x="212" y="71"/>
      <point x="210" y="71" type="qcurve" smooth="yes"/>
      <point x="200" y="71"/>
      <point x="200" y="82" type="qcurve" smooth="yes"/>
      <point x="200" y="87"/>
      <point x="220" y="114"/>
      <point x="239" y="130" type="qcurve" smooth="yes"/>
      <point x="285" y="167"/>
      <point x="333" y="167" type="qcurve" smooth="yes"/>
      <point x="423" y="167"/>
      <point x="528" y="119" type="qcurve" smooth="yes"/>
      <point x="611" y="82"/>
      <point x="679" y="82" type="qcurve" smooth="yes"/>
      <point x="719" y="82"/>
      <point x="766" y="105"/>
      <point x="796" y="125"/>
      <point x="799" y="125" type="qcurve" smooth="yes"/>
      <point x="811" y="125"/>
    </contour>
  </outline>
</glyph>
<glyph name="propersubset" format="1">
  <advance width="1000" height="1000"/>
  <unicode hex="2282"/>
  <outline>
    <contour>
      <point x="837" y="107" type="qcurve" smooth="yes"/>
      <point x="837" y="81"/>
      <point x="820" y="81" type="qcurve" smooth="yes"/>
      <point x="417" y="81" type="line" smooth="yes"/>
      <point x="340" y="81"/>
      <point x="222" y="159"/>
      <point x="155" y="289"/>
      <point x="155" y="425"/>
      <point x="193" y="527"/>
      <point x="228" y="566" type="qcurve" smooth="yes"/>
      <point x="303" y="651"/>
      <point x="417" y="651" type="qcurve" smooth="yes"/>
      <point x="820" y="651" type="line" smooth="yes"/>
      <point x="837" y="651"/>
      <point x="837" y="625" type="qcurve" smooth="yes"/>
      <point x="837" y="599"/>
      <point x="820" y="599" type="qcurve" smooth="yes"/>
      <point x="422" y="599" type="line" smooth="yes"/>
      <point x="356" y="599"/>
      <point x="262" y="533"/>
      <point x="212" y="428"/>
      <point x="212" y="309"/>
      <point x="262" y="201"/>
      <point x="356" y="133"/>
      <point x="422" y="133" type="qcurve" smooth="yes"/>
      <point x="820" y="133" type="line" smooth="yes"/>
      <point x="837" y="133"/>
    </contour>
  </outline>
</glyph>
<glyph name="uni2296" format="1">
  <advance width="1000" height="1000"/>
  <unicode hex="2296"/>
  <outline>
    <contour>
      <point x="873" y="370" type="qcurve" smooth="yes"/>
      <point x="873" y="293"/>
      <point x="815" y="158"/>
      <point x="712" y="55"/>
      <point x="577" y="-3"/>
      <point x="500" y="-3" type="qcurve" smooth="yes"/>
      <point x="423" y="-3"/>
      <point x="288" y="55"/>
      <point x="185" y="158"/>
      <point x="127" y="293"/>
      <point x="127" y="370" type="qcurve" smooth="yes"/>
      <point x="127" y="447"/>
      <point x="185" y="582"/>
      <point x="288" y="685"/>
      <point x="423" y="743"/>
      <point x="500" y="743" type="qcurve" smooth="yes"/>
      <point x="577" y="743"/>
      <point x="712" y="685"/>
      <point x="815" y="582"/>
      <point x="873" y="447"/>
    </contour>
    <contour>
      <point x="828" y="370" type="qcurve" smooth="yes"/>
      <point x="828" y="508"/>
      <point x="638" y="698"/>
      <point x="500" y="698" type="qcurve" smooth="yes"/>
      <point x="362" y="698"/>
      <point x="172" y="508"/>
      <point x="172" y="370" type="qcurve" smooth="yes"/>
      <point x="172" y="232"/>
      <point x="362" y="42"/>
      <point x="500" y="42" type="qcurve" smooth="yes"/>
      <point x="638" y="42"/>
      <point x="828" y="232"/>
    </contour>
    <contour>
      <point x="783" y="368" type="qcurve" smooth="yes"/>
      <point x="783" y="346"/>
      <point x="770" y="346" type="qcurve" smooth="yes"/>
      <point x="230" y="346" type="line" smooth="yes"/>
      <point x="224" y="346"/>
      <point x="217" y="360"/>
      <point x="217" y="368" type="qcurve" smooth="yes"/>
      <point x="217" y="376"/>
      <point x="224" y="390"/>
      <point x="230" y="390" type="qcurve" smooth="yes"/>
      <point x="770" y="390" type="line" smooth="yes"/>
      <point x="783" y="390"/>
    </contour>
  </outline>
</glyph>
<glyph name="uni22BF" format="1">
  <advance width="1000" height="1000"/>
  <unicode hex="22BF"/>
  <outline>
    <contour>
      <point x="844" y="70"/>
      <point x="844" y="41"/>
      <point x="835" y="41" type="qcurve" smooth="yes"/>
      <point x="834" y="41" type="line"/>
      <point x="798" y="47"/>
      <point x="748" y="47" type="qcurve" smooth="yes"/>
      <point x="674" y="50"/>
      <point x="501" y="50"/>
      <point x="399" y="49"/>
      <point x="297" y="48"/>
      <point x="246" y="45"/>
      <point x="229" y="40"/>
      <point x="212" y="40"/>
      <point x="182" y="69"/>
      <point x="182" y="97"/>
      <point x="188" y="101" type="qcurve" smooth="yes"/>
      <point x="273" y="160"/>
      <point x="575" y="470" type="qcurve" smooth="yes"/>
      <point x="743" y="643"/>
      <point x="760" y="672" type="qcurve" smooth="yes"/>
      <point x="766" y="681"/>
      <point x="789" y="681"/>
      <point x="818" y="657"/>
      <point x="818" y="645" type="qcurve" smooth="yes"/>
      <point x="813" y="611" type="line"/>
      <point x="813" y="96" type="line"/>
      <point x="814" y="96" type="line" smooth="yes"/>
      <point x="829" y="96"/>
    </contour>
    <contour>
      <point x="263" y="97" type="qcurve"/>
      <point x="344" y="100"/>
      <point x="568" y="100"/>
      <point x="646" y="99"/>
      <point x="716" y="98"/>
      <point x="738" y="98" type="qcurve" smooth="yes"/>
      <point x="761" y="97" type="line"/>
      <point x="761" y="595" type="line"/>
      <point x="688" y="515"/>
      <point x="557" y="384" type="qcurve" smooth="yes"/>
      <point x="373" y="200"/>
    </contour>
  </outline>
</glyph>
<glyph name="uni22EF" format="1">
  <advance width="1000" height="1000"/>
  <unicode hex="22EF"/>
  <outline>
    <contour>
      <point x="858" y="331"/>
      <point x="814" y="331"/>
      <point x="785" y="369"/>
      <point x="785" y="408"/>
      <point x="812" y="429"/>
      <point x="850" y="429"/>
      <point x="865" y="410" type="qcurve" smooth="yes"/>
      <point x="880" y="391"/>
      <point x="880" y="354"/>
    </contour>
    <contour>
      <point x="526" y="331"/>
      <point x="482" y="331"/>
      <point x="453" y="369"/>
      <point x="453" y="408"/>
      <point x="480" y="429"/>
      <point x="518" y="429"/>
      <point x="533" y="410" type="qcurve" smooth="yes"/>
      <point x="548" y="391"/>
      <point x="548" y="354"/>
    </contour>
    <contour>
      <point x="194" y="331"/>
      <point x="150" y="331"/>
      <point x="121" y="369"/>
      <point x="121" y="408"/>
      <point x="148" y="429"/>
      <point x="186" y="429"/>
      <point x="201" y="410" type="qcurve" smooth="yes"/>
      <point x="216" y="391"/>
      <point x="216" y="354"/>
    </contour>
  </outline>
</glyph>
<glyph name="house" format="1">
  <advance width="1000" height="1000"/>
  <unicode hex="2302"/>
  <outline>
    <contour>
      <point x="253" y="-1" type="line"/>
      <point x="253" y="336" type="line"/>
      <point x="503" y="546" type="line"/>
      <point x="754" y="336" type="line"/>
      <point x="754" y="-1" type="line"/>
    </contour>
    <contour>
      <point x="503" y="444" type="line"/>
      <point x="332" y="300" type="line"/>
      <point x="332" y="78" type="line"/>
      <point x="674" y="78" type="line"/>
      <point x="674" y="300" type="line"/>
    </contour>
  </outline>
</glyph>
<glyph name="uni2312" format="1">
  <advance width="1000" height="1000"/>
  <unicode hex="2312"/>
  <outline>
    <contour>
      <point x="874" y="670" type="qcurve" smooth="yes"/>
      <point x="894" y="649"/>
      <point x="894" y="622"/>
      <point x="881" y="622" type="qcurve" smooth="yes"/>
      <point x="874" y="622"/>
      <point x="867" y="629" type="qcurve" smooth="yes"/>
      <point x="778" y="714"/>
      <point x="616" y="749" type="qcurve" smooth="yes"/>
      <point x="543" y="765"/>
      <point x="418" y="765"/>
      <point x="353" y="750" type="qcurve" smooth="yes"/>
      <point x="205" y="716"/>
      <point x="127" y="630" type="qcurve" smooth="yes"/>
      <point x="121" y="624"/>
      <point x="114" y="624" type="qcurve" smooth="yes"/>
      <point x="99" y="624"/>
      <point x="99" y="640" type="qcurve" smooth="yes"/>
      <point x="99" y="648"/>
      <point x="136" y="690"/>
      <point x="203" y="743"/>
      <point x="250" y="768" type="qcurve" smooth="yes"/>
      <point x="356" y="825"/>
      <point x="473" y="825" type="qcurve" smooth="yes"/>
      <point x="609" y="825"/>
      <point x="729" y="768" type="qcurve" smooth="yes"/>
      <point x="828" y="722"/>
    </contour>
  </outline>
</glyph>
<glyph name="uni2318" format="1">
  <advance width="1000" height="1000"/>
  <unicode hex="2318"/>
  <outline>
    <contour>
      <point x="762" y="-34" type="qcurve" smooth="yes"/>
      <point x="703" y="-34"/>
      <point x="620" y="50"/>
      <point x="620" y="108" type="qcurve" smooth="yes"/>
      <point x="620" y="209" type="line"/>
      <point x="381" y="209" type="line"/>
      <point x="381" y="108" type="line" smooth="yes"/>
      <point x="381" y="50"/>
      <point x="298" y="-34"/>
      <point x="239" y="-34" type="qcurve" smooth="yes"/>
      <point x="180" y="-34"/>
      <point x="97" y="50"/>
      <point x="97" y="108" type="qcurve" smooth="yes"/>
      <point x="97" y="168"/>
      <point x="180" y="251"/>
      <point x="239" y="251" type="qcurve" smooth="yes"/>
      <point x="339" y="251" type="line"/>
      <point x="339" y="488" type="line"/>
      <point x="239" y="488" type="line" smooth="yes"/>
      <point x="180" y="488"/>
      <point x="97" y="571"/>
      <point x="97" y="630" type="qcurve" smooth="yes"/>
      <point x="97" y="689"/>
      <point x="180" y="772"/>
      <point x="239" y="772" type="qcurve" smooth="yes"/>
      <point x="298" y="772"/>
      <point x="381" y="689"/>
      <point x="381" y="630" type="qcurve" smooth="yes"/>
      <point x="381" y="530" type="line"/>
      <point x="620" y="530" type="line"/>
      <point x="620" y="630" type="line" smooth="yes"/>
      <point x="620" y="689"/>
      <point x="703" y="772"/>
      <point x="762" y="772" type="qcurve" smooth="yes"/>
      <point x="821" y="772"/>
      <point x="904" y="689"/>
      <point x="904" y="630" type="qcurve" smooth="yes"/>
      <point x="904" y="571"/>
      <point x="821" y="488"/>
      <point x="762" y="488" type="qcurve" smooth="yes"/>
      <point x="662" y="488" type="line"/>
      <point x="662" y="251" type="line"/>
      <point x="762" y="251" type="line" smooth="yes"/>
      <point x="821" y="251"/>
      <point x="904" y="168"/>
      <point x="904" y="108" type="qcurve" smooth="yes"/>
      <point x="904" y="50"/>
      <point x="821" y="-34"/>
    </contour>
    <contour>
      <point x="239" y="8" type="qcurve" smooth="yes"/>
      <point x="280" y="8"/>
      <point x="339" y="66"/>
      <point x="339" y="108" type="qcurve" smooth="yes"/>
      <point x="339" y="209" type="line"/>
      <point x="239" y="209" type="line" smooth="yes"/>
      <point x="197" y="209"/>
      <point x="139" y="150"/>
      <point x="139" y="108" type="qcurve" smooth="yes"/>
      <point x="139" y="66"/>
      <point x="197" y="8"/>
    </contour>
    <contour>
      <point x="620" y="251" type="line"/>
      <point x="620" y="488" type="line"/>
      <point x="381" y="488" type="line"/>
      <point x="381" y="251" type="line"/>
    </contour>
    <contour>
      <point x="762" y="530" type="line" smooth="yes"/>
      <point x="804" y="530"/>
      <point x="862" y="588"/>
      <point x="862" y="630" type="qcurve" smooth="yes"/>
      <point x="862" y="672"/>
      <point x="804" y="730"/>
      <point x="763" y="730" type="qcurve" smooth="yes"/>
      <point x="721" y="730"/>
      <point x="662" y="672"/>
      <point x="662" y="630" type="qcurve" smooth="yes"/>
      <point x="662" y="530" type="line"/>
    </contour>
    <contour>
      <point x="339" y="530" type="line"/>
      <point x="339" y="630" type="line" smooth="yes"/>
      <point x="339" y="672"/>
      <point x="280" y="730"/>
      <point x="239" y="730" type="qcurve" smooth="yes"/>
      <point x="197" y="730"/>
      <point x="139" y="672"/>
      <point x="139" y="630" type="qcurve" smooth="yes"/>
      <point x="139" y="588"/>
      <point x="197" y="530"/>
      <point x="239" y="530" type="qcurve" smooth="yes"/>
    </contour>
    <contour>
      <point x="763" y="8" type="qcurve" smooth="yes"/>
      <point x="804" y="8"/>
      <point x="862" y="66"/>
      <point x="862" y="108" type="qcurve" smooth="yes"/>
      <point x="862" y="150"/>
      <point x="804" y="209"/>
      <point x="762" y="209" type="qcurve" smooth="yes"/>
      <point x="662" y="209" type="line"/>
      <point x="662" y="108" type="line" smooth="yes"/>
      <point x="662" y="66"/>
      <point x="721" y="8"/>
    </contour>
  </outline>
</glyph>
<glyph name="uni2325" format="1">
  <advance width="1000" height="1000"/>
  <unicode hex="2325"/>
  <outline>
    <contour>
      <point x="891" y="1" type="qcurve" smooth="yes"/>
      <point x="862" y="3"/>
      <point x="619" y="3" type="qcurve" smooth="yes"/>
      <point x="601" y="3"/>
      <point x="599" y="12" type="qcurve" smooth="yes"/>
      <point x="591" y="39"/>
      <point x="357" y="677" type="qcurve"/>
      <point x="137" y="677"/>
      <point x="119" y="674" type="qcurve" smooth="yes"/>
      <point x="114" y="674"/>
      <point x="105" y="697"/>
      <point x="105" y="715" type="qcurve" smooth="yes"/>
      <point x="105" y="729"/>
      <point x="115" y="729" type="qcurve" smooth="yes"/>
      <point x="144" y="727"/>
      <point x="383" y="727" type="qcurve" smooth="yes"/>
      <point x="401" y="727"/>
      <point x="403" y="718" type="qcurve" smooth="yes"/>
      <point x="410" y="693"/>
      <point x="645" y="53" type="qcurve"/>
      <point x="869" y="53"/>
      <point x="887" y="56" type="qcurve" smooth="yes"/>
      <point x="892" y="56"/>
      <point x="901" y="33"/>
      <point x="901" y="15" type="qcurve" smooth="yes"/>
      <point x="901" y="1"/>
    </contour>
    <contour>
      <point x="589" y="674" type="qcurve" smooth="yes"/>
      <point x="584" y="674"/>
      <point x="575" y="697"/>
      <point x="575" y="715" type="qcurve" smooth="yes"/>
      <point x="575" y="729"/>
      <point x="585" y="729" type="qcurve" smooth="yes"/>
      <point x="614" y="727"/>
      <point x="739" y="727" type="qcurve" smooth="yes"/>
      <point x="869" y="727"/>
      <point x="887" y="730" type="qcurve" smooth="yes"/>
      <point x="892" y="730"/>
      <point x="901" y="707"/>
      <point x="901" y="689" type="qcurve" smooth="yes"/>
      <point x="901" y="675"/>
      <point x="891" y="675" type="qcurve" smooth="yes"/>
      <point x="862" y="677"/>
      <point x="738" y="677" type="qcurve" smooth="yes"/>
      <point x="607" y="677"/>
    </contour>
  </outline>
</glyph>
<glyph name="uni2387" format="1">
  <advance width="1000" height="1000"/>
  <unicode hex="2387"/>
  <outline>
    <contour>
      <point x="355" y="3" type="qcurve" smooth="yes"/>
      <point x="85" y="3" type="line" smooth="yes"/>
      <point x="67" y="3"/>
      <point x="67" y="29" type="qcurve" smooth="yes"/>
      <point x="67" y="39"/>
      <point x="77" y="54"/>
      <point x="85" y="54" type="qcurve" smooth="yes"/>
      <point x="335" y="54" type="line"/>
      <point x="348" y="78"/>
      <point x="359" y="101" type="qcurve" smooth="yes"/>
      <point x="510" y="463"/>
      <point x="539" y="541" type="qcurve" smooth="yes"/>
      <point x="541" y="553"/>
      <point x="555" y="553" type="qcurve" smooth="yes"/>
      <point x="834" y="553" type="line"/>
      <point x="678" y="642"/>
      <point x="678" y="665" type="qcurve" smooth="yes"/>
      <point x="678" y="674"/>
      <point x="694" y="695"/>
      <point x="699" y="695" type="qcurve" smooth="yes"/>
      <point x="704" y="695"/>
      <point x="720" y="684"/>
      <point x="744" y="663"/>
      <point x="766" y="648" type="qcurve" smooth="yes"/>
      <point x="861" y="581"/>
      <point x="925" y="550" type="qcurve" smooth="yes"/>
      <point x="936" y="546"/>
      <point x="936" y="530" type="qcurve" smooth="yes"/>
      <point x="936" y="513"/>
      <point x="925" y="509" type="qcurve" smooth="yes"/>
      <point x="876" y="486"/>
      <point x="747" y="398"/>
      <point x="707" y="363"/>
      <point x="700" y="363" type="qcurve" smooth="yes"/>
      <point x="694" y="363"/>
      <point x="678" y="384"/>
      <point x="678" y="394" type="qcurve" smooth="yes"/>
      <point x="678" y="416"/>
      <point x="834" y="505" type="qcurve"/>
      <point x="586" y="505" type="line"/>
      <point x="566" y="469"/>
      <point x="553" y="440" type="qcurve" smooth="yes"/>
      <point x="387" y="46"/>
      <point x="375" y="10" type="qcurve" smooth="yes"/>
      <point x="373" y="3"/>
    </contour>
    <contour>
      <point x="905" y="3" type="qcurve" smooth="yes"/>
      <point x="575" y="3" type="line" smooth="yes"/>
      <point x="557" y="3"/>
      <point x="557" y="29" type="qcurve" smooth="yes"/>
      <point x="557" y="39"/>
      <point x="567" y="54"/>
      <point x="575" y="54" type="qcurve" smooth="yes"/>
      <point x="905" y="54" type="line" smooth="yes"/>
      <point x="913" y="54"/>
      <point x="923" y="39"/>
      <point x="923" y="29" type="qcurve" smooth="yes"/>
      <point x="923" y="3"/>
    </contour>
  </outline>
</glyph>
<glyph name="uni238B" format="1">
  <advance width="1000" height="1000"/>
  <unicode hex="238B"/>
  <outline>
    <contour>
      <point x="500" y="-61" type="qcurve" smooth="yes"/>
      <point x="381" y="-61"/>
      <point x="187" y="55"/>
      <point x="71" y="249"/>
      <point x="71" y="368" type="qcurve" smooth="yes"/>
      <point x="71" y="421"/>
      <point x="93" y="432"/>
      <point x="103" y="432" type="qcurve" smooth="yes"/>
      <point x="118" y="432"/>
      <point x="118" y="424" type="qcurve" smooth="yes"/>
      <point x="114" y="392"/>
      <point x="114" y="368" type="qcurve" smooth="yes"/>
      <point x="114" y="262"/>
      <point x="218" y="86"/>
      <point x="394" y="-18"/>
      <point x="500" y="-18" type="qcurve" smooth="yes"/>
      <point x="606" y="-18"/>
      <point x="782" y="86"/>
      <point x="886" y="262"/>
      <point x="886" y="368" type="qcurve" smooth="yes"/>
      <point x="886" y="474"/>
      <point x="782" y="650"/>
      <point x="606" y="754"/>
      <point x="500" y="754" type="qcurve" smooth="yes"/>
      <point x="470" y="754"/>
      <point x="445" y="751" type="qcurve" smooth="yes"/>
      <point x="437" y="751"/>
      <point x="437" y="759" type="qcurve" smooth="yes"/>
      <point x="437" y="771"/>
      <point x="446" y="791"/>
      <point x="450" y="792" type="qcurve" smooth="yes"/>
      <point x="466" y="796"/>
      <point x="500" y="796" type="qcurve" smooth="yes"/>
      <point x="619" y="796"/>
      <point x="813" y="680"/>
      <point x="929" y="487"/>
      <point x="929" y="368" type="qcurve" smooth="yes"/>
      <point x="929" y="249"/>
      <point x="813" y="55"/>
      <point x="619" y="-61"/>
    </contour>
    <contour>
      <point x="507" y="336" type="qcurve" smooth="yes"/>
      <point x="499" y="336"/>
      <point x="495" y="340" type="qcurve" smooth="yes"/>
      <point x="475" y="359"/>
      <point x="134" y="700" type="qcurve"/>
      <point x="163" y="594"/>
      <point x="171" y="524" type="qcurve" smooth="yes"/>
      <point x="171" y="514"/>
      <point x="152" y="502"/>
      <point x="143" y="502" type="qcurve" smooth="yes"/>
      <point x="125" y="502"/>
      <point x="124" y="513" type="qcurve" smooth="yes"/>
      <point x="105" y="682"/>
      <point x="72" y="767" type="qcurve" smooth="yes"/>
      <point x="71" y="768"/>
      <point x="71" y="776" type="qcurve" smooth="yes"/>
      <point x="71" y="782"/>
      <point x="85" y="796"/>
      <point x="91" y="796" type="qcurve" smooth="yes"/>
      <point x="98" y="796"/>
      <point x="116" y="789" type="qcurve" smooth="yes"/>
      <point x="195" y="760"/>
      <point x="355" y="743" type="qcurve" smooth="yes"/>
      <point x="365" y="742"/>
      <point x="365" y="731" type="qcurve" smooth="yes"/>
      <point x="365" y="716"/>
      <point x="353" y="696"/>
      <point x="344" y="696" type="qcurve" smooth="yes"/>
      <point x="285" y="703"/>
      <point x="168" y="732" type="qcurve"/>
      <point x="526" y="375" type="line" smooth="yes"/>
      <point x="532" y="370"/>
      <point x="532" y="362" type="qcurve" smooth="yes"/>
      <point x="532" y="354"/>
      <point x="514" y="336"/>
    </contour>
  </outline>
</glyph>
<glyph name="uni239D" format="1">
  <advance width="1000" height="1000"/>
  <unicode hex="239D"/>
  <outline>
    <contour>
      <point x="540" y="880" type="line"/>
      <point x="540" y="592"/>
      <point x="668" y="330" type="qcurve" smooth="yes"/>
      <point x="791" y="80"/>
      <point x="985" y="-81" type="qcurve" smooth="yes"/>
      <point x="997" y="-91"/>
      <point x="997" y="-103" type="qcurve" smooth="yes"/>
      <point x="997" y="-119"/>
      <point x="980" y="-119" type="qcurve" smooth="yes"/>
      <point x="972" y="-119"/>
      <point x="908" y="-77"/>
      <point x="815" y="8"/>
      <point x="708" y="132"/>
      <point x="603" y="297"/>
      <point x="560" y="398" type="qcurve" smooth="yes"/>
      <point x="465" y="623"/>
      <point x="465" y="880" type="qcurve"/>
    </contour>
  </outline>
</glyph>
<glyph name="uni239E" format="1">
  <advance width="1000" height="1000"/>
  <unicode hex="239E"/>
  <outline>
    <contour>
      <point x="460" y="-120" type="line"/>
      <point x="460" y="168"/>
      <point x="332" y="430" type="qcurve" smooth="yes"/>
      <point x="208" y="683"/>
      <point x="15" y="841" type="qcurve" smooth="yes"/>
      <point x="3" y="852"/>
      <point x="3" y="863" type="qcurve" smooth="yes"/>
      <point x="3" y="879"/>
      <point x="20" y="879" type="qcurve" smooth="yes"/>
      <point x="28" y="879"/>
      <point x="92" y="837"/>
      <point x="185" y="753"/>
      <point x="292" y="628"/>
      <point x="397" y="464"/>
      <point x="440" y="362" type="qcurve" smooth="yes"/>
      <point x="535" y="138"/>
      <point x="535" y="-120" type="qcurve"/>
    </contour>
  </outline>
</glyph>
